<svg xmlns="http://www.w3.org/2000/svg" viewBox="0 0 160 264">
  <g id="inspiring-hope" fill="#fff" opacity=".13">
    <path d="M527.46 75.28c-.08-.18-.2-.35-.36-.51-.04-.04-.06-.08-.06-.12-1.08-1.6-3.07-1.34-4.73-1.46l-1.27-.08c-.89-.08-1.5-.35-1.08-1.06a89.95 89.95 0 013.21-4.95c11-15.79 26.7-27.9 40.91-41.06.97-.85 1.9-1.74 2.79-2.66l.12-.25v-1.09c-.49-1.28-2.04-2.08-3.27-1.39-1.21.8-2.36 1.68-3.45 2.6A490.16 490.16 0 00534 48.8a446.99 446.99 0 00-20.16 22.7c-.97 1.2-1.8 1.79-3.34 1.75-4.34 0-11.9.13-13.55.19-4.52.16-8.45.42-12.71.6-.65.04-1.97.17-2.37-.04-.72-.4.04-1.2.4-1.67 1.01-1.25 1.34-1.56 2.4-2.7 10-10.46 20.25-20.74 28.69-32.51 2.09-3.4 4.53-7.01 3.87-11.2a9.76 9.76 0 00-5.63-7.63 14.32 14.32 0 00-5.57-1.76 63.1 63.1 0 00-8.3-.54c-24.63.82-50.67 8.33-72.2 20.28-6.78 3.93-13.45 8.69-17.14 15.8-2.41 4.42-2.16 10.63 2.42 13.56.73.52 2.81 1.3 3.15.12.39-1.35-1.24-2.3-2.36-2.79-2.7-1.18-1.29-4.44-.55-6.47 9.96-22.86 72.24-38.71 95.77-36.08 2.1.26 4.22.67 6.05 1.82.6.44.93.98.97 1.63-.16 3.59-2.11 6.79-4.18 9.62-2.54 3.31-5.16 6.56-7.87 9.75-8.98 10.35-18.65 20-28.14 29.84l-.67.67a4.47 4.47 0 01-3.03 1.27c-.32 0-.62.02-.9.06-13.84 1.07-28.04 2.1-41.17 6.78-1.86.69-3.57 1.6-5.14 2.72-.83.66-1.56 2.29-1.36 3.37.25 1.37.57 2.32 1.66 3.17.56.32 1.17.5 1.81.55.24-.03.58-.3.61-.55.1-.24-.05-.55-.12-.79-.04-.04-.06-.1-.06-.18-.46-1.23-.98-3.45 3.91-4.88 3.69-1.08 6.85-1.58 10.13-2.32h.12a185.76 185.76 0 0118.29-2.78c2.38-.33 4.78-.57 7.2-.73.32-.04 1.4-.15 1.62.38.18.43-.6 1-.78 1.18-19.85 20.97-44.75 45.01-65.7 65.27l-.06.06c-1.46 1.64-4.67 3.18-2.54 5.69.37.46 1.16.66 1.63.24 24.18-21.94 53.27-49.07 75.89-72.6 1.13-1.24 2.05-1.41 3.74-1.5 3.03-.15 6.05-.34 9.08-.54 5.88-.26 13.15-.7 19.06-.62 2.16.03 2.28.13 1.51 1.18-4.92 6.8-10.44 13.72-12.52 22.02-1.1 4.03.07 8.62 3.7 10.96 2.17 1.37 3.96.75 6.29-.24 6.1-2.61 6.01-5.1 6.01-6.83-.04-.89-.63-2.06-1.44-2.5-.23-.1-.85-.4-1-.12-.24.32-.68 1.5-1.23 2.18-2.49 3.06-5.56 5.01-7.6 4.66-1.63-.15-2.02-2.05-1.64-3.39 1.22-6.98 5.48-12.9 9.44-18.61 2.14-2.93 4.36-5.78 6.66-8.57a2.9 2.9 0 012.06-1.09c2.97-.28 5.97.04 8.96 0 .58.06 1.17-.11 1.39-.72a.86.86 0 000-.64M597.68 76.27c-5.65 3.32-8.85 10.16-16.58 7.62-.36-.12-1.91-1.1-1.18-2.14.64-.92 1.59-1.78 2.12-2.24a24.58 24.58 0 018.88-5.29c1.31-.49 3.57-.8 5.02-.92.48-.03 2.42.32 2.84 1.2.32.69-.65 1.51-1.1 1.77m-45.42.31c-1.62 1.5-1.86 1.76-2.68 1.75-2.3-.04-3.73-.81-2.92-2.76 1-2.4 3.4-3.63 5.73-3.56.84.02 1.68.48 1.68 1.4 0 1.09-.77 2.2-1.81 3.17m-6.16 5.78c-3.08 2.4-6.37 4.49-10.17 5.51-.4.08-.79.14-1.15.18a.68.68 0 00-.3.06c-.73.03-1.58-.89-1.46-1.63.56-3.91 3.24-7.04 5.75-9.87 2.02-2.15 4.07-4.14 6.6-5.69.26-.16.84-.48 1.33.04.58.75.28.98-.25 1.55a12.8 12.8 0 00-1.31 1.67 4.01 4.01 0 001.92 5.72c1.08.43 1.03.88-.96 2.46m80.5-11.75c3.63-1.52 5.24-1.73 6.63-1.37 1.73.45 1.68 2.55-3.38 4.41a16.14 16.14 0 01-7.47.67c-.94-.19 1.38-2.38 4.21-3.71m25.21 3.14c-.17-.44-.73-.04-1.16.18-.63.31-2.41 1.5-5.25 3.06a66.33 66.33 0 01-17.18 6.58c-5.85 1.32-10.34 1.62-11.67.45-1.4-1.22-1.74-1.95-.43-4.1.32-.45.84-1.1 1.57-1.94.53-.56.75-.8 1.09-1.1.35-.32.84-.54 1.3-.44 1.26.27 4.12 1.04 7.63.88 3.83-.18 6.5-.9 8.74-3.01 1.84-1.75 2.02-5.5.26-7.3-3.33-3.4-9.54-.77-14.42 1.58a34.29 34.29 0 00-5.8 4.19c-.31.28-.72.41-1.14.38-3.8-.3-7.31.02-10.77.73-.65.16-1.13.26-1.46.3-.42.1-1.13.06-1.4-.29-.25-.33-.93-1.34-1.1-1.54-.4-.45-1.1-1.1-1.55-1.41-5.44-3.74-12.83.8-17.56 4.15-1.33 1.03-2.62 2.1-3.92 3.14-.69.56-1.7 1.25-2.06.96-.35-.28.13-1.66.54-2.47 1.95-3.6 3.73-7.3 5.14-11.13.32-1.05-.12-2.06-1.33-3.03-.32-.29-1.07-.36-1.33 0-.3.3-.5.7-.73 1.09l-4.42 8.16c-.3.55-.87 1.67-1.64 2.16-4.15 2.68-8.9 4.58-14.96 4.5-1.02-.02.73-1.9 1.12-3.34.27-.97.48-2.13.48-2.95 0-2.92-2.77-5.52-5.68-4.43-.33.12-1.22.58-1.5.66-.6.24-1.29.4-1.63-.77-.7-2.37-2-2.33-3.36-1.81-5.65 2.2-10.11 6.64-13.56 11.5a22 22 0 00-2.18 4.36c-1.94 4.66 1.67 11.46 7.2 10.17 5.86-1.42 10.92-5.23 15.08-9.45a3.84 3.84 0 012.54-1.2c5.45-.5 9.47-1.25 14.19-4.23.63-.4 1.04.08.68.74a708.3 708.3 0 01-8.55 14.95c-2.79 5.07-11.08 16.2-13.79 21.36-.09.4.04 1 .25 1.4.36.56.8 1.08 1.33 1.57.37.42 1.4.57 1.75.12 6.05-9.1 17.25-24.48 25.44-31.8.2-.22.56-.52 1.1-.39.8.2.62 1.9 1.53 3.18 1.04 1.45 4.29 2.2 6.13 2.09 5.7-.34 10.66-1.9 14.3-6.64 2.34-3.07 1.93-6.1 2.92-6.73 3.14-1.99 8.23-2.51 10.2-2.07.7.15 1.23.41.84.93-.53.7-1.42 2.2-1.56 2.57a7.68 7.68 0 002.41 8.9c2.6 2.16 7.27 1.7 10.96 1.04 8.71-1.83 15.23-5.16 25.97-12.96.65-.48.61-.97.4-1.5" transform="matrix(0 -1 1 0 0 655)"/>
  </g>
</svg>
