<svg xmlns="http://www.w3.org/2000/svg" viewBox="0 0 192.85 174.46">
    <circle id="circle-outer" fill="#221f53" cx="91.62" cy="87.23" r="86.15"/>
    <circle id="circle-inner" fill="#58c9dc" cx="91.62" cy="87.23" r="55.64"/>
    <path id="circle-o-outline" fill="#58c9dc" d="M91.62 174.46A87.2 87.2 0 0129.94 25.55a87.23 87.23 0 1195.63 142 86.65 86.65 0 01-33.95 6.91zm0-172.3a85.07 85.07 0 1085.06 85.07A85.15 85.15 0 0091.62 2.16z"/>
    <path id="circle-i-outline" fill="#fff" d="M91.62 144a56.71 56.71 0 1140.11-16.61A56.36 56.36 0 0191.62 144zm0-111.28a54.56 54.56 0 1054.56 54.56 54.61 54.61 0 00-54.56-54.61z"/>
    <path fill="#fff" d="M65.73 69.91c1 1 1.19 2.87 2.13 2.48.35-.15.53-.26.31-1.54-.58-3.39.91-1.82.91-1.82l.85 4.35-2.31 2-2.9-.54zM43.41 46.94a1.51 1.51 0 01-.34 1.06 1.44 1.44 0 01-2 .23L30.41 39.6a1.36 1.36 0 01-.53-1 1.51 1.51 0 01.36-1.11 1.48 1.48 0 011-.53 1.41 1.41 0 011.07.32l10.61 8.64a1.36 1.36 0 01.49 1.02zM45.89 23a1.34 1.34 0 01.89.49L55.69 34a1.38 1.38 0 01.35 1 1.43 1.43 0 01-.52 1 2.12 2.12 0 01-.56.33.94.94 0 01-.55.08l-13.76-2.77 6.53 7.71a1.26 1.26 0 01.33 1 1.24 1.24 0 01-.48.91 1.2 1.2 0 01-1 .31 1.34 1.34 0 01-.89-.49L36.28 32.5a1.41 1.41 0 01-.35-1.06 1.37 1.37 0 01.52-1 2 2 0 01.62-.34 1.07 1.07 0 01.63 0l13.68 2.8-6.58-7.77a1.34 1.34 0 01-.33-1 1.29 1.29 0 01.47-.9 1.22 1.22 0 01.95-.23zM61.41 32.32a6.9 6.9 0 01-2.87-.2 1.65 1.65 0 01-1.13-.84 1.34 1.34 0 01-.06-1 1.31 1.31 0 01.69-.8 1.25 1.25 0 01.85-.1 7 7 0 002.16.21 6 6 0 002.07-.62 4.33 4.33 0 001.79-1.54 1.71 1.71 0 00.21-1.74 1.87 1.87 0 00-1.59-1.08 7.9 7.9 0 00-3.1.5q-5 1.61-6.78-2.05a4.3 4.3 0 01-.44-2.67 4.9 4.9 0 011.17-2.45 7.51 7.51 0 012.44-1.84 8.72 8.72 0 012.72-.84 7 7 0 012.49.1 1.61 1.61 0 011.17.82 1.34 1.34 0 01.06 1 1.26 1.26 0 01-.67.79 1 1 0 01-.67.09A6.64 6.64 0 0060 18a5.79 5.79 0 00-2 .5 4 4 0 00-1.8 1.5 1.68 1.68 0 00-.1 1.66 1.72 1.72 0 001.44 1 8.09 8.09 0 002.74-.4 13.79 13.79 0 013.33-.62 4.21 4.21 0 012.31.55 4.72 4.72 0 011.68 2A4.27 4.27 0 0168 27a5.47 5.47 0 01-1.25 2.54 7.53 7.53 0 01-2.43 1.87 9.77 9.77 0 01-2.91.91zM77.24 10.16a5.49 5.49 0 013.42 3.92 5.6 5.6 0 010 2.73 5.29 5.29 0 01-1.25 2.31 4.14 4.14 0 01-2.07 1.24l-4 1 1 4.35a1.42 1.42 0 01-.13 1.1 1.31 1.31 0 01-.87.63 1.26 1.26 0 01-1-.18 1.48 1.48 0 01-.61-.91L68.52 13a1.41 1.41 0 011.07-1.74L74.84 10a4.14 4.14 0 012.4.16zm.23 7a2.82 2.82 0 00.46-1.16 3.16 3.16 0 000-1.3 3 3 0 00-.56-1.17 2.77 2.77 0 00-.92-.77 1.38 1.38 0 00-1-.15l-4 1 1.22 5.09 4-1a1.39 1.39 0 00.8-.54zM88 24.42a1.53 1.53 0 01-2.09.17 1.44 1.44 0 01-.49-1L84.35 10a1.35 1.35 0 01.34-1.06 1.46 1.46 0 011-.5 1.44 1.44 0 011.61 1.28l1.08 13.64a1.34 1.34 0 01-.38 1.06zM105.56 23.92a1.14 1.14 0 01.11.65 1.16 1.16 0 01-.36.75 1.34 1.34 0 01-1.12.32 2.06 2.06 0 01-1-.37c-1.07-.75-1.5-2.12-1.31-4.1a1.7 1.7 0 00-.42-1.4 2.34 2.34 0 00-1.54-.65l-4.41-.44-.45 4.57a1.58 1.58 0 01-.44 1 1.19 1.19 0 01-1 .31 1.9 1.9 0 01-1.11-.56 1.29 1.29 0 01-.41-1l1.36-13.66A1.41 1.41 0 0195 8.05l6.78.67a4.41 4.41 0 012.25.89 5 5 0 011.55 2 5.31 5.31 0 01.39 2.65 4.65 4.65 0 01-.87 2.24 5 5 0 01-1.82 1.61 3.63 3.63 0 011.39 2.89 4.57 4.57 0 010 .74 7.41 7.41 0 00.08 1.07.76.76 0 00.38.52 1.45 1.45 0 01.43.59zm-3.79-7.47a3.17 3.17 0 00.77-1 4.1 4.1 0 00.4-1.42 2.85 2.85 0 00-.14-1.24 2.62 2.62 0 00-.57-.95 1.3 1.3 0 00-.79-.41l-5.16-.51-.54 5.34 5.16.52a1.17 1.17 0 00.87-.33zM118.33 27.68a1.31 1.31 0 01.08 1 1.26 1.26 0 01-.7.79 1.49 1.49 0 01-1.1 0L109.1 27a1.41 1.41 0 01-.84-.73 1.36 1.36 0 01-.05-1.1l4.43-12.95a1.39 1.39 0 01.73-.84 1.42 1.42 0 011.11-.06l7.5 2.57a1.46 1.46 0 01.85.7 1.33 1.33 0 01.06 1.09 1.25 1.25 0 01-.69.78 1.54 1.54 0 01-1.1 0l-6.1-2.11-1.31 3.8 5.06 1.74a1.43 1.43 0 01.85.7 1.33 1.33 0 01.07 1.09 1.28 1.28 0 01-.69.78 1.57 1.57 0 01-1.11 0l-5.06-1.74-1.42 4.14 6.1 2.14a1.42 1.42 0 01.84.68z"/>
    <g fill="#58c9dc" id="wave">
      <path fill="#221f53" d="M185.88 119.87a119.2 119.2 0 00-14-.06c-11.23.54-27.11 2.5-48.5 7.64-50.8 12.21-71.7 28.7-100.89 10.34a85.85 85.85 0 00125 15.08 2.72 2.72 0 012-.51c3.86.13 12.36.56 15.74 1a4.84 4.84 0 005.17-3 4.85 4.85 0 00-4.15-6.58c-3-.23-9.2-.5-9.2-.5a78 78 0 007.33-9.55 2.26 2.26 0 011.78-1.11 115.76 115.76 0 0118.85-.11 6.33 6.33 0 006.41-4.25 6.31 6.31 0 00-5.54-8.39z"/>
      <path d="M92.14 174.33a87.13 87.13 0 01-70.55-35.9 1.09 1.09 0 011.41-1.56c21 13.21 37.57 8 65-.52 10.07-3.13 21.47-6.69 35.05-9.95 18.37-4.41 34.75-7 48.69-7.67a118 118 0 0114.15.06 7.4 7.4 0 016.48 9.8 7.42 7.42 0 01-7.5 5 115.29 115.29 0 00-18.72.11h-.06a1.22 1.22 0 00-.87.62 70 70 0 01-6 8c2.1.1 5.19.26 7 .4a5.93 5.93 0 11-1.26 11.78c-3.44-.47-12.17-.89-15.62-1-.68 0-1 0-1.25.26a87.66 87.66 0 01-55.95 20.57zm-65.43-32.86A84.74 84.74 0 00146.81 152a3.75 3.75 0 012.71-.76c3.49.12 12.32.55 15.84 1a3.76 3.76 0 10.8-7.48c-2.94-.23-9.11-.49-9.17-.5a1.08 1.08 0 01-1-.65 1.1 1.1 0 01.18-1.14 76.06 76.06 0 007.24-9.42 3.34 3.34 0 012.64-1.6 118.29 118.29 0 0119-.1 5.24 5.24 0 004.73-8.12 5.2 5.2 0 00-4-2.33 117.91 117.91 0 00-13.89-.06c-13.81.67-30.06 3.23-48.29 7.61-13.51 3.25-24.88 6.79-34.91 9.92-14 4.36-25 7.8-35.51 8.52a48 48 0 01-26.47-5.42z"/>
      <path d="M73.71 151.89a1.08 1.08 0 01-.34-2.11c22.3-7.52 57.9-16 87.14-18.05 13.52-.94 16.11-.91 24.57-.33a5.24 5.24 0 004.73-8.12 5.2 5.2 0 00-4-2.33c-10.87-.76-30.48-.06-62.17 7.55-13.51 3.25-24.88 6.79-34.91 9.92-14 4.36-25 7.8-35.51 8.52-11.36.78-21-1.76-31.31-8.24a1.08 1.08 0 01-.34-1.49 1.09 1.09 0 011.5-.34c21 13.21 37.56 8 65-.52 10.07-3.13 21.47-6.69 35.05-9.95 32-7.68 51.81-8.38 62.83-7.61a7.4 7.4 0 01-1 14.77c-8.33-.57-10.89-.6-24.27.33-29 2-64.43 10.47-86.6 17.94a1.07 1.07 0 01-.37.06zM125.93 155.89a1.09 1.09 0 01-.33-2.12c14.52-4.59 35.66-2 39.75-1.46a3.76 3.76 0 003.71-5.72 3.8 3.8 0 00-2.92-1.76 127.77 127.77 0 00-49.83 5.88 1.08 1.08 0 01-1.39-.63 1.09 1.09 0 01.63-1.4 130.1 130.1 0 0150.77-6 5.93 5.93 0 11-1.26 11.78c-4-.55-24.73-3.07-38.8 1.39a1.26 1.26 0 01-.33.04z"/>
    </g>
    <g fill="#fff" id="kids-outer">
      <path d="M8 143.74a5.12 5.12 0 01-3.65-1.51s-3.8-4-4-6.22a2.48 2.48 0 011.22-2.34 2.41 2.41 0 011.57-.31c.91-5.14 1.91-10.39 3-15.66 1.31-6.34 2.7-12.42 4.13-18.06s2.83-10.53 4.12-14.51c1.82-5.6 2.81-7.38 3.41-8.22a13.36 13.36 0 015.25-4 20.39 20.39 0 017-1.8c.07-.08.18-.24.26-.35a4.33 4.33 0 01.93-1 2.81 2.81 0 013.07-.25c1.83 1 3.92 5.09 4 6.84.09 1.17-.16 3.77-2.64 13l2.86-3.59c2.49-2.8 4.47-4.93 5.88-6.32a56 56 0 015.36-4.57 24.72 24.72 0 003.35-3.49c1.95-2.3 4-4.67 6.87-4.89 4.16-.31 7.23 5.36 7.42 7.84a11.81 11.81 0 01-.81 5.12 15.43 15.43 0 01-2.73 4.52c-1.94 2.26-5.54 5.26-11 9.16a96.49 96.49 0 00-8 6.33c.44 1.73.89 3.33 1.36 4.76a37.46 37.46 0 001.81 4.6c.64 1.33 1.56 3 2.71 4.84a48.51 48.51 0 004.08 5.73 11.8 11.8 0 006.79 4.36c.57.17 1.16.35 1.81.57h.1c.61.24 1.58.8 3 2.9s1.49 2.89 1.51 3.17c.12 1.52-.57 3-2.09 4.54a17.34 17.34 0 01-5.8 4.48 19.57 19.57 0 01-7.11 2A21.12 21.12 0 0141 138.76a22.08 22.08 0 01-8.69-9A46.39 46.39 0 0128 117.82c-.4 1.14-.88 2.61-1.45 4.41a62 62 0 01-3.44 9.56 21.55 21.55 0 01-4.25 6.06 24.41 24.41 0 01-5.12 3.94 13 13 0 01-5.37 1.94zm-1-5.65c.28.33.51.6.65.74a.42.42 0 00.39.15 8.5 8.5 0 003.33-1.31 19.74 19.74 0 004.15-3.19 16.39 16.39 0 003.29-4.73 57.58 57.58 0 003.19-8.87v-.06c1-3.2 1.75-5.38 2.27-6.66a41.1 41.1 0 012.64-5.09l.63-1.07 3.81-.29.18 2.37a25 25 0 00.4 3.1v.06a45.85 45.85 0 004.57 14.2 17.09 17.09 0 006.83 7.16 16.11 16.11 0 009.37 2 14.85 14.85 0 005.39-1.49 12.62 12.62 0 004.28-3.31l.08-.09.08-.08a4.06 4.06 0 00.67-.8 11.38 11.38 0 00-1.53-2.14c-.48-.16-1-.3-1.41-.44a16.28 16.28 0 01-9-5.81 53.23 53.23 0 01-4.5-6.31c-1.23-2-2.22-3.78-2.94-5.26a43.42 43.42 0 01-2.05-5.2c-.62-1.91-1.23-4.09-1.8-6.47l-.32-1.33 1-.94a92.11 92.11 0 019.5-7.68c5.09-3.64 8.52-6.47 10.18-8.4a10.81 10.81 0 001.9-3.14 6.92 6.92 0 00.5-3c-.09-.94-1.56-3.23-2.36-3.45-.93.04-2.37 1.74-3.57 3.15a28.66 28.66 0 01-4 4.15 50.47 50.47 0 00-4.91 4.18c-1.33 1.31-3.22 3.35-5.63 6l-8.77 11-2.49 4.19-3.27-3.52.31-1.25c.18-.71.48-1.79.91-3.3s.7-2.48.87-3.14v-.06c3.55-12.67 3.78-15.43 3.76-16a7.76 7.76 0 00-.74-1.66 4.47 4.47 0 01-2.39.87 15.78 15.78 0 00-5.37 1.39 8.72 8.72 0 00-3.39 2.46c-.38.54-1.22 2.16-2.76 6.93-1.26 3.88-2.62 8.67-4 14.22s-2.8 11.57-4.09 17.84-2.5 12.49-3.54 18.56a2.18 2.18 0 01-.3.82zm-2-2.8zm58.32-4.7zm-3-59.41z"/>
      <path d="M76.72 131.61a8.3 8.3 0 01-5.59-2.26 14 14 0 01-3.39-4.78 20.74 20.74 0 01-1.35-6.44A66.09 66.09 0 0168 99.38c1.54-7.14 3.5-12.28 6-15.73a7.33 7.33 0 015.74-3.18c.14 0 .21 0 .5-.23 1.83-1.12 3.45-.8 4.83 1s3.83 6.88 4.07 10.19a72 72 0 01-.69 14.86 135.26 135.26 0 01-3.71 17.62c-.79 2.94-1.93 5-3.5 6.24l-.09.07A7.88 7.88 0 0177 131.6h-.32zm-2.41-5.81a3.68 3.68 0 002.37 1 3.15 3.15 0 001.58-.5c.43-.37 1.2-1.32 1.85-3.74a132 132 0 003.58-17 68.06 68.06 0 00.67-13.85 20.12 20.12 0 00-2.62-6.93 5.3 5.3 0 01-1.69.41 2.58 2.58 0 00-2.17 1.13v.06c-2.06 2.86-3.81 7.57-5.2 14a61.66 61.66 0 00-1.56 17.34 16.32 16.32 0 001 5 9 9 0 002.19 3.08z"/>
      <path d="M80.56 80.87c-4.82 0-7.81-3.14-8.23-8.67a24.67 24.67 0 011.19-8.75 20.85 20.85 0 013.77-7.7 9.4 9.4 0 012.82-2.39 9.71 9.71 0 013.79-1 5 5 0 001.21-.24 3.78 3.78 0 014 .8 13.43 13.43 0 013.78 7.66 25.09 25.09 0 01-1 9.17 19.6 19.6 0 01-4 7.48 9.73 9.73 0 01-6.54 3.58h-.25zm5.62-24.07a9.09 9.09 0 01-1.92.34 5 5 0 00-1.93.44A4.74 4.74 0 0081 58.79v.05a16.61 16.61 0 00-2.84 6 20.35 20.35 0 00-1 7c.3 4 2 4.33 3.73 4.26H81a5.14 5.14 0 003.34-2 14.85 14.85 0 003-5.68A20.33 20.33 0 0088.1 61a8.94 8.94 0 00-1.92-4.2z"/>
      <path d="M100.74 123.22a10.45 10.45 0 01-7.89-3.58 15.64 15.64 0 01-3.8-9.67 34.18 34.18 0 011.28-11.25A53.32 53.32 0 0195.2 86.8a39.78 39.78 0 014.55-6.65 38.79 38.79 0 015.47-5.2c3.93-3 7.29-4.59 10.28-4.81a8.42 8.42 0 013.82.78c.6-3.91 1.18-7.17 1.73-9.71a55.67 55.67 0 012-7.33 16.15 16.15 0 012.61-4.93c1.62-2 4.33-3.15 8.26-3.51.1-.16.21-.38.29-.53.42-.81 1.2-2.32 3-2.32s2.79 1.41 3.72 2.85c.6 1 1.08 1.92 1.1 2l.39.77-.2.83c0 .09-1.95 8.47-2.35 10.79s-.8 5.62-1.18 9.74a115 115 0 00-.25 18 72.4 72.4 0 001.67 10.79 108.61 108.61 0 003.78 12.44l.58 1.59-1.31 1.07a51.4 51.4 0 01-4.86 3.54 33.47 33.47 0 01-4.58 2.46 13.52 13.52 0 01-4.37 1.18c-3.43.26-7.39-4.4-8.32-6.21a3 3 0 01-.15-3c-.09-.38-.19-.84-.31-1.42a66.84 66.84 0 01-8.63 8.1c-4.13 3.18-7.51 4.83-10.33 5q-.44.11-.87.11zm7.41-44.52a32.17 32.17 0 00-8.78 10.41A48.28 48.28 0 0094.93 100a29.51 29.51 0 00-1.13 9.66 11 11 0 002.57 6.82 5.6 5.6 0 004.88 2c1.27-.09 3.65-.87 7.79-4.06a70.1 70.1 0 0011.08-11.09l3.22-3.91 1 5c1 5 1.36 6.72 1.52 7.29a2.8 2.8 0 01.05 1.48 9.6 9.6 0 003.22 2.75 9.54 9.54 0 002.74-.8 28.33 28.33 0 003.92-2.11c1-.63 2-1.36 3.09-2.17a105.21 105.21 0 01-3.37-11.38 77.83 77.83 0 01-1.78-11.5 120.08 120.08 0 01.27-18.87c.39-4.26.81-7.66 1.23-10.12.34-2 1.69-7.94 2.2-10.19a3.8 3.8 0 01-2.59 1.34c-2.7.2-4.61.84-5.38 1.81v.06a11.42 11.42 0 00-1.78 3.49 53 53 0 00-1.86 6.71c-.58 2.69-1.2 6.27-1.85 10.64l-.97 5.42-3-1.73c-2.89-1.67-3.94-1.69-4.12-1.68-1.38.14-3.88.86-7.73 3.84zm3.32 29a5.19 5.19 0 01-4.34-2.24 10.6 10.6 0 01-1.62-5.41 33.11 33.11 0 01.49-7.55 47.32 47.32 0 011.93-7.8 22 22 0 012.91-5.93 3.38 3.38 0 012.61-1.57c1.25-.1 3 .42 4.28 3.41 1.23 2.59 0 4.92-.87 6.62a6.09 6.09 0 00-.86 2.07 14.9 14.9 0 01-.86 4.92c1.44-.3 2.19-.43 2.93 0a15.42 15.42 0 001.44-1.31l3.68-3.78.67 8.91-.52.7a32.47 32.47 0 01-5.59 6c-2.27 1.86-4.11 2.78-5.8 2.91zm-1.25-8.85v.85a6.12 6.12 0 00.75 3c.13.19.2.27.57.24.16 0 1.07-.16 3.13-1.84a24.6 24.6 0 002-1.86 3.17 3.17 0 01-.7-.31h-.15c-3.02.64-4.47.95-5.6-.1zm7.17-4.23z"/>
      <path d="M156 118.43a15.6 15.6 0 01-7.94-1.87 9.06 9.06 0 01-4.63-7.39 11 11 0 012-6.85 18.51 18.51 0 015.36-5.4 17 17 0 012.18-1.23 16.42 16.42 0 01-6.63-3.54c-1.35-1.23-5.06-5.48-5.29-8.63-.26-3.41 1.54-5.61 3.28-7.73a27.25 27.25 0 002.25-3 34.33 34.33 0 0110.23-10.5 27.86 27.86 0 0113.41-4.85 14.52 14.52 0 017 1.2 1 1 0 00.2.08 3.4 3.4 0 013.55 1.6c1.06 1.36 4 6.13 4.15 8.83a13.57 13.57 0 01-1.54 7 18.87 18.87 0 01-4.58 5.9 14.39 14.39 0 01-1.94 1.43l.34.09a2.78 2.78 0 01.43-.4 2.53 2.53 0 013.11.09l.1.08.09.08c1.54 1.43 4.79 6.53 5 9.46a15.31 15.31 0 01-1.81 8.09A31.82 31.82 0 01178 109a33.35 33.35 0 01-9.39 6.69 31.39 31.39 0 01-10.72 2.64c-.65.08-1.3.1-1.89.1zm.9-19.1a10.51 10.51 0 00-3.49 1.56 13.73 13.73 0 00-4 4 6.47 6.47 0 00-1.24 3.92 4.23 4.23 0 002.3 3.63c1.69 1 4.08 1.38 7.11 1.16a26.68 26.68 0 009.11-2.22 28.69 28.69 0 008-5.77 27.24 27.24 0 005.39-6.82 10.54 10.54 0 001.3-5.56 13.59 13.59 0 00-1.8-4 2.4 2.4 0 01-.9-.23 35.09 35.09 0 00-8.16-2 42.62 42.62 0 01-5.87-1.25 8.17 8.17 0 01-3.77-2.23 6.77 6.77 0 01-1.6-4.1 16.3 16.3 0 01.81-6.11 18.08 18.08 0 012.79-5.65 16.11 16.11 0 013.32-3.3l1.87-1.52 1.5 1.89a12.37 12.37 0 012.75 6.85c.16 2.21-1.48 3.6-2.68 4.61a11.56 11.56 0 00-1.23 1.14c.31.24.65.48.89.65 1 .73 1.78 1.27 2.1 2.09a2.27 2.27 0 001 .12 6.2 6.2 0 003.42-1.73 14 14 0 003.44-4.46 8.85 8.85 0 001.06-4.54c-.07-1-1.76-4.34-3-6a5.15 5.15 0 01-2.12-.49 9.62 9.62 0 00-4.71-.81 23 23 0 00-11.11 4.06 29.39 29.39 0 00-8.83 9 33.8 33.8 0 01-2.55 3.59c-1.58 1.92-2.33 2.91-2.22 4.36.07 1 2.21 4.11 3.75 5.46l.13.12c.75.76 2.91 2.23 9 3.52 4 .79 6.47 1.71 7.89 2.9a6.67 6.67 0 012.51 4.91 10.72 10.72 0 01-2.38 7.47 9.66 9.66 0 01-6.52 4l-1.2.15-.83-.88a8.31 8.31 0 01-2.41-5.17 14.38 14.38 0 011.14-6.32zm5.49-1.13a7.71 7.71 0 01-.69 2 10.53 10.53 0 00-1.19 5.11 3.07 3.07 0 00.33 1.16 6.92 6.92 0 003.52-6.06 1.91 1.91 0 00-.71-1.53l-.1-.09a4.76 4.76 0 00-1.2-.59zm1.86-18.26a1 1 0 00.22.39 2.25 2.25 0 00.76.52 7.81 7.81 0 01-1.02-.91zm7.36.87zm-.4-.87zm-4-10a3.05 3.05 0 00-.29.37l-.09.13a13.29 13.29 0 00-2 3.82 14.49 14.49 0 011.78-1.69 12.67 12.67 0 001-.89 6.89 6.89 0 00-.48-1.76z"/>
      <path d="M5.44 140.17a5.12 5.12 0 01-3.65-1.51A5.88 5.88 0 010 134.83a9 9 0 010-1.82v-.1c1.05-6.13 2.24-12.45 3.54-18.79s2.76-12.42 4.2-18.06 2.83-10.53 4.12-14.51c1.81-5.61 2.81-7.38 3.4-8.22v-.06a13.34 13.34 0 015.25-4 20.23 20.23 0 017-1.81 10.15 10.15 0 015.58.75 5.24 5.24 0 012.69 4.45c.09 1.17-.16 3.76-2.63 13L36 82.12c2.49-2.8 4.47-4.93 5.88-6.32a53.22 53.22 0 015.36-4.57c3.95-3.12 7.77-4.84 11.36-5.11 4.36-.32 6.11 2.15 6.29 4.57a11.86 11.86 0 01-.81 5.13 15.43 15.43 0 01-2.73 4.52c-1.94 2.26-5.54 5.25-11 9.16a96.64 96.64 0 00-8 6.32c.44 1.73.9 3.33 1.36 4.76a37.46 37.46 0 001.81 4.6c.64 1.33 1.56 3 2.71 4.84a48.51 48.51 0 004.08 5.73c3.49 4 6.83 6.63 9.93 7.7h.1c.83.32 3 1.19 3.18 3.31.12 1.51-.57 3-2.09 4.54a17.54 17.54 0 01-5.8 4.48 19.62 19.62 0 01-7.12 2 21.12 21.12 0 01-12.06-2.59 22 22 0 01-8.69-9.05 46.16 46.16 0 01-4.32-11.86c-.4 1.13-.88 2.6-1.44 4.39a62.79 62.79 0 01-3.44 9.56 21.55 21.55 0 01-4.25 6.06 24.47 24.47 0 01-5.13 3.94 13.09 13.09 0 01-5.37 1.94zm-.66-6.53v.83a1.14 1.14 0 00.33.78.39.39 0 00.38.14 8.33 8.33 0 003.33-1.31A19.31 19.31 0 0013 130.9a16.93 16.93 0 003.29-4.73 58.67 58.67 0 003.16-8.84v-.06c1-3.2 1.75-5.38 2.27-6.66a39.75 39.75 0 012.64-5.09l.63-1.08 3.82-.28.18 2.38a25.1 25.1 0 00.4 3.09v.06A45.85 45.85 0 0034 123.86a17.12 17.12 0 006.83 7.14 16.22 16.22 0 009.38 2 14.74 14.74 0 005.39-1.48 12.68 12.68 0 004.27-3.31l.08-.09.05-.12.23-.25c-3.8-1.43-7.58-4.36-11.52-8.93a52.9 52.9 0 01-4.5-6.31c-1.24-2-2.23-3.79-2.94-5.26a39.9 39.9 0 01-2.05-5.21 85.82 85.82 0 01-1.8-6.46l-.32-1.34 1-1a93.46 93.46 0 019.5-7.68c5.09-3.64 8.52-6.46 10.18-8.39a10.69 10.69 0 001.89-3.14 6.78 6.78 0 00.5-3 .31.31 0 000-.1 3.39 3.39 0 00-1.17-.04c-2.62.19-5.57 1.57-8.77 4.1a51.91 51.91 0 00-4.92 4.19c-1.32 1.31-3.21 3.34-5.62 6l-8.77 11-2.38 4.09-3.29-3.53.32-1.26c.18-.71.47-1.79.91-3.3s.7-2.48.86-3.14v-.06c3.63-13 3.79-15.55 3.75-16 0-.19-.06-.52-.18-.59a6.44 6.44 0 00-3-.2 15.5 15.5 0 00-5.37 1.39 8.63 8.63 0 00-3.39 2.46c-.38.54-1.22 2.15-2.76 6.92-1.26 3.88-2.62 8.67-4 14.22S9.6 108.75 8.3 115.03s-2.48 12.56-3.52 18.61z"/>
      <path d="M74.19 128a8.27 8.27 0 01-5.6-2.27 13.73 13.73 0 01-3.44-4.73 20.88 20.88 0 01-1.35-6.45 66.42 66.42 0 011.65-18.75c1.55-7.14 3.5-12.28 6-15.73a7.39 7.39 0 015.75-3.19A7.58 7.58 0 0183.89 80a14.15 14.15 0 012.69 7.81 72 72 0 01-.69 14.86 135.74 135.74 0 01-3.71 17.63c-.79 2.93-1.93 5-3.5 6.23l-.1.08a7.88 7.88 0 01-4.07 1.39h-.32zm-2.41-5.82a3.62 3.62 0 002.37 1 3.05 3.05 0 001.58-.5c.43-.36 1.19-1.31 1.84-3.73a130.35 130.35 0 003.58-17 66.65 66.65 0 00.67-13.85 9.58 9.58 0 00-1.69-5.22 2.75 2.75 0 00-2.6-1.29 2.56 2.56 0 00-2.17 1.13c-2.06 2.87-3.81 7.57-5.2 14a61.69 61.69 0 00-1.56 17.34 16.32 16.32 0 001 5 9 9 0 002.18 3.16z"/>
      <path d="M76.94 77.77h-.46C71.06 77.5 68 74.1 68 68.45a22.3 22.3 0 012.06-8.56 19.8 19.8 0 014.78-7.22 9.87 9.87 0 013.2-2 11.07 11.07 0 014-.57 9.29 9.29 0 016.48 2.25c1.56 1.43 2.32 3.65 2.31 6.65A22.84 22.84 0 0189 68a18.84 18.84 0 01-5 7 10.72 10.72 0 01-7.06 2.77zM76.68 73h.16a6 6 0 004-1.7 14.09 14.09 0 003.74-5.24A18 18 0 0086.05 59a4.65 4.65 0 00-.81-3.21 4.92 4.92 0 00-3.26-.9 6.35 6.35 0 00-2.28.27 5.19 5.19 0 00-1.64 1.08v.05a15.43 15.43 0 00-3.57 5.53 17.87 17.87 0 00-1.68 6.7c-.05 3.54 1.44 4.35 3.87 4.48z"/>
      <path d="M98.21 119.65a10.43 10.43 0 01-7.9-3.59 15.68 15.68 0 01-3.81-9.67 34.21 34.21 0 011.29-11.25 52.86 52.86 0 014.87-11.92 40.3 40.3 0 014.55-6.66 38.79 38.79 0 015.47-5.2c3.93-3 7.29-4.6 10.28-4.82a8.55 8.55 0 013.82.78c.6-3.91 1.18-7.17 1.72-9.7a57.14 57.14 0 012-7.33 16 16 0 012.61-4.94c1.68-2.07 4.53-3.23 8.71-3.54a20.45 20.45 0 013.94 0 6.17 6.17 0 013 1.21 2.42 2.42 0 01.86 2.45c-1.16 4.79-1.95 8.41-2.35 10.76s-.79 5.63-1.18 9.74a115.1 115.1 0 00-.25 18 72.47 72.47 0 001.67 10.78 108.61 108.61 0 003.78 12.44l.58 1.59-1.31 1.07a51.4 51.4 0 01-4.86 3.54 32.06 32.06 0 01-4.59 2.47 13.52 13.52 0 01-4.37 1.18 6.39 6.39 0 01-6.43-3.72 23.46 23.46 0 01-1.68-3.94c-.11-.39-.29-1.1-.67-2.91a66.73 66.73 0 01-8.62 8.09c-4.13 3.18-7.51 4.83-10.34 5zm7.41-44.52a34.14 34.14 0 00-4.79 4.55 35 35 0 00-4 5.86 48.09 48.09 0 00-4.43 10.84 29.46 29.46 0 00-1.13 9.62 11 11 0 002.57 6.82 5.63 5.63 0 004.88 2c1.26-.1 3.64-.88 7.78-4.06a71 71 0 0011.08-11.09l3.23-3.92 1 5c1 5 1.36 6.72 1.52 7.29a18.2 18.2 0 001.34 3.08c.53 1 1.07 1.21 1.83 1.15a9.33 9.33 0 002.83-.8 28.33 28.33 0 003.92-2.11c1-.64 2-1.36 3.08-2.17a106.63 106.63 0 01-3.36-11.38 77.83 77.83 0 01-1.78-11.5 120 120 0 01.25-18.81c.4-4.26.81-7.65 1.23-10.12.36-2.08 1-5.08 1.9-8.93-.49 0-1.22 0-2.28.08-2.69.2-4.6.84-5.37 1.8v.07a11.42 11.42 0 00-1.78 3.49 52.83 52.83 0 00-1.86 6.7c-.58 2.7-1.2 6.28-1.85 10.64l-.9 5.4-3-1.73c-2.89-1.67-3.93-1.69-4.11-1.68-1.42.18-3.91.93-7.8 3.91zm30.26-28.37zM109 104.1c-1.92 0-5.48-.92-6-7.65a32.54 32.54 0 01.44-7.53 46.34 46.34 0 011.93-7.8 22.27 22.27 0 012.9-5.93 3.43 3.43 0 012.63-1.58c1.25-.09 3 .43 4.28 3.41a24 24 0 012.48 8.72 18.37 18.37 0 010 2.87l3-3.11.67 8.92-.52.71a32.4 32.4 0 01-5.59 6c-2.27 1.87-4.11 2.79-5.8 2.92zm2.16-24.45a23.54 23.54 0 00-1.26 3 42.91 42.91 0 00-1.73 7 28.63 28.63 0 00-.39 6.42 6.12 6.12 0 00.75 3c.13.19.2.26.56.24.16 0 1.07-.16 3.13-1.85a24.21 24.21 0 002-1.85 2.93 2.93 0 01-2.09-2.69 6.66 6.66 0 01.26-2v-.07a14.42 14.42 0 00.52-4.82 19 19 0 00-1.8-6.38zM114.85 91z"/>
      <path d="M153.43 114.86a15.51 15.51 0 01-8-1.88 9 9 0 01-4.63-7.39 11 11 0 012-6.85 18.47 18.47 0 015.35-5.4 19 19 0 012.17-1.23 16.27 16.27 0 01-6.61-3.53 9.58 9.58 0 01-3.28-6.66A21.1 21.1 0 01144 69.19a34.26 34.26 0 0110.24-10.5 27.66 27.66 0 0113.41-4.85 14.42 14.42 0 017 1.2 14 14 0 015.46 4.2 11.53 11.53 0 012.46 6.31 13.45 13.45 0 01-1.54 7 18.91 18.91 0 01-4.54 5.93 15.77 15.77 0 01-1.92 1.42 22.34 22.34 0 013.61 1.23 14.9 14.9 0 012.27 1.5l.1.07.09.08a9.56 9.56 0 012.95 6.51 15.35 15.35 0 01-1.81 8.09 32 32 0 01-6.31 8.06 33.51 33.51 0 01-9.38 6.69 31.68 31.68 0 01-10.73 2.64c-.66.07-1.3.09-1.93.09zm.88-19.09a10.32 10.32 0 00-3.48 1.55 13.7 13.7 0 00-4 4 6.46 6.46 0 00-1.24 3.91 4.24 4.24 0 002.29 3.63c1.69 1 4.09 1.38 7.11 1.15a26.91 26.91 0 009.11-2.21 28.89 28.89 0 008-5.77 27 27 0 005.38-6.82 10.45 10.45 0 001.3-5.56 4.85 4.85 0 00-1.36-3.28 10.83 10.83 0 00-1.35-.93 35.1 35.1 0 00-8.14-2 43 43 0 01-5.87-1.25 8.25 8.25 0 01-3.77-2.23 6.82 6.82 0 01-1.6-4.11 16.3 16.3 0 01.81-6.11 18 18 0 012.79-5.66 16.62 16.62 0 013.32-3.3l1.88-1.51 1.51 1.87a12.31 12.31 0 012.79 6.86 31.9 31.9 0 01-.55 7.85v.09a5.47 5.47 0 00-.12.62 2.53 2.53 0 00.8 0 6.27 6.27 0 003.42-1.73 14.21 14.21 0 003.39-4.43 8.94 8.94 0 001.06-4.53 6.78 6.78 0 00-1.47-3.74 9.14 9.14 0 00-3.62-2.76 9.6 9.6 0 00-4.7-.81 23.08 23.08 0 00-11.12 4.06 29.54 29.54 0 00-8.82 9 16.4 16.4 0 00-2.82 9.86 4.89 4.89 0 001.76 3.57l.13.12c.74.76 2.91 2.23 9 3.51 4 .79 6.47 1.72 7.89 2.91a6.68 6.68 0 012.51 4.92 10.68 10.68 0 01-2.38 7.46 9.69 9.69 0 01-6.53 4.06l-1.2.15-.83-.88a8.33 8.33 0 01-2.42-5.18 14.27 14.27 0 011.14-6.35zm5.5-1.14a7.13 7.13 0 01-.68 2 10.54 10.54 0 00-1.19 5.12 3.08 3.08 0 00.33 1.15 6.24 6.24 0 002.1-1.85 6.05 6.05 0 001.41-4.21 1.9 1.9 0 00-.72-1.53l-.1-.08a4.59 4.59 0 00-1.15-.6zm-3.68 1zm8.46-29.24a2.77 2.77 0 00-.28.36l-.09.13a13.18 13.18 0 00-2.09 4.23v.06a11.54 11.54 0 00-.61 4.34 2.3 2.3 0 00.4 1.27 3.72 3.72 0 001.65.87l.75.21a1.94 1.94 0 010-.24 9 9 0 01.27-2.63 27.81 27.81 0 00.48-6.61 7.46 7.46 0 00-.48-2.02zm4 10z"/>
      <path d="M70.34 90.78a2.55 2.55 0 01-1.52-.51c-.55-.38-1.71-1.52-.75-3.81.41-1 .24-1.23-.49-2.37a7.65 7.65 0 01-1.25-6.85c.33-1.19.84-3 2.63-3.35a3.23 3.23 0 013.19 1.58A3.38 3.38 0 0076.08 77a4.62 4.62 0 012.36.26 13.86 13.86 0 013.14 1.82l2.31 1.73-2.14 2c-.09.08-2.29 2.08-4.67 4-3.19 2.6-5.17 3.97-6.74 3.97zm1-9.75l.31.5a9.25 9.25 0 011.25 2.54c.81-.64 1.72-1.38 2.65-2.16A7.84 7.84 0 0171.3 81z"/>
    </g>
    <g id="kids-inner" fill="#ff7e1d">
      <path d="M28.9 94.93l8.92-11.22q3.72-4.18 5.78-6.21a52.57 52.57 0 015.14-4.39q5.4-4.24 10.08-4.6 3.52-.27 3.73 2.36a9.28 9.28 0 01-.66 4.13 13.18 13.18 0 01-2.31 3.82q-2.7 3.1-10.58 8.74A90 90 0 0039.74 95c.56 2.33 1.14 4.42 1.75 6.29a38.55 38.55 0 001.93 4.9 57.24 57.24 0 002.83 5 50.43 50.43 0 004.29 6q5.68 6.58 11 8.41 1.64.65 1.68 1.26a3.84 3.84 0 01-1.48 2.76 14.94 14.94 0 01-5.07 3.94 17.29 17.29 0 01-6.25 1.72 18.62 18.62 0 01-10.72-2.29 19.66 19.66 0 01-7.76-8.1 47.91 47.91 0 01-4.82-14.93 28 28 0 01-.45-3.39h-.19a39.54 39.54 0 00-2.48 4.91c-.48 1.2-1.22 3.37-2.21 6.48a59.62 59.62 0 01-3.3 9.22 19.07 19.07 0 01-3.78 5.4 21.64 21.64 0 01-4.71 3.57 10.75 10.75 0 01-4.35 1.62 2.71 2.71 0 01-2.19-.77 3.45 3.45 0 01-1-2.3 7.35 7.35 0 010-1.34Q4 124.1 5.94 114.61t4.12-18q2.14-8.45 4.07-14.36c1.27-4 2.31-6.47 3.09-7.59a10.92 10.92 0 014.33-3.23 18.09 18.09 0 016.19-1.6 8.19 8.19 0 014.27.48 2.85 2.85 0 011.44 2.52q.19 2.49-3.83 16.85c-.17.69-.47 1.76-.89 3.22s-.71 2.54-.89 3.22l.21.23zM74.23 125.65a6 6 0 01-4.06-1.65 11.62 11.62 0 01-2.82-4 19 19 0 01-1.17-5.71 63.59 63.59 0 011.61-18Q70 86.16 73.38 81.44a5 5 0 014-2.17 5.17 5.17 0 014.62 2.2A11.68 11.68 0 0184.2 88a68.61 68.61 0 01-.68 14.35 132.25 132.25 0 01-3.64 17.32q-1 3.63-2.7 5a5.53 5.53 0 01-2.85 1zM76.6 75.38q-6.25-.3-6.21-6.92a20.06 20.06 0 011.86-7.63 17.77 17.77 0 014.19-6.39 7.38 7.38 0 012.43-1.57 8.92 8.92 0 013.13-.42A7 7 0 0186.9 54c1 1 1.55 2.65 1.54 4.94A20.24 20.24 0 0186.77 67a16.49 16.49 0 01-4.38 6.11 8.33 8.33 0 01-5.59 2.26zM118.64 70.9l.33-2q1-6.66 1.89-10.79a52.55 52.55 0 012-7 13.8 13.8 0 012.14-4.24q1.85-2.29 7-2.69a17.83 17.83 0 013.44 0 3.89 3.89 0 011.55.52.48.48 0 01.22.55q-1.68 7-2.29 10.58c-.41 2.42-.82 5.73-1.21 9.92a117.63 117.63 0 00-.25 18.43 73.38 73.38 0 001.73 11.15 105 105 0 003.93 12.67 48 48 0 01-4.63 3.38 30.42 30.42 0 01-4.25 2.29 11.52 11.52 0 01-3.61 1 4 4 0 01-4.12-2.43 20.6 20.6 0 01-1.51-3.52q-.39-1.33-1.58-7.5A72.73 72.73 0 01108 112.69q-5.57 4.29-9.06 4.55a8 8 0 01-6.81-2.78 13.32 13.32 0 01-3.19-8.25 31.33 31.33 0 011.16-10.45 50.13 50.13 0 014.65-11.38A37.12 37.12 0 0199 78.12a35.78 35.78 0 015.14-4.88q5.27-4 9-4.33c1.23-.09 3.06.58 5.5 1.99zm.22 22.82l-.21-2.72c-1.51 1.56-2.67 2.37-3.47 2.43a.6.6 0 01-.72-.62 5.28 5.28 0 01.2-1.22 16.8 16.8 0 00.59-5.62A21.38 21.38 0 00113 78c-.58-1.4-1.23-2.07-1.93-2a1 1 0 00-.82.55 19.93 19.93 0 00-2.63 5.36 43.53 43.53 0 00-1.82 7.4 30.07 30.07 0 00-.42 7q.44 5.68 3.87 5.43c1.15-.09 2.63-.88 4.46-2.38a30 30 0 005.15-5.64zM157.33 105.66a7.34 7.34 0 004.93-3.14 8.38 8.38 0 001.9-5.84 4.29 4.29 0 00-1.64-3.24q-1.59-1.36-6.86-2.42-7.77-1.62-10.27-4.18a7.28 7.28 0 01-2.54-5.1A18.63 18.63 0 01146 70.45a31.6 31.6 0 019.53-9.78 25.22 25.22 0 0112.26-4.45 12 12 0 015.84 1 11.66 11.66 0 014.54 3.49 9.09 9.09 0 012 5 11.22 11.22 0 01-1.3 5.77 16.27 16.27 0 01-4 5.17 8.47 8.47 0 01-4.8 2.31 4.52 4.52 0 01-2.36-.4c-.68-.33-1-.72-1.07-1.17a7.33 7.33 0 01.23-2 29.53 29.53 0 00.52-7.25 9.93 9.93 0 00-2.25-5.55 14.39 14.39 0 00-2.86 2.81 15.69 15.69 0 00-2.47 5 14 14 0 00-.71 5.24 4.4 4.4 0 001 2.69 6 6 0 002.71 1.55 42.19 42.19 0 005.55 1.18 37.45 37.45 0 018.77 2.23 13 13 0 011.87 1.26 7.21 7.21 0 012.2 4.94 12.84 12.84 0 01-1.56 6.82 29.44 29.44 0 01-5.84 7.44 30.91 30.91 0 01-8.71 6.23 28.92 28.92 0 01-9.92 2.42q-5.31.41-8.5-1.47a6.65 6.65 0 01-3.46-5.51 8.76 8.76 0 011.61-5.39 16.21 16.21 0 014.67-4.7 12 12 0 015.74-2.11c1.43-.11 2.17.16 2.22.79a4.17 4.17 0 01-.5 1.63 12.82 12.82 0 00-1.41 6.3 6 6 0 001.79 3.72z"/>
      <path d="M80.14 81a11.28 11.28 0 00-2.59-1.51 2.52 2.52 0 00-1-.14c-3.75.66-6.15-.55-7-2s-1.74-2.13-1.74.6c0 4.79 4.22 5.17 2.44 9.38S80.14 81 80.14 81z"/>
    </g>
</svg>

