<?xml version="1.0" encoding="UTF-8"?>
<!DOCTYPE svg PUBLIC "-//W3C//DTD SVG 1.1//EN" "http://www.w3.org/Graphics/SVG/1.1/DTD/svg11.dtd">
<svg version="1.1" xmlns="http://www.w3.org/2000/svg" xmlns:xlink="http://www.w3.org/1999/xlink" x="0" y="0" width="664" height="160" viewBox="0, 0, 664, 160">
  <g id="Layer_1">
    <g id="inspiring-hope" fill="#00E5FF">
      <path d="M107.548,42.564 C112.66,35.979 117.847,29.281 122.015,22.043 C125.99,15.413 122.346,7.867 114.449,8.06 C114.004,8.06 113.459,8.041 112.814,8 C112.33,8.041 111.785,8.101 111.18,8.181 C97.797,10.042 84.771,14.675 72.015,19.077 C54.771,25.721 36.972,31.814 21.773,42.564 C20.925,43.251 20.138,44.017 19.412,44.864 L19.351,44.925 C17.192,47.467 19.098,51.486 21.833,52.673 C23.286,53.36 24.819,53.884 26.434,54.247 C35.544,56.002 44.82,56.234 54.097,56.184 C54.581,56.225 55.066,56.245 55.55,56.245 C58.208,56.175 60.76,56.273 63.359,56.85 C63.964,56.971 64.589,56.992 65.235,56.91 C65.396,56.871 65.558,56.85 65.719,56.85 C66.874,56.647 65.807,54.859 65.235,54.489 C64.267,53.844 63.217,53.44 62.088,53.278 C58.536,52.593 54.965,52.29 51.373,52.371 C42.011,52.303 32.449,52.224 23.286,50.01 C22.821,49.948 22.419,49.506 22.256,49.102 C22.247,48.71 22.51,48.136 22.741,47.831 C23.064,47.428 23.427,47.084 23.831,46.801 C24.274,46.479 24.738,46.156 25.223,45.833 C30.649,41.784 36.717,38.723 42.838,35.905 C53.492,31.063 64.347,26.685 75.405,22.77 C85.196,19.222 95.095,16.095 105.248,13.69 C109.061,12.829 112.864,12.045 116.809,12.237 C117.536,12.318 118.241,12.46 118.928,12.661 C119.008,12.661 119.089,12.682 119.17,12.721 C119.726,12.848 120.172,13.774 120.078,14.295 C119.997,14.498 119.917,14.699 119.836,14.9 C119.715,15.506 119.533,16.071 119.291,16.595 C119.13,16.798 118.988,17.019 118.867,17.261 C117.778,19.319 116.587,21.338 115.296,23.314 C100.736,43.98 83.896,62.964 66.991,81.729 C50.24,100.427 28.519,123.499 10.972,141.473 C10.043,142.401 9.175,143.37 8.369,144.379 C7.787,145.257 7.961,146.285 8.429,147.164 C8.728,147.658 9.648,148.025 10.124,147.647 C11.511,146.24 12.814,144.824 14.18,143.41 C45.068,112.58 80.356,76.771 107.548,42.564"/>
      <path d="M107.548,42.564 C112.66,35.979 117.847,29.281 122.015,22.043 C125.99,15.413 122.346,7.867 114.449,8.06 C114.004,8.06 113.459,8.041 112.814,8 C112.33,8.041 111.785,8.101 111.18,8.181 C97.797,10.042 84.771,14.675 72.015,19.077 C54.771,25.721 36.972,31.814 21.773,42.564 C20.925,43.251 20.138,44.017 19.412,44.864 L19.351,44.925 C17.192,47.467 19.098,51.486 21.833,52.673 C23.286,53.36 24.819,53.884 26.434,54.247 C35.544,56.002 44.82,56.234 54.097,56.184 C54.581,56.225 55.066,56.245 55.55,56.245 C58.208,56.175 60.76,56.273 63.359,56.85 C63.964,56.971 64.589,56.992 65.235,56.91 C65.396,56.871 65.558,56.85 65.719,56.85 C66.874,56.647 65.807,54.859 65.235,54.489 C64.267,53.844 63.217,53.44 62.088,53.278 C58.536,52.593 54.965,52.29 51.373,52.371 C42.011,52.303 32.449,52.224 23.286,50.01 C22.821,49.948 22.419,49.506 22.256,49.102 C22.247,48.71 22.51,48.136 22.741,47.831 C23.064,47.428 23.427,47.084 23.831,46.801 C24.274,46.479 24.738,46.156 25.223,45.833 C30.649,41.784 36.717,38.723 42.838,35.905 C53.492,31.063 64.347,26.685 75.405,22.77 C85.196,19.222 95.095,16.095 105.248,13.69 C109.061,12.829 112.864,12.045 116.809,12.237 C117.536,12.318 118.241,12.46 118.928,12.661 C119.008,12.661 119.089,12.682 119.17,12.721 C119.726,12.848 120.172,13.774 120.078,14.295 C119.997,14.498 119.917,14.699 119.836,14.9 C119.715,15.506 119.533,16.071 119.291,16.595 C119.13,16.798 118.988,17.019 118.867,17.261 C117.778,19.319 116.587,21.338 115.296,23.314 C100.736,43.98 83.896,62.964 66.991,81.729 C50.24,100.427 28.519,123.499 10.972,141.473 C10.043,142.401 9.175,143.37 8.369,144.379 C7.787,145.257 7.961,146.285 8.429,147.164 C8.728,147.658 9.648,148.025 10.124,147.647 C11.511,146.24 12.814,144.824 14.18,143.41 C45.068,112.58 80.356,76.771 107.548,42.564 z" fill-opacity="0" stroke="#FFFFFE" stroke-width="0.4"/>
      <path d="M225.311,58.121 C225.472,58.242 225.674,58.323 225.916,58.363 C226.077,58.404 227.288,58.06 227.732,57.818 C229.064,57.133 230.416,56.406 231.788,55.639 C232.064,55.549 232.198,55.116 232.272,54.852 C232.433,54.005 232.171,53.278 231.486,52.673 C230.88,52.028 230.154,51.846 229.307,52.128 C227.089,53.051 222.742,55.407 225.311,58.121"/>
      <path d="M225.311,58.121 C225.472,58.242 225.674,58.323 225.916,58.363 C226.077,58.404 227.288,58.06 227.732,57.818 C229.064,57.133 230.416,56.406 231.788,55.639 C232.064,55.549 232.198,55.116 232.272,54.852 C232.433,54.005 232.171,53.278 231.486,52.673 C230.88,52.028 230.154,51.846 229.307,52.128 C227.089,53.051 222.742,55.407 225.311,58.121 z" fill-opacity="0" stroke="#FFFFFE" stroke-width="0.4"/>
      <path d="M189.146,76.578 C184.432,78.771 176.957,88.243 170.945,84.627 C170.616,84.429 170.578,84.026 170.654,83.777 C170.892,83.007 171.758,82.063 172.303,81.602 C175.617,79 178.028,76.824 181.981,75.214 C183.722,74.504 186.729,73.86 188.617,74.147 C189.924,74.346 190.784,75.816 189.146,76.578 M129.42,95.538 C128.018,97.023 126.869,98.347 124.382,99.617 C122.828,100.412 120.612,101.427 117.594,101.721 C116.537,101.825 114.981,101.652 114.961,100.214 C114.937,98.423 117.758,94.709 125.636,91.87 C128.288,90.913 129.967,90.489 131.214,89.925 C131.786,89.666 132.219,89.867 131.772,91.192 C131.381,92.354 129.972,94.953 129.42,95.538 M254.396,78.675 C253.37,78.326 252.992,77.544 253.719,76.535 C254.646,75.244 255.509,74.573 256.499,73.315 C257.171,72.46 258.293,70.752 258.617,70.227 C258.939,69.542 258.959,68.796 258.678,67.988 C257.946,66.082 256.105,65.01 254.198,65.869 C254.117,65.91 254.036,65.93 253.956,65.93 C253.068,66.333 252.201,66.777 251.353,67.262 C247.556,69.766 243.677,72.24 239.973,74.949 C239.02,75.646 238.306,75.02 238.762,74.162 C239.025,73.667 239.327,73.215 239.609,72.77 C239.973,72.164 240.356,71.58 240.76,71.015 C241.728,69.441 242.697,67.867 243.665,66.293 C244.366,65.079 243.753,63.803 242.576,63.085 C242.355,62.931 241.974,62.88 241.728,62.964 C241.324,63.206 240.981,63.508 240.699,63.871 C238.342,67.123 237.678,68.032 235.321,71.292 C234.886,71.893 232.287,74.423 231.241,75.289 C224.731,80.685 216.219,87.413 207.976,87.588 C207.136,87.606 205.294,87.337 205.335,85.966 C206.264,83.249 207.902,81.102 209.693,78.944 C209.814,78.823 209.915,78.702 209.996,78.581 C212.659,75.312 215.483,72.185 218.471,69.199 C219.52,68.069 219.398,66.979 218.107,65.93 C217.485,65.46 216.583,65.547 215.939,66.083 C215.534,66.42 215.206,66.655 214.803,66.977 C213.506,68.162 212.9,68.671 212.465,69.162 C212.143,69.525 209.855,71.306 208.209,72.18 C205.389,73.677 204.03,74.503 196.835,75.952 C195.155,76.29 193.738,75.969 193.253,75.792 C192.801,75.627 192.139,74.101 191.896,73.739 C191.694,73.496 191.512,73.275 191.352,73.073 C185.839,67.44 177.589,72.472 172.465,76.099 C171.428,76.907 169.489,78.387 167.84,79.642 C167.132,80.182 166.185,79.388 166.585,78.593 C166.771,78.224 166.926,77.915 167.017,77.734 C168.969,74.13 170.754,70.425 172.163,66.596 C172.485,65.547 172.042,64.537 170.831,63.569 C170.508,63.284 169.763,63.208 169.499,63.569 C169.21,63.878 169.006,64.27 168.773,64.659 C167.134,67.664 166.775,68.279 166.169,69.379 C165.453,70.593 164.956,71.71 164.295,72.449 C162.743,74.183 159.851,76.417 156.073,77.901 C150.546,80.073 145.719,81.143 140.593,83.073 C138.761,83.763 138.046,82.907 138.466,81.573 C138.505,81.452 138.648,80.372 138.688,80.216 C139.253,77.976 139.838,76.12 140.564,74.101 C142.219,69.784 145.213,66.727 149.645,65.203 C151.209,64.665 151.885,65.419 152.84,65.292 C153.477,65.206 153.801,64.724 153.831,64.141 C153.86,63.573 153.867,62.728 152.709,61.986 C151.857,61.439 150.175,61.156 148.313,61.39 C143.41,62.005 139.959,65.766 137.886,70.007 C137.461,70.876 137.295,71.192 137.191,71.5 C137.037,71.952 136.457,73.17 135.558,73.937 C129.637,78.985 126.5,79.547 120.772,82.476 C119.995,82.873 120.823,80.283 121.012,79.671 L121.012,79.368 C121.641,76.78 120.424,73.491 118.077,72.255 C113.106,69.718 106.199,75.861 101.884,78.158 C101.318,78.481 100.734,78.763 100.128,79.005 C100.042,79.007 99.825,78.89 99.765,78.823 C99.646,78.806 99.589,78.632 99.523,78.52 C99.604,78.36 99.684,78.218 99.765,78.097 C100.047,77.492 100.371,76.927 100.734,76.402 C102.87,73.682 104.166,71.689 106.363,68.956 C107.365,67.615 108.304,66.379 107.029,64.78 C106.572,64.196 105.101,63.804 104.547,64.416 C103.917,65.029 103.733,65.228 103.276,65.869 C103.155,65.99 103.013,66.172 102.853,66.414 C97.651,73.542 91.959,80.254 87.235,87.661 C86.348,89.154 86.549,90.627 87.84,92.08 C88.236,92.672 89.449,93 90.02,92.564 C90.181,92.443 90.343,92.342 90.504,92.262 C96.821,87.474 103.004,82.445 109.935,78.52 C111.831,77.27 113.889,76.341 116.109,75.736 C116.428,75.657 116.751,75.615 117.078,75.615 C117.263,75.762 117.688,75.946 117.683,76.221 C117.804,76.704 117.804,77.189 117.683,77.673 C117.48,78.36 117.239,79.026 116.957,79.671 C116.633,80.518 116.352,81.387 116.109,82.274 C115.189,84.404 114.17,90.058 117.059,89.248 C118.386,88.876 121.238,85.098 124.005,83.481 C128.311,80.966 133.071,78.085 135.124,76.185 C135.666,75.684 135.663,76.685 135.553,77.144 C135.175,78.733 134.482,81.643 134.148,83.242 C134.046,83.965 133.617,85.695 132.918,86.044 C130.149,87.429 122.112,91.083 119.025,93.18 C113.905,96.657 110.942,99.515 111.059,102.675 C111.143,104.968 113.907,105.687 118.981,105.442 C120.648,105.362 122.417,104.983 124.041,104.576 C130.599,102.824 134.209,97.055 135.782,91.353 C135.864,91.112 136.541,88.897 136.667,88.62 C137.2,87.457 137.11,87.506 138.641,86.648 C144.833,83.18 154.063,81.165 161.054,77.124 C161.811,76.686 161.768,77.627 160.952,79.048 C158.152,83.928 155.416,88.881 152.58,93.684 C149.792,98.747 143.556,107.591 140.845,112.753 C140.754,113.146 140.883,113.751 141.087,114.145 C141.451,114.71 141.896,115.235 142.419,115.719 C142.79,116.144 143.823,116.294 144.175,115.84 C150.22,106.736 159.377,93.644 167.562,86.329 C167.77,86.11 169.34,84.806 169.34,84.806 C169.34,84.806 169.361,87.335 169.802,88.206 C170.393,90.317 172.487,91.511 174.656,91.228 C180.864,90.42 186.85,88.549 190.384,84.063 C191.409,82.762 192.209,81.108 192.782,79.88 C193.081,79.238 193.483,78.63 194.258,78.435 C196.078,77.976 197.243,77.664 198.947,77.204 C202.398,76.272 205.197,75.235 207.073,74.252 C207.93,73.803 207.93,74.278 207.398,74.913 C206.493,75.994 205.143,77.489 204.608,78.245 C203.312,80.081 202.122,82.039 201.703,84.271 C201.3,87.511 203.569,91.056 207.151,90.93 C215.111,89.682 220.18,84.209 227.811,80.073 C228.411,79.748 229.442,79.462 227.48,82.15 C226.027,84.141 224.59,86.142 223.145,88.145 C222.58,88.831 219.938,92.993 219.535,93.801 C219.05,94.849 219.232,95.859 220.079,96.827 C220.698,97.6 221.75,98.064 222.561,97.432 C230.383,90.136 241.924,77.975 251.141,72.471 C251.731,72.119 251.005,74.204 250.423,74.83 C250.049,75.233 249.758,75.938 249.598,76.462 C249.131,78.513 250.4,80.233 252.43,80.401 C254.549,80.576 255.308,78.986 254.396,78.675"/>
      <path d="M189.146,76.578 C184.432,78.771 176.957,88.243 170.945,84.627 C170.616,84.429 170.578,84.026 170.654,83.777 C170.892,83.007 171.758,82.063 172.303,81.602 C175.617,79 178.028,76.824 181.981,75.214 C183.722,74.504 186.729,73.86 188.617,74.147 C189.924,74.346 190.784,75.816 189.146,76.578 z M129.42,95.538 C128.018,97.023 126.869,98.347 124.382,99.617 C122.828,100.412 120.612,101.427 117.594,101.721 C116.537,101.825 114.981,101.652 114.961,100.214 C114.937,98.423 117.758,94.709 125.636,91.87 C128.288,90.913 129.967,90.489 131.214,89.925 C131.786,89.666 132.219,89.867 131.772,91.192 C131.381,92.354 129.972,94.953 129.42,95.538 z M254.396,78.675 C253.37,78.326 252.992,77.544 253.719,76.535 C254.646,75.244 255.509,74.573 256.499,73.315 C257.171,72.46 258.293,70.752 258.617,70.227 C258.939,69.542 258.959,68.796 258.678,67.988 C257.946,66.082 256.105,65.01 254.198,65.869 C254.117,65.91 254.036,65.93 253.956,65.93 C253.068,66.333 252.201,66.777 251.353,67.262 C247.556,69.766 243.677,72.24 239.973,74.949 C239.02,75.646 238.306,75.02 238.762,74.162 C239.025,73.667 239.327,73.215 239.609,72.77 C239.973,72.164 240.356,71.58 240.76,71.015 C241.728,69.441 242.697,67.867 243.665,66.293 C244.366,65.079 243.753,63.803 242.576,63.085 C242.355,62.931 241.974,62.88 241.728,62.964 C241.324,63.206 240.981,63.508 240.699,63.871 C238.342,67.123 237.678,68.032 235.321,71.292 C234.886,71.893 232.287,74.423 231.241,75.289 C224.731,80.685 216.219,87.413 207.976,87.588 C207.136,87.606 205.294,87.337 205.335,85.966 C206.264,83.249 207.902,81.102 209.693,78.944 C209.814,78.823 209.915,78.702 209.996,78.581 C212.659,75.312 215.483,72.185 218.471,69.199 C219.52,68.069 219.398,66.979 218.107,65.93 C217.485,65.46 216.583,65.547 215.939,66.083 C215.534,66.42 215.206,66.655 214.803,66.977 C213.506,68.162 212.9,68.671 212.465,69.162 C212.143,69.525 209.855,71.306 208.209,72.18 C205.389,73.677 204.03,74.503 196.835,75.952 C195.155,76.29 193.738,75.969 193.253,75.792 C192.801,75.627 192.139,74.101 191.896,73.739 C191.694,73.496 191.512,73.275 191.352,73.073 C185.839,67.44 177.589,72.472 172.465,76.099 C171.428,76.907 169.489,78.387 167.84,79.642 C167.132,80.182 166.185,79.388 166.585,78.593 C166.771,78.224 166.926,77.915 167.017,77.734 C168.969,74.13 170.754,70.425 172.163,66.596 C172.485,65.547 172.042,64.537 170.831,63.569 C170.508,63.284 169.763,63.208 169.499,63.569 C169.21,63.878 169.006,64.27 168.773,64.659 C167.134,67.664 166.775,68.279 166.169,69.379 C165.453,70.593 164.956,71.71 164.295,72.449 C162.743,74.183 159.851,76.417 156.073,77.901 C150.546,80.073 145.719,81.143 140.593,83.073 C138.761,83.763 138.046,82.907 138.466,81.573 C138.505,81.452 138.648,80.372 138.688,80.216 C139.253,77.976 139.838,76.12 140.564,74.101 C142.219,69.784 145.213,66.727 149.645,65.203 C151.209,64.665 151.885,65.419 152.84,65.292 C153.477,65.206 153.801,64.724 153.831,64.141 C153.86,63.573 153.867,62.728 152.709,61.986 C151.857,61.439 150.175,61.156 148.313,61.39 C143.41,62.005 139.959,65.766 137.886,70.007 C137.461,70.876 137.295,71.192 137.191,71.5 C137.037,71.952 136.457,73.17 135.558,73.937 C129.637,78.985 126.5,79.547 120.772,82.476 C119.995,82.873 120.823,80.283 121.012,79.671 L121.012,79.368 C121.641,76.78 120.424,73.491 118.077,72.255 C113.106,69.718 106.199,75.861 101.884,78.158 C101.318,78.481 100.734,78.763 100.128,79.005 C100.042,79.007 99.825,78.89 99.765,78.823 C99.646,78.806 99.589,78.632 99.523,78.52 C99.604,78.36 99.684,78.218 99.765,78.097 C100.047,77.492 100.371,76.927 100.734,76.402 C102.87,73.682 104.166,71.689 106.363,68.956 C107.365,67.615 108.304,66.379 107.029,64.78 C106.572,64.196 105.101,63.804 104.547,64.416 C103.917,65.029 103.733,65.228 103.276,65.869 C103.155,65.99 103.013,66.172 102.853,66.414 C97.651,73.542 91.959,80.254 87.235,87.661 C86.348,89.154 86.549,90.627 87.84,92.08 C88.236,92.672 89.449,93 90.02,92.564 C90.181,92.443 90.343,92.342 90.504,92.262 C96.821,87.474 103.004,82.445 109.935,78.52 C111.831,77.27 113.889,76.341 116.109,75.736 C116.428,75.657 116.751,75.615 117.078,75.615 C117.263,75.762 117.688,75.946 117.683,76.221 C117.804,76.704 117.804,77.189 117.683,77.673 C117.48,78.36 117.239,79.026 116.957,79.671 C116.633,80.518 116.352,81.387 116.109,82.274 C115.189,84.404 114.17,90.058 117.059,89.248 C118.386,88.876 121.238,85.098 124.005,83.481 C128.311,80.966 133.071,78.085 135.124,76.185 C135.666,75.684 135.663,76.685 135.553,77.144 C135.175,78.733 134.482,81.643 134.148,83.242 C134.046,83.965 133.617,85.695 132.918,86.044 C130.149,87.429 122.112,91.083 119.025,93.18 C113.905,96.657 110.942,99.515 111.059,102.675 C111.143,104.968 113.907,105.687 118.981,105.442 C120.648,105.362 122.417,104.983 124.041,104.576 C130.599,102.824 134.209,97.055 135.782,91.353 C135.864,91.112 136.541,88.897 136.667,88.62 C137.2,87.457 137.11,87.506 138.641,86.648 C144.833,83.18 154.063,81.165 161.054,77.124 C161.811,76.686 161.768,77.627 160.952,79.048 C158.152,83.928 155.416,88.881 152.58,93.684 C149.792,98.747 143.556,107.591 140.845,112.753 C140.754,113.146 140.883,113.751 141.087,114.145 C141.451,114.71 141.896,115.235 142.419,115.719 C142.79,116.144 143.823,116.294 144.175,115.84 C150.22,106.736 159.377,93.644 167.562,86.329 C167.77,86.11 169.34,84.806 169.34,84.806 C169.34,84.806 169.361,87.335 169.802,88.206 C170.393,90.317 172.487,91.511 174.656,91.228 C180.864,90.42 186.85,88.549 190.384,84.063 C191.409,82.762 192.209,81.108 192.782,79.88 C193.081,79.238 193.483,78.63 194.258,78.435 C196.078,77.976 197.243,77.664 198.947,77.204 C202.398,76.272 205.197,75.235 207.073,74.252 C207.93,73.803 207.93,74.278 207.398,74.913 C206.493,75.994 205.143,77.489 204.608,78.245 C203.312,80.081 202.122,82.039 201.703,84.271 C201.3,87.511 203.569,91.056 207.151,90.93 C215.111,89.682 220.18,84.209 227.811,80.073 C228.411,79.748 229.442,79.462 227.48,82.15 C226.027,84.141 224.59,86.142 223.145,88.145 C222.58,88.831 219.938,92.993 219.535,93.801 C219.05,94.849 219.232,95.859 220.079,96.827 C220.698,97.6 221.75,98.064 222.561,97.432 C230.383,90.136 241.924,77.975 251.141,72.471 C251.731,72.119 251.005,74.204 250.423,74.83 C250.049,75.233 249.758,75.938 249.598,76.462 C249.131,78.513 250.4,80.233 252.43,80.401 C254.549,80.576 255.308,78.986 254.396,78.675 z" fill-opacity="0" stroke="#FFFFFE" stroke-width="0.4"/>
      <path d="M280.357,61.145 C280.51,61.276 280.707,61.37 280.946,61.426 C281.104,61.477 282.334,61.212 282.793,60.999 C284.167,60.401 285.562,59.763 286.981,59.086 C287.262,59.014 287.423,58.59 287.515,58.332 C287.73,57.497 287.515,56.755 286.87,56.106 C286.308,55.423 285.594,55.194 284.731,55.422 C282.458,56.2 277.968,58.27 280.357,61.145"/>
      <path d="M280.357,61.145 C280.51,61.276 280.707,61.37 280.946,61.426 C281.104,61.477 282.334,61.212 282.793,60.999 C284.167,60.401 285.562,59.763 286.981,59.086 C287.262,59.014 287.423,58.59 287.515,58.332 C287.73,57.497 287.515,56.755 286.87,56.106 C286.308,55.423 285.594,55.194 284.731,55.422 C282.458,56.2 277.968,58.27 280.357,61.145 z" fill-opacity="0" stroke="#FFFFFE" stroke-width="0.4"/>
      <path d="M340.559,104.103 C333.074,112.288 333.19,113.627 326.054,119.831 C323.442,122.102 318.423,124.136 316.704,123.495 C315.413,123.013 315.504,121.106 317.4,118.339 C322.638,110.701 334.763,104.038 340.442,101.016 C341.114,100.658 344.746,98.728 344.316,99.355 C344.028,99.777 340.748,103.895 340.559,104.103 M381.685,73.491 C380.33,74.802 377.636,76.939 376.384,77.686 C367.731,82.841 365.081,83.543 360.626,85.535 C358.456,86.505 359.369,84.792 360.148,83.513 C362.922,78.962 365.461,74.252 367.755,69.381 C368.119,68.695 368.38,67.988 368.542,67.262 C368.63,66.848 368.463,66.236 368.24,65.87 C367.714,65.184 367.11,64.538 366.423,63.933 C365.932,63.413 365.134,63.313 364.608,63.751 C357.255,71.322 349.402,78.29 340.031,83.364 C338.013,84.414 335.955,85.361 333.857,86.209 C333.775,86.249 333.714,86.27 333.675,86.27 C332.155,86.91 330.274,86.978 329.323,86.059 C328.379,85.147 328.513,83.241 329.801,81.063 C332.827,75.95 337.206,72.226 342.574,69.562 C346.087,67.876 350.172,67.32 353.711,69.562 C354.35,69.967 354.702,69.496 354.605,69.058 C354.49,68.533 354.216,68.09 353.893,67.686 C352.037,65.79 349.898,64.72 347.477,64.478 C342.07,63.78 336.257,67.224 332.063,70.99 C331.283,71.69 329.33,73.795 325.733,76.666 C322.267,79.433 316.61,82.52 314.381,83.7 C313.087,84.385 314.408,80.554 314.626,79.36 C315.106,76.74 314.141,73.491 311.793,72.256 C306.823,69.718 299.921,75.872 295.6,78.158 C294.456,78.763 293.452,77.686 294.45,76.402 C296.586,73.683 297.882,71.689 300.08,68.957 C301.081,67.616 302.02,66.38 300.746,64.78 C300.288,64.197 298.817,63.805 298.264,64.417 C297.632,65.029 297.45,65.229 296.993,65.87 C296.871,65.991 296.729,66.172 296.569,66.415 C294.549,69.077 293.044,71.095 292.129,72.226 C290.833,73.826 289.248,75.33 287.258,76.783 C280.113,81.996 274.04,83.932 263.84,87.414 C262.697,87.804 261.545,87.337 261.585,85.967 C262.515,83.249 264.153,81.103 265.944,78.945 C266.065,78.824 266.165,78.703 266.246,78.582 C268.91,75.313 271.734,72.186 274.721,69.199 C275.77,68.07 275.649,66.98 274.358,65.93 C273.736,65.46 272.754,65.476 272.239,66.051 C271.806,66.327 271.392,66.622 270.998,66.935 C270.978,66.951 270.958,66.968 270.938,66.986 C267.318,70.289 264.059,73.892 261.162,77.795 C259.827,79.75 258.359,81.85 257.953,84.272 C257.551,87.512 259.862,91.495 263.401,90.931 C266.613,90.418 268.997,89.004 271.785,87.501 C275.892,85.286 280.253,82.502 284.367,80.489 C285.393,79.986 285.422,80.863 284.224,82.554 C283.649,83.365 281.435,86.785 280.951,87.662 C280.064,89.154 280.266,90.628 281.557,92.081 C281.952,92.673 283.165,93.001 283.736,92.565 C283.897,92.444 284.059,92.343 284.22,92.262 C290.538,87.474 296.72,82.446 303.651,78.521 C305.547,77.271 307.605,76.342 309.826,75.737 C310.144,75.658 310.467,75.616 310.794,75.616 C310.979,75.763 311.404,75.947 311.399,76.221 C311.52,76.705 311.52,77.189 311.399,77.674 C311.197,78.36 310.955,79.026 310.673,79.671 C310.35,80.519 310.068,81.387 309.826,82.274 C308.549,86.307 308.929,90.746 311.753,89.736 C313.115,89.249 314.571,87.728 315.277,87.108 C319.25,83.62 321.539,80.744 324.918,78.967 C326.044,78.375 324.685,79.404 324.567,83.058 C324.562,83.22 324.633,84.494 324.777,84.998 C325.214,86.529 326.028,87.843 327.077,89.054 C329.452,91.6 333.441,90.806 336.4,90.204 C338.52,89.773 341.579,88.404 344.338,86.849 C352.24,82.398 356.345,77.321 356.695,77.758 C357.112,78.279 356.626,79.48 356.257,80.03 C354.365,82.855 352.783,85.715 351.167,88.528 C350.28,89.94 349.777,91.059 348.285,91.826 C337.434,98.254 324.777,99.516 315.625,112.341 C313.816,114.876 311.894,118.788 312.418,122.575 C312.96,126.488 316.218,127.979 320.306,127.375 C321.541,127.16 323.111,126.605 324.238,126.123 C332.53,122.263 334.576,118.164 339.123,113.207 C343.763,108.001 348,102.492 351.835,96.681 C353.02,94.424 355.344,93.368 357.525,92.262 C363.849,89.029 372.749,83.599 378.801,78.967 C381.707,76.829 383.173,74.933 383.523,73.87 C383.792,73.05 382.7,72.509 381.685,73.491"/>
      <path d="M340.559,104.103 C333.074,112.288 333.19,113.627 326.054,119.831 C323.442,122.102 318.423,124.136 316.704,123.495 C315.413,123.013 315.504,121.106 317.4,118.339 C322.638,110.701 334.763,104.038 340.442,101.016 C341.114,100.658 344.746,98.728 344.316,99.355 C344.028,99.777 340.748,103.895 340.559,104.103 z M381.685,73.491 C380.33,74.802 377.636,76.939 376.384,77.686 C367.731,82.841 365.081,83.543 360.626,85.535 C358.456,86.505 359.369,84.792 360.148,83.513 C362.922,78.962 365.461,74.252 367.755,69.381 C368.119,68.695 368.38,67.988 368.542,67.262 C368.63,66.848 368.463,66.236 368.24,65.87 C367.714,65.184 367.11,64.538 366.423,63.933 C365.932,63.413 365.134,63.313 364.608,63.751 C357.255,71.322 349.402,78.29 340.031,83.364 C338.013,84.414 335.955,85.361 333.857,86.209 C333.775,86.249 333.714,86.27 333.675,86.27 C332.155,86.91 330.274,86.978 329.323,86.059 C328.379,85.147 328.513,83.241 329.801,81.063 C332.827,75.95 337.206,72.226 342.574,69.562 C346.087,67.876 350.172,67.32 353.711,69.562 C354.35,69.967 354.702,69.496 354.605,69.058 C354.49,68.533 354.216,68.09 353.893,67.686 C352.037,65.79 349.898,64.72 347.477,64.478 C342.07,63.78 336.257,67.224 332.063,70.99 C331.283,71.69 329.33,73.795 325.733,76.666 C322.267,79.433 316.61,82.52 314.381,83.7 C313.087,84.385 314.408,80.554 314.626,79.36 C315.106,76.74 314.141,73.491 311.793,72.256 C306.823,69.718 299.921,75.872 295.6,78.158 C294.456,78.763 293.452,77.686 294.45,76.402 C296.586,73.683 297.882,71.689 300.08,68.957 C301.081,67.616 302.02,66.38 300.746,64.78 C300.288,64.197 298.817,63.805 298.264,64.417 C297.632,65.029 297.45,65.229 296.993,65.87 C296.871,65.991 296.729,66.172 296.569,66.415 C294.549,69.077 293.044,71.095 292.129,72.226 C290.833,73.826 289.248,75.33 287.258,76.783 C280.113,81.996 274.04,83.932 263.84,87.414 C262.697,87.804 261.545,87.337 261.585,85.967 C262.515,83.249 264.153,81.103 265.944,78.945 C266.065,78.824 266.165,78.703 266.246,78.582 C268.91,75.313 271.734,72.186 274.721,69.199 C275.77,68.07 275.649,66.98 274.358,65.93 C273.736,65.46 272.754,65.476 272.239,66.051 C271.806,66.327 271.392,66.622 270.998,66.935 C270.978,66.951 270.958,66.968 270.938,66.986 C267.318,70.289 264.059,73.892 261.162,77.795 C259.827,79.75 258.359,81.85 257.953,84.272 C257.551,87.512 259.862,91.495 263.401,90.931 C266.613,90.418 268.997,89.004 271.785,87.501 C275.892,85.286 280.253,82.502 284.367,80.489 C285.393,79.986 285.422,80.863 284.224,82.554 C283.649,83.365 281.435,86.785 280.951,87.662 C280.064,89.154 280.266,90.628 281.557,92.081 C281.952,92.673 283.165,93.001 283.736,92.565 C283.897,92.444 284.059,92.343 284.22,92.262 C290.538,87.474 296.72,82.446 303.651,78.521 C305.547,77.271 307.605,76.342 309.826,75.737 C310.144,75.658 310.467,75.616 310.794,75.616 C310.979,75.763 311.404,75.947 311.399,76.221 C311.52,76.705 311.52,77.189 311.399,77.674 C311.197,78.36 310.955,79.026 310.673,79.671 C310.35,80.519 310.068,81.387 309.826,82.274 C308.549,86.307 308.929,90.746 311.753,89.736 C313.115,89.249 314.571,87.728 315.277,87.108 C319.25,83.62 321.539,80.744 324.918,78.967 C326.044,78.375 324.685,79.404 324.567,83.058 C324.562,83.22 324.633,84.494 324.777,84.998 C325.214,86.529 326.028,87.843 327.077,89.054 C329.452,91.6 333.441,90.806 336.4,90.204 C338.52,89.773 341.579,88.404 344.338,86.849 C352.24,82.398 356.345,77.321 356.695,77.758 C357.112,78.279 356.626,79.48 356.257,80.03 C354.365,82.855 352.783,85.715 351.167,88.528 C350.28,89.94 349.777,91.059 348.285,91.826 C337.434,98.254 324.777,99.516 315.625,112.341 C313.816,114.876 311.894,118.788 312.418,122.575 C312.96,126.488 316.218,127.979 320.306,127.375 C321.541,127.16 323.111,126.605 324.238,126.123 C332.53,122.263 334.576,118.164 339.123,113.207 C343.763,108.001 348,102.492 351.835,96.681 C353.02,94.424 355.344,93.368 357.525,92.262 C363.849,89.029 372.749,83.599 378.801,78.967 C381.707,76.829 383.173,74.933 383.523,73.87 C383.792,73.05 382.7,72.509 381.685,73.491 z" fill-opacity="0" stroke="#FFFFFE" stroke-width="0.4"/>
      <path d="M527.459,75.282 C527.378,75.1 527.257,74.929 527.097,74.767 C527.056,74.728 527.036,74.687 527.036,74.646 C525.964,73.049 523.973,73.313 522.314,73.194 C521.665,73.147 521.288,73.133 521.036,73.109 C520.151,73.025 519.533,72.759 519.962,72.049 C520.986,70.354 522.048,68.713 523.174,67.098 C534.176,51.314 549.868,39.207 564.082,26.038 C565.051,25.191 565.979,24.303 566.866,23.375 C566.906,23.294 566.947,23.214 566.987,23.133 L566.987,22.043 C566.502,20.761 564.95,19.958 563.719,20.651 C562.508,21.459 561.358,22.326 560.269,23.254 C551.188,31.447 542.431,39.961 533.997,48.799 C527.015,56.144 520.296,63.711 513.84,71.499 C512.871,72.709 512.034,73.289 510.502,73.249 C506.158,73.249 498.597,73.375 496.951,73.436 C492.43,73.601 488.497,73.864 484.239,74.041 C483.593,74.082 482.266,74.212 481.874,74 C481.146,73.607 481.909,72.792 482.279,72.33 C483.282,71.081 483.614,70.77 484.662,69.622 C494.677,59.17 504.917,48.889 513.355,37.116 C515.445,33.728 517.893,30.108 517.23,25.917 C516.704,22.447 514.828,19.905 511.6,18.29 C509.864,17.322 508.008,16.737 506.03,16.534 C505.506,16.495 504.98,16.434 504.457,16.353 C502.196,16.111 499.957,15.99 497.737,15.99 C473.104,16.814 447.059,24.325 425.521,36.268 C418.753,40.204 412.077,44.957 408.391,52.068 C405.976,56.49 406.233,62.7 410.813,65.627 C411.538,66.152 413.622,66.933 413.96,65.748 C414.345,64.397 412.724,63.443 411.599,62.964 C408.9,61.779 410.314,58.516 411.055,56.487 C421.01,33.63 483.288,17.78 506.817,20.409 C508.92,20.672 511.036,21.081 512.871,22.225 C513.477,22.669 513.799,23.214 513.84,23.859 C513.677,27.449 511.728,30.65 509.663,33.484 C507.12,36.793 504.496,40.042 501.793,43.23 C492.813,53.581 483.143,63.233 473.646,73.073 C473.443,73.275 473.222,73.496 472.98,73.739 C472.132,74.546 471.123,74.97 469.953,75.01 C469.63,75.01 469.327,75.031 469.045,75.07 C455.211,76.14 441.011,77.167 427.883,81.85 C426.025,82.536 424.311,83.445 422.737,84.574 C421.909,85.228 421.181,86.855 421.377,87.937 C421.626,89.308 421.95,90.264 423.04,91.112 C423.605,91.434 424.21,91.615 424.855,91.656 C425.092,91.633 425.43,91.353 425.461,91.112 C425.552,90.867 425.408,90.556 425.34,90.324 C425.3,90.284 425.279,90.223 425.279,90.143 C424.816,88.913 424.297,86.685 429.19,85.258 C432.875,84.183 436.043,83.676 439.323,82.939 L439.444,82.939 C445.472,81.663 451.625,80.821 457.726,80.155 C460.105,79.832 462.508,79.59 464.929,79.428 C465.251,79.389 466.333,79.276 466.552,79.811 C466.726,80.236 465.944,80.813 465.774,80.992 C445.918,101.958 421.024,126.004 400.071,146.255 L400.011,146.316 C398.546,147.959 395.344,149.497 397.469,152.006 C397.838,152.47 398.631,152.669 399.103,152.248 C423.277,130.31 452.366,103.182 474.99,79.659 C476.119,78.409 477.035,78.239 478.73,78.157 C481.757,77.996 484.783,77.815 487.811,77.613 C493.695,77.35 500.96,76.916 506.869,76.991 C509.031,77.019 509.149,77.116 508.385,78.173 C503.462,84.968 497.938,91.891 495.861,100.191 C494.761,104.216 495.932,108.806 499.554,111.148 C501.732,112.519 503.519,111.902 505.85,110.906 C511.952,108.297 511.865,105.815 511.865,104.08 C511.824,103.192 511.226,102.024 510.419,101.58 C510.19,101.48 509.57,101.187 509.418,101.459 C509.176,101.782 508.744,102.964 508.192,103.641 C505.705,106.702 502.633,108.651 500.583,108.303 C498.962,108.147 498.57,106.247 498.948,104.913 C500.172,97.932 504.425,92.01 508.392,86.299 C510.53,83.373 512.75,80.518 515.05,77.734 C515.574,77.089 516.261,76.725 517.108,76.644 C520.08,76.357 523.082,76.682 526.067,76.644 C526.652,76.696 527.241,76.525 527.459,75.918 C527.54,75.676 527.54,75.464 527.459,75.282"/>
      <path d="M527.459,75.282 C527.378,75.1 527.257,74.929 527.097,74.767 C527.056,74.728 527.036,74.687 527.036,74.646 C525.964,73.049 523.973,73.313 522.314,73.194 C521.665,73.147 521.288,73.133 521.036,73.109 C520.151,73.025 519.533,72.759 519.962,72.049 C520.986,70.354 522.048,68.713 523.174,67.098 C534.176,51.314 549.868,39.207 564.082,26.038 C565.051,25.191 565.979,24.303 566.866,23.375 C566.906,23.294 566.947,23.214 566.987,23.133 L566.987,22.043 C566.502,20.761 564.95,19.958 563.719,20.651 C562.508,21.459 561.358,22.326 560.269,23.254 C551.188,31.447 542.431,39.961 533.997,48.799 C527.015,56.144 520.296,63.711 513.84,71.499 C512.871,72.709 512.034,73.289 510.502,73.249 C506.158,73.249 498.597,73.375 496.951,73.436 C492.43,73.601 488.497,73.864 484.239,74.041 C483.593,74.082 482.266,74.212 481.874,74 C481.146,73.607 481.909,72.792 482.279,72.33 C483.282,71.081 483.614,70.77 484.662,69.622 C494.677,59.17 504.917,48.889 513.355,37.116 C515.445,33.728 517.893,30.108 517.23,25.917 C516.704,22.447 514.828,19.905 511.6,18.29 C509.864,17.322 508.008,16.737 506.03,16.534 C505.506,16.495 504.98,16.434 504.457,16.353 C502.196,16.111 499.957,15.99 497.737,15.99 C473.104,16.814 447.059,24.325 425.521,36.268 C418.753,40.204 412.077,44.957 408.391,52.068 C405.976,56.49 406.233,62.7 410.813,65.627 C411.538,66.152 413.622,66.933 413.96,65.748 C414.345,64.397 412.724,63.443 411.599,62.964 C408.9,61.779 410.314,58.516 411.055,56.487 C421.01,33.63 483.288,17.78 506.817,20.409 C508.92,20.672 511.036,21.081 512.871,22.225 C513.477,22.669 513.799,23.214 513.84,23.859 C513.677,27.449 511.728,30.65 509.663,33.484 C507.12,36.793 504.496,40.042 501.793,43.23 C492.813,53.581 483.143,63.233 473.646,73.073 C473.443,73.275 473.222,73.496 472.98,73.739 C472.132,74.546 471.123,74.97 469.953,75.01 C469.63,75.01 469.327,75.031 469.045,75.07 C455.211,76.14 441.011,77.167 427.883,81.85 C426.025,82.536 424.311,83.445 422.737,84.574 C421.909,85.228 421.181,86.855 421.377,87.937 C421.626,89.308 421.95,90.264 423.04,91.112 C423.605,91.434 424.21,91.615 424.855,91.656 C425.092,91.633 425.43,91.353 425.461,91.112 C425.552,90.867 425.408,90.556 425.34,90.324 C425.3,90.284 425.279,90.223 425.279,90.143 C424.816,88.913 424.297,86.685 429.19,85.258 C432.875,84.183 436.043,83.676 439.323,82.939 L439.444,82.939 C445.472,81.663 451.625,80.821 457.726,80.155 C460.105,79.832 462.508,79.59 464.929,79.428 C465.251,79.389 466.333,79.276 466.552,79.811 C466.726,80.236 465.944,80.813 465.774,80.992 C445.918,101.958 421.024,126.004 400.071,146.255 L400.011,146.316 C398.546,147.959 395.344,149.497 397.469,152.006 C397.838,152.47 398.631,152.669 399.103,152.248 C423.277,130.31 452.366,103.182 474.99,79.659 C476.119,78.409 477.035,78.239 478.73,78.157 C481.757,77.996 484.783,77.815 487.811,77.613 C493.695,77.35 500.96,76.916 506.869,76.991 C509.031,77.019 509.149,77.116 508.385,78.173 C503.462,84.968 497.938,91.891 495.861,100.191 C494.761,104.216 495.932,108.806 499.554,111.148 C501.732,112.519 503.519,111.902 505.85,110.906 C511.952,108.297 511.865,105.815 511.865,104.08 C511.824,103.192 511.226,102.024 510.419,101.58 C510.19,101.48 509.57,101.187 509.418,101.459 C509.176,101.782 508.744,102.964 508.192,103.641 C505.705,106.702 502.633,108.651 500.583,108.303 C498.962,108.147 498.57,106.247 498.948,104.913 C500.172,97.932 504.425,92.01 508.392,86.299 C510.53,83.373 512.75,80.518 515.05,77.734 C515.574,77.089 516.261,76.725 517.108,76.644 C520.08,76.357 523.082,76.682 526.067,76.644 C526.652,76.696 527.241,76.525 527.459,75.918 C527.54,75.676 527.54,75.464 527.459,75.282 z" fill-opacity="0" stroke="#FFFFFE" stroke-width="0.4"/>
      <path d="M597.685,76.273 C592.027,79.593 588.831,86.426 581.097,83.889 C580.742,83.773 579.19,82.797 579.917,81.749 C580.556,80.83 581.507,79.967 582.044,79.506 C585.207,76.789 586.955,75.716 590.92,74.224 C592.23,73.732 594.492,73.415 595.937,73.302 C596.419,73.265 598.36,73.618 598.777,74.507 C599.096,75.188 598.131,76.011 597.685,76.273 M552.259,76.585 C550.642,78.086 550.403,78.338 549.582,78.326 C547.279,78.294 545.852,77.519 546.656,75.574 C547.652,73.162 550.058,71.935 552.393,72.005 C553.232,72.031 554.071,72.491 554.071,73.411 C554.071,74.5 553.301,75.618 552.259,76.585 M546.098,82.364 C543.019,84.76 539.732,86.849 535.928,87.873 C535.525,87.953 535.141,88.013 534.778,88.054 C534.657,88.054 534.557,88.074 534.475,88.114 C533.753,88.141 532.902,87.223 533.023,86.48 C533.579,82.566 536.258,79.443 538.773,76.613 C540.794,74.459 542.842,72.466 545.372,70.923 C545.633,70.764 546.206,70.439 546.7,70.96 C547.283,71.705 546.977,71.935 546.449,72.505 C545.922,73.072 545.385,73.776 545.137,74.176 C544.035,75.956 544.583,78.897 547.06,79.899 C548.135,80.335 548.086,80.784 546.098,82.364 M626.592,70.608 C630.23,69.093 631.835,68.875 633.234,69.239 C634.956,69.688 634.909,71.79 629.855,73.651 C627.222,74.521 624.227,74.695 622.384,74.321 C621.441,74.13 623.764,71.936 626.592,70.608 M651.801,73.753 C651.628,73.314 651.069,73.709 650.636,73.928 C650.013,74.244 648.228,75.438 645.394,76.986 C640.064,79.899 634.296,82.198 628.212,83.569 C622.358,84.889 617.87,85.186 616.539,84.024 C615.141,82.804 614.8,82.072 616.106,79.914 C616.428,79.47 616.953,78.824 617.679,77.977 C618.21,77.423 618.434,77.177 618.768,76.879 C619.122,76.564 619.613,76.336 620.076,76.437 C621.332,76.71 624.188,77.484 627.7,77.321 C631.531,77.144 634.204,76.426 636.437,74.307 C638.281,72.557 638.461,68.807 636.7,67.011 C633.366,63.611 627.164,66.241 622.28,68.594 C620.356,69.676 618.306,71.159 616.486,72.78 C616.169,73.062 615.759,73.19 615.337,73.157 C611.535,72.861 608.027,73.184 604.568,73.889 C603.922,74.051 603.438,74.152 603.115,74.192 C602.69,74.291 601.984,74.253 601.715,73.903 C601.46,73.57 600.783,72.557 600.612,72.363 C600.206,71.905 599.519,71.263 599.061,70.949 C593.617,67.213 586.231,71.755 581.504,75.1 C580.175,76.134 578.881,77.196 577.581,78.242 C576.895,78.795 575.88,79.493 575.52,79.2 C575.17,78.916 575.653,77.542 576.057,76.734 C578.008,73.131 579.792,69.426 581.203,65.596 C581.525,64.547 581.081,63.538 579.871,62.569 C579.548,62.285 578.801,62.209 578.539,62.569 C578.249,62.879 578.045,63.271 577.812,63.659 C576.298,66.436 574.916,69.019 573.388,71.817 C573.087,72.368 572.516,73.488 571.749,73.983 C567.599,76.663 562.842,78.558 556.791,78.472 C555.765,78.458 557.517,76.589 557.914,75.138 C558.179,74.165 558.386,73.006 558.386,72.194 C558.386,69.272 555.624,66.665 552.706,67.758 C552.382,67.879 551.494,68.336 551.211,68.416 C550.607,68.658 549.922,68.826 549.577,67.646 C548.884,65.285 547.573,65.321 546.219,65.838 C540.571,68.031 536.11,72.477 532.66,77.34 C531.772,78.712 531.045,80.165 530.48,81.698 C528.538,86.36 532.155,93.157 537.684,91.868 C543.54,90.45 548.596,86.644 552.756,82.424 C553.442,81.698 554.289,81.304 555.298,81.214 C560.746,80.729 564.765,79.965 569.485,76.991 C570.118,76.592 570.532,77.074 570.167,77.728 C567.494,82.532 564.391,87.991 561.62,92.685 C558.831,97.748 550.545,108.877 547.834,114.04 C547.744,114.433 547.872,115.038 548.077,115.433 C548.44,115.997 548.884,116.522 549.409,117.006 C549.778,117.431 550.812,117.582 551.164,117.127 C557.209,108.024 568.415,92.645 576.602,85.33 C576.809,85.11 577.164,84.807 577.698,84.943 C578.498,85.147 578.316,86.831 579.234,88.119 C580.268,89.571 583.519,90.321 585.365,90.21 C591.052,89.865 596.025,88.312 599.651,83.569 C601.997,80.502 601.59,77.465 602.579,76.841 C605.724,74.853 610.81,74.329 612.78,74.766 C613.482,74.921 614.014,75.181 613.617,75.704 C613.093,76.395 612.203,77.909 612.059,78.272 C610.832,81.377 611.697,85.01 614.471,87.177 C617.066,89.335 621.74,88.871 625.427,88.207 C634.144,86.376 640.661,83.045 651.399,75.249 C652.051,74.774 652.01,74.285 651.801,73.753"/>
      <path d="M597.685,76.273 C592.027,79.593 588.831,86.426 581.097,83.889 C580.742,83.773 579.19,82.797 579.917,81.749 C580.556,80.83 581.507,79.967 582.044,79.506 C585.207,76.789 586.955,75.716 590.92,74.224 C592.23,73.732 594.492,73.415 595.937,73.302 C596.419,73.265 598.36,73.618 598.777,74.507 C599.096,75.188 598.131,76.011 597.685,76.273 z M552.259,76.585 C550.642,78.086 550.403,78.338 549.582,78.326 C547.279,78.294 545.852,77.519 546.656,75.574 C547.652,73.162 550.058,71.935 552.393,72.005 C553.232,72.031 554.071,72.491 554.071,73.411 C554.071,74.5 553.301,75.618 552.259,76.585 z M546.098,82.364 C543.019,84.76 539.732,86.849 535.928,87.873 C535.525,87.953 535.141,88.013 534.778,88.054 C534.657,88.054 534.557,88.074 534.475,88.114 C533.753,88.141 532.902,87.223 533.023,86.48 C533.579,82.566 536.258,79.443 538.773,76.613 C540.794,74.459 542.842,72.466 545.372,70.923 C545.633,70.764 546.206,70.439 546.7,70.96 C547.283,71.705 546.977,71.935 546.449,72.505 C545.922,73.072 545.385,73.776 545.137,74.176 C544.035,75.956 544.583,78.897 547.06,79.899 C548.135,80.335 548.086,80.784 546.098,82.364 z M626.592,70.608 C630.23,69.093 631.835,68.875 633.234,69.239 C634.956,69.688 634.909,71.79 629.855,73.651 C627.222,74.521 624.227,74.695 622.384,74.321 C621.441,74.13 623.764,71.936 626.592,70.608 z M651.801,73.753 C651.628,73.314 651.069,73.709 650.636,73.928 C650.013,74.244 648.228,75.438 645.394,76.986 C640.064,79.899 634.296,82.198 628.212,83.569 C622.358,84.889 617.87,85.186 616.539,84.024 C615.141,82.804 614.8,82.072 616.106,79.914 C616.428,79.47 616.953,78.824 617.679,77.977 C618.21,77.423 618.434,77.177 618.768,76.879 C619.122,76.564 619.613,76.336 620.076,76.437 C621.332,76.71 624.188,77.484 627.7,77.321 C631.531,77.144 634.204,76.426 636.437,74.307 C638.281,72.557 638.461,68.807 636.7,67.011 C633.366,63.611 627.164,66.241 622.28,68.594 C620.356,69.676 618.306,71.159 616.486,72.78 C616.169,73.062 615.759,73.19 615.337,73.157 C611.535,72.861 608.027,73.184 604.568,73.889 C603.922,74.051 603.438,74.152 603.115,74.192 C602.69,74.291 601.984,74.253 601.715,73.903 C601.46,73.57 600.783,72.557 600.612,72.363 C600.206,71.905 599.519,71.263 599.061,70.949 C593.617,67.213 586.231,71.755 581.504,75.1 C580.175,76.134 578.881,77.196 577.581,78.242 C576.895,78.795 575.88,79.493 575.52,79.2 C575.17,78.916 575.653,77.542 576.057,76.734 C578.008,73.131 579.792,69.426 581.203,65.596 C581.525,64.547 581.081,63.538 579.871,62.569 C579.548,62.285 578.801,62.209 578.539,62.569 C578.249,62.879 578.045,63.271 577.812,63.659 C576.298,66.436 574.916,69.019 573.388,71.817 C573.087,72.368 572.516,73.488 571.749,73.983 C567.599,76.663 562.842,78.558 556.791,78.472 C555.765,78.458 557.517,76.589 557.914,75.138 C558.179,74.165 558.386,73.006 558.386,72.194 C558.386,69.272 555.624,66.665 552.706,67.758 C552.382,67.879 551.494,68.336 551.211,68.416 C550.607,68.658 549.922,68.826 549.577,67.646 C548.884,65.285 547.573,65.321 546.219,65.838 C540.571,68.031 536.11,72.477 532.66,77.34 C531.772,78.712 531.045,80.165 530.48,81.698 C528.538,86.36 532.155,93.157 537.684,91.868 C543.54,90.45 548.596,86.644 552.756,82.424 C553.442,81.698 554.289,81.304 555.298,81.214 C560.746,80.729 564.765,79.965 569.485,76.991 C570.118,76.592 570.532,77.074 570.167,77.728 C567.494,82.532 564.391,87.991 561.62,92.685 C558.831,97.748 550.545,108.877 547.834,114.04 C547.744,114.433 547.872,115.038 548.077,115.433 C548.44,115.997 548.884,116.522 549.409,117.006 C549.778,117.431 550.812,117.582 551.164,117.127 C557.209,108.024 568.415,92.645 576.602,85.33 C576.809,85.11 577.164,84.807 577.698,84.943 C578.498,85.147 578.316,86.831 579.234,88.119 C580.268,89.571 583.519,90.321 585.365,90.21 C591.052,89.865 596.025,88.312 599.651,83.569 C601.997,80.502 601.59,77.465 602.579,76.841 C605.724,74.853 610.81,74.329 612.78,74.766 C613.482,74.921 614.014,75.181 613.617,75.704 C613.093,76.395 612.203,77.909 612.059,78.272 C610.832,81.377 611.697,85.01 614.471,87.177 C617.066,89.335 621.74,88.871 625.427,88.207 C634.144,86.376 640.661,83.045 651.399,75.249 C652.051,74.774 652.01,74.285 651.801,73.753 z" fill-opacity="0" stroke="#FFFFFE" stroke-width="0.4"/>
    </g>
    <g id="church" fill="#1A258A" stroke="#1A258A">
      <path d="M473.787,150.024 C468.59,150.028 464.579,145.701 464.613,140.2 C464.589,130.886 475.222,127.41 481.069,133.692 L482.217,132.514 C475.227,125.423 462.877,129.755 462.939,140.324 C462.882,151.018 475.577,155.132 482.34,147.699 L481.256,146.646 C479.055,148.815 476.917,150.024 473.787,150.024" />
      <path d="M473.787,150.024 C468.59,150.028 464.579,145.701 464.613,140.2 C464.589,130.886 475.222,127.41 481.069,133.692 L482.217,132.514 C475.227,125.423 462.877,129.755 462.939,140.324 C462.882,151.018 475.577,155.132 482.34,147.699 L481.256,146.646 C479.055,148.815 476.917,150.024 473.787,150.024 z" fill-opacity="0" stroke-width="0.4"/>
      <path d="M511.566,139.457 L497.682,139.457 L497.682,129.416 L496.071,129.416 L496.071,151.109 L497.682,151.109 L497.682,140.944 L511.566,140.944 L511.566,151.109 L513.177,151.109 L513.177,129.416 L511.566,129.416 z" />
      <path d="M511.566,139.457 L497.682,139.457 L497.682,129.416 L496.071,129.416 L496.071,151.109 L497.682,151.109 L497.682,140.944 L511.566,140.944 L511.566,151.109 L513.177,151.109 L513.177,129.416 L511.566,129.416 L511.566,139.457 z" fill-opacity="0" stroke-width="0.4"/>
      <path d="M544.759,142.091 C544.759,147.328 541.939,149.993 537.538,149.993 C532.952,149.993 530.194,147.049 530.194,141.936 L530.194,129.416 L528.582,129.416 L528.582,142.091 C528.582,148.165 532.27,151.45 537.476,151.45 C542.745,151.45 546.37,148.134 546.37,141.905 L546.37,129.416 L544.759,129.416 z" />
      <path d="M544.759,142.091 C544.759,147.328 541.939,149.993 537.538,149.993 C532.952,149.993 530.194,147.049 530.194,141.936 L530.194,129.416 L528.582,129.416 L528.582,142.091 C528.582,148.165 532.27,151.45 537.476,151.45 C542.745,151.45 546.37,148.134 546.37,141.905 L546.37,129.416 L544.759,129.416 L544.759,142.091 z" fill-opacity="0" stroke-width="0.4"/>
      <path d="M563.387,140.665 L563.387,130.903 L570.793,130.903 C574.729,130.903 577.023,132.731 577.023,135.644 C577.06,138.807 574.352,140.666 570.7,140.665 z M578.634,135.644 C578.528,131.487 575.236,129.462 570.886,129.415 L561.775,129.415 L561.775,151.109 L563.387,151.109 L563.387,142.122 L570.484,142.122 L577.394,151.109 L579.44,151.109 L572.281,141.843 C575.938,141.347 578.634,139.27 578.634,135.644" />
      <path d="M563.387,140.665 L563.387,130.903 L570.793,130.903 C574.729,130.903 577.023,132.731 577.023,135.644 C577.06,138.807 574.352,140.666 570.7,140.665 L563.387,140.665 z M578.634,135.644 C578.528,131.487 575.236,129.462 570.886,129.415 L561.775,129.415 L561.775,151.109 L563.387,151.109 L563.387,142.122 L570.484,142.122 L577.394,151.109 L579.44,151.109 L572.281,141.843 C575.938,141.347 578.634,139.27 578.634,135.644 z" fill-opacity="0" stroke-width="0.4"/>
      <path d="M603.368,150.024 C598.171,150.028 594.16,145.701 594.194,140.2 C594.171,130.886 604.802,127.41 610.65,133.692 L611.797,132.514 C604.809,125.422 592.458,129.755 592.521,140.324 C592.463,151.018 605.157,155.132 611.921,147.699 L610.837,146.646 C608.636,148.815 606.498,150.024 603.368,150.024" />
      <path d="M603.368,150.024 C598.171,150.028 594.16,145.701 594.194,140.2 C594.171,130.886 604.802,127.41 610.65,133.692 L611.797,132.514 C604.809,125.422 592.458,129.755 592.521,140.324 C592.463,151.018 605.157,155.132 611.921,147.699 L610.837,146.646 C608.636,148.815 606.498,150.024 603.368,150.024 z" fill-opacity="0" stroke-width="0.4"/>
      <path d="M641.147,139.457 L627.263,139.457 L627.263,129.416 L625.651,129.416 L625.651,151.109 L627.263,151.109 L627.263,140.944 L641.147,140.944 L641.147,151.109 L642.758,151.109 L642.758,129.416 L641.147,129.416 z" />
      <path d="M641.147,139.457 L627.263,139.457 L627.263,129.416 L625.651,129.416 L625.651,151.109 L627.263,151.109 L627.263,140.944 L641.147,140.944 L641.147,151.109 L642.758,151.109 L642.758,129.416 L641.147,129.416 L641.147,139.457 z" fill-opacity="0" stroke-width="0.4"/>
    </g>
  </g>
</svg>
