<svg xmlns="http://www.w3.org/2000/svg" xml:space="preserve" stroke-linecap="round" stroke-linejoin="round" clip-rule="evenodd" viewBox="0 0 1280 720">
  <path fill="#58cadd" d="M0 0h1280v720H0V0Z"/>
  <g fill="#fff" stroke="#fff" stroke-linecap="butt" stroke-linejoin="miter">
    <path d="M823.1 448.9c-6.6 0-11.7-5.5-11.6-12.5 0-12 13.5-16.3 21-8.3l1.4-1.5c-9-9-24.7-3.5-24.6 10 0 13.5 16.1 18.8 24.7 9.3l-1.3-1.3a12.7 12.7 0 0 1-9.6 4.3"/>
    <path stroke-width=".4" d="M823.1 448.9c-6.6 0-11.7-5.5-11.6-12.5 0-12 13.5-16.3 21-8.3l1.4-1.5c-9-9-24.7-3.5-24.6 10 0 13.5 16.1 18.8 24.7 9.3l-1.3-1.3a12.7 12.7 0 0 1-9.6 4.3Z"/>
    <path d="M871.2 435.4h-17.6v-12.8h-2v27.6h2v-12.9h17.6v13h2.1v-27.7h-2v12.8Z"/>
    <path stroke-width=".4" d="M871.2 435.4h-17.6v-12.8h-2v27.6h2v-12.9h17.6v13h2.1v-27.7h-2v12.8Z"/>
    <path d="M913.5 438.8c0 6.6-3.6 10-9.2 10-5.8 0-9.3-3.7-9.3-10.2v-16h-2v16.2c0 7.7 4.6 11.9 11.2 11.9 6.8 0 11.4-4.2 11.4-12.2v-15.9h-2v16.2Z"/>
    <path stroke-width=".4" d="M913.5 438.8c0 6.6-3.6 10-9.2 10-5.8 0-9.3-3.7-9.3-10.2v-16h-2v16.2c0 7.7 4.6 11.9 11.2 11.9 6.8 0 11.4-4.2 11.4-12.2v-15.9h-2v16.2Z"/>
    <path d="M937.2 437v-12.5h9.5c5 0 7.9 2.3 7.9 6 0 4-3.4 6.4-8 6.4h-9.4Zm19.5-6.4c-.2-5.3-4.4-8-10-8h-11.5v27.6h2v-11.4h9l8.9 11.4h2.6l-9.1-11.8c4.6-.6 8-3.2 8-7.8"/>
    <path stroke-width=".4" d="M937.2 437v-12.5h9.5c5 0 7.9 2.3 7.9 6 0 4-3.4 6.4-8 6.4h-9.4Zm19.5-6.4c-.2-5.3-4.4-8-10-8h-11.5v27.6h2v-11.4h9l8.9 11.4h2.6l-9.1-11.8c4.6-.6 8-3.2 8-7.8Z"/>
    <path d="M988.1 448.9c-6.6 0-11.7-5.5-11.6-12.5 0-12 13.5-16.3 21-8.3l1.4-1.5c-9-9-24.6-3.5-24.6 10s16.1 18.8 24.7 9.3l-1.3-1.3a12.7 12.7 0 0 1-9.6 4.3"/>
    <path stroke-width=".4" d="M988.1 448.9c-6.6 0-11.7-5.5-11.6-12.5 0-12 13.5-16.3 21-8.3l1.4-1.5c-9-9-24.6-3.5-24.6 10s16.1 18.8 24.7 9.3l-1.3-1.3a12.7 12.7 0 0 1-9.6 4.3Z"/>
    <path d="M1036.3 435.4h-17.7v-12.8h-2v27.6h2v-12.9h17.7v13h2v-27.7h-2v12.8Z"/>
    <path stroke-width=".4" d="M1036.3 435.4h-17.7v-12.8h-2v27.6h2v-12.9h17.7v13h2v-27.7h-2v12.8Z"/>
    <g stroke-width=".4">
      <path d="M356.8 312c6.5-8.4 13-16.9 18.4-26.1 5-8.5.4-18-9.6-17.8h-2.1l-2.1.1c-17 2.4-33.6 8.3-49.9 14-22 8.4-44.6 16.1-64 29.8l-3 3c-2.8 3.3-.4 8.4 3.1 9.9a28 28 0 0 0 5.9 2 180.5 180.5 0 0 0 37 2.5c3.4 0 6.7 0 10 .8a7.4 7.4 0 0 0 3 0c1.5-.2.1-2.5-.6-3a9.6 9.6 0 0 0-4-1.5c-4.5-.9-9-1.3-13.7-1.2-11.9 0-24-.2-35.7-3-.6 0-1.1-.6-1.3-1.2 0-.4.3-1.2.6-1.6a54.3 54.3 0 0 1 3.2-2.5c6.8-5.2 14.6-9 22.4-12.7a518 518 0 0 1 41.4-16.7c12.5-4.5 25.1-8.5 38-11.5 4.9-1.1 9.7-2.1 14.8-1.9a15.8 15.8 0 0 1 3 .6c.7.2 1.2 1.4 1.1 2a206.5 206.5 0 0 1-1.5 3.8 97.2 97.2 0 0 1-4.6 7.7 808.7 808.7 0 0 1-61.5 74.4 2647.3 2647.3 0 0 1-74.6 79.8c-.8 1-.6 2.4 0 3.5.4.7 1.6 1.1 2.2.6l5.2-5.4c39.3-39.2 84.2-84.8 118.9-128.4"/>
      <path d="M356.8 312c6.5-8.4 13-16.9 18.4-26.1 5-8.5.4-18-9.6-17.8h-2.1l-2.1.1c-17 2.4-33.6 8.3-49.9 14-22 8.4-44.6 16.1-64 29.8l-3 3c-2.8 3.3-.4 8.4 3.1 9.9a28 28 0 0 0 5.9 2 180.5 180.5 0 0 0 37 2.5c3.4 0 6.7 0 10 .8a7.4 7.4 0 0 0 3 0c1.5-.2.1-2.5-.6-3a9.6 9.6 0 0 0-4-1.5c-4.5-.9-9-1.3-13.7-1.2-11.9 0-24-.2-35.7-3-.6 0-1.1-.6-1.3-1.2 0-.4.3-1.2.6-1.6a54.3 54.3 0 0 1 3.2-2.5c6.8-5.2 14.6-9 22.4-12.7a518 518 0 0 1 41.4-16.7c12.5-4.5 25.1-8.5 38-11.5 4.9-1.1 9.7-2.1 14.8-1.9a15.8 15.8 0 0 1 3 .6c.7.2 1.2 1.4 1.1 2a206.5 206.5 0 0 1-1.5 3.8 97.2 97.2 0 0 1-4.6 7.7 808.7 808.7 0 0 1-61.5 74.4 2647.3 2647.3 0 0 1-74.6 79.8c-.8 1-.6 2.4 0 3.5.4.7 1.6 1.1 2.2.6l5.2-5.4c39.3-39.2 84.2-84.8 118.9-128.4ZM506.7 331.8c.2.2.5.3.8.3a8 8 0 0 0 2.3-.7l5.2-2.7c.3-.1.5-.7.6-1 .2-1.1-.1-2-1-2.8-.8-.8-1.7-1-2.8-.7-2.8 1.2-8.3 4.2-5 7.6"/>
      <path d="M506.7 331.8c.2.2.5.3.8.3a8 8 0 0 0 2.3-.7l5.2-2.7c.3-.1.5-.7.6-1 .2-1.1-.1-2-1-2.8-.8-.8-1.7-1-2.8-.7-2.8 1.2-8.3 4.2-5 7.6ZM460.7 355.3c-6 2.8-15.5 14.9-23.2 10.3-.4-.3-.5-.8-.4-1.1.3-1 1.4-2.2 2.1-2.8 4.2-3.3 7.3-6 12.4-8.1 2.2-.9 6-1.7 8.4-1.4 1.7.3 2.8 2.2.7 3.1m-76 24.2c-1.9 1.9-3.3 3.6-6.5 5.2-2 1-4.8 2.3-8.6 2.7-1.4 0-3.4-.1-3.4-2 0-2.2 3.6-7 13.6-10.6 3.4-1.2 5.5-1.7 7.1-2.5.7-.3 1.3 0 .7 1.6-.5 1.5-2.3 4.8-3 5.6M543.8 358c-1.3-.4-1.8-1.4-.9-2.7 1.2-1.7 2.3-2.5 3.5-4.1.9-1.1 2.3-3.3 2.7-4 .4-.8.5-1.8.1-2.8-1-2.4-3.3-3.8-5.7-2.7h-.3a40 40 0 0 0-3.3 1.8c-4.8 3.2-9.8 6.3-14.5 9.8-1.2.9-2.1 0-1.5-1l1-1.8 1.5-2.2 3.7-6c.9-1.6.1-3.2-1.4-4.1-.3-.2-.8-.3-1-.2-.6.3-1 .7-1.4 1.2l-6.8 9.4c-.6.8-3.9 4-5.2 5.1-8.3 6.9-19.2 15.4-29.6 15.7-1.1 0-3.5-.4-3.4-2.1a28.5 28.5 0 0 1 6-9.4c3.3-4.2 7-8.2 10.7-12 1.4-1.4 1.2-2.8-.4-4.1-.8-.6-2-.5-2.8.2l-1.5 1.1-3 2.8a32 32 0 0 1-5.4 3.8c-3.5 2-5.3 3-14.4 4.8-2.2.5-4 0-4.6-.2-.6-.2-1.4-2.1-1.7-2.6l-.7-.8c-7-7.2-17.5-.8-24 3.8l-6 4.5c-.9.7-2-.3-1.6-1.3l.6-1a109 109 0 0 0 6.5-14.3c.5-1.3-.1-2.6-1.6-3.8-.5-.4-1.4-.5-1.7 0l-1 1.4-3.3 6c-.9 1.5-1.5 3-2.4 3.9-2 2.2-5.6 5-10.4 7-7 2.7-13.2 4-19.8 6.5-2.3.9-3.2-.2-2.7-1.9l.3-1.7c.7-2.9 1.5-5.2 2.4-7.8 2.1-5.5 6-9.4 11.6-11.3 2-.7 2.8.2 4 0 .9 0 1.3-.7 1.3-1.4s0-1.8-1.4-2.7c-1.1-.7-3.3-1.1-5.6-.8-6.3.8-10.7 5.6-13.3 11l-.9 1.9a8 8 0 0 1-2 3c-7.6 6.5-11.6 7.2-18.9 11-1 .5 0-2.8.3-3.6v-.4c.8-3.3-.7-7.5-3.7-9-6.4-3.3-15.2 4.5-20.6 7.4-.8.5-1.5.8-2.3 1.1a1 1 0 0 1-.4-.2c-.2 0-.3-.2-.4-.4l.4-.5c.3-.8.7-1.5 1.2-2.2 2.7-3.5 4.4-6 7.2-9.5 1.2-1.7 2.4-3.3.8-5.3-.6-.7-2.5-1.2-3.2-.4-.8.7-1 1-1.6 1.8l-.5.7c-6.6 9-13.9 17.6-19.9 27-1.1 2-.9 3.8.8 5.7.5.7 2 1.1 2.7.6l.7-.4c8-6 15.9-12.5 24.7-17.5 2.4-1.6 5-2.8 7.9-3.5l1.2-.2c.2.2.8.4.8.8v1.8l-1 2.6-1 3.3c-1.2 2.7-2.5 9.9 1.2 8.9 1.7-.5 5.3-5.3 8.8-7.4 5.5-3.2 11.6-6.8 14.2-9.3.7-.6.7.7.5 1.3l-1.8 7.7c0 1-.6 3.1-1.5 3.6-3.6 1.8-13.8 6.4-17.7 9-6.5 4.5-10.3 8.1-10.2 12.2.1 2.9 3.7 3.8 10.1 3.5a34 34 0 0 0 6.5-1.1c8.3-2.2 13-9.6 15-16.8 0-.4.9-3.2 1-3.5.7-1.5.6-1.4 2.6-2.5 7.8-4.5 19.6-7 28.5-12.2 1-.5 1 .7-.1 2.5-3.6 6.2-7 12.5-10.7 18.6-3.5 6.5-11.5 17.7-15 24.3a3 3 0 0 0 .4 1.8c.4.7 1 1.4 1.7 2 .4.5 1.8.7 2.2.1a216.5 216.5 0 0 1 32-39.5s0 3.2.6 4.3a5.5 5.5 0 0 0 6.2 3.9c8-1 15.6-3.4 20-9.1 1.4-1.7 2.4-3.8 3.1-5.4.4-.8.9-1.5 1.9-1.8l6-1.6c4.3-1.2 8-2.5 10.3-3.7 1-.6 1 0 .4.8-1.1 1.4-2.9 3.3-3.5 4.3a20 20 0 0 0-3.7 7.6c-.5 4.2 2.3 8.7 6.9 8.5 10.1-1.6 16.6-8.5 26.3-13.8.8-.4 2-.8-.4 2.6l-5.5 7.7c-.8.8-4.1 6.1-4.6 7.2-.6 1.3-.4 2.6.7 3.8.8 1 2 1.6 3.1.8 10-9.3 24.7-24.8 36.4-31.8.8-.4-.2 2.2-.9 3-.5.5-.8 1.4-1 2-.6 2.7 1 4.9 3.6 5.1 2.7.2 3.6-1.8 2.5-2.2"/>
      <path d="M460.7 355.3c-6 2.8-15.5 14.9-23.2 10.3-.4-.3-.5-.8-.4-1.1.3-1 1.4-2.2 2.1-2.8 4.2-3.3 7.3-6 12.4-8.1 2.2-.9 6-1.7 8.4-1.4 1.7.3 2.8 2.2.7 3.1Zm-76 24.2c-1.9 1.9-3.3 3.6-6.5 5.2-2 1-4.8 2.3-8.6 2.7-1.4 0-3.4-.1-3.4-2 0-2.2 3.6-7 13.6-10.6 3.4-1.2 5.5-1.7 7.1-2.5.7-.3 1.3 0 .7 1.6-.5 1.5-2.3 4.8-3 5.6Zm159-21.5c-1.2-.4-1.7-1.4-.8-2.7 1.2-1.7 2.3-2.5 3.5-4.1.9-1.1 2.3-3.3 2.7-4 .4-.8.5-1.8.1-2.8-1-2.4-3.3-3.8-5.7-2.7h-.3a40 40 0 0 0-3.3 1.8c-4.8 3.2-9.8 6.3-14.5 9.8-1.2.9-2.1 0-1.5-1l1-1.8 1.5-2.2 3.7-6c.9-1.6.1-3.2-1.4-4.1-.3-.2-.8-.3-1-.2-.6.3-1 .7-1.4 1.2l-6.8 9.4c-.6.8-3.9 4-5.2 5.1-8.3 6.9-19.2 15.4-29.6 15.7-1.1 0-3.5-.4-3.4-2.1a28.5 28.5 0 0 1 6-9.4c3.3-4.2 7-8.2 10.7-12 1.4-1.4 1.2-2.8-.4-4.1-.8-.6-2-.5-2.8.2l-1.5 1.1-3 2.8a32 32 0 0 1-5.4 3.8c-3.5 2-5.3 3-14.4 4.8-2.2.5-4 0-4.6-.2-.6-.2-1.4-2.1-1.7-2.6l-.7-.8c-7-7.2-17.5-.8-24 3.8l-6 4.5c-.9.7-2-.3-1.6-1.3l.6-1a109 109 0 0 0 6.5-14.3c.5-1.3-.1-2.6-1.6-3.8-.5-.4-1.4-.5-1.7 0l-1 1.4-3.3 6c-.9 1.5-1.5 3-2.4 3.9-2 2.2-5.6 5-10.4 7-7 2.7-13.2 4-19.8 6.5-2.3.9-3.2-.2-2.7-1.9l.3-1.7c.7-2.9 1.5-5.2 2.4-7.8 2.1-5.5 6-9.4 11.6-11.3 2-.7 2.8.2 4 0 .9 0 1.3-.7 1.3-1.4s0-1.8-1.4-2.7c-1.1-.7-3.3-1.1-5.6-.8-6.3.8-10.7 5.6-13.3 11l-.9 1.9a8 8 0 0 1-2 3c-7.6 6.5-11.6 7.2-18.9 11-1 .5 0-2.8.3-3.6v-.4c.8-3.3-.7-7.5-3.7-9-6.4-3.3-15.2 4.5-20.6 7.4-.8.5-1.5.8-2.3 1.1a1 1 0 0 1-.4-.2c-.2 0-.3-.2-.4-.4l.4-.5c.3-.8.7-1.5 1.2-2.2 2.7-3.5 4.4-6 7.2-9.5 1.2-1.7 2.4-3.3.8-5.3-.6-.7-2.5-1.2-3.2-.4-.8.7-1 1-1.6 1.8l-.5.7c-6.6 9-13.9 17.6-19.9 27-1.1 2-.9 3.8.8 5.7.5.7 2 1.1 2.7.6l.7-.4c8-6 15.9-12.5 24.7-17.5 2.4-1.6 5-2.8 7.9-3.5l1.2-.2c.2.2.8.4.8.8v1.8l-1 2.6-1 3.3c-1.2 2.7-2.5 9.9 1.2 8.9 1.7-.5 5.3-5.3 8.8-7.4 5.5-3.2 11.6-6.8 14.2-9.3.7-.6.7.7.5 1.3l-1.8 7.7c0 1-.6 3.1-1.5 3.6-3.6 1.8-13.8 6.4-17.7 9-6.5 4.5-10.3 8.1-10.2 12.2.1 2.9 3.7 3.8 10.1 3.5a34 34 0 0 0 6.5-1.1c8.3-2.2 13-9.6 15-16.8 0-.4.9-3.2 1-3.5.7-1.5.6-1.4 2.6-2.5 7.8-4.5 19.6-7 28.5-12.2 1-.5 1 .7-.1 2.5-3.6 6.2-7 12.5-10.7 18.6-3.5 6.5-11.5 17.7-15 24.3a3 3 0 0 0 .4 1.8c.4.7 1 1.4 1.7 2 .4.5 1.8.7 2.2.1a216.5 216.5 0 0 1 32-39.5s0 3.2.6 4.3a5.5 5.5 0 0 0 6.2 3.9c8-1 15.6-3.4 20-9.1 1.4-1.7 2.4-3.8 3.1-5.4.4-.8.9-1.5 1.9-1.8l6-1.6c4.3-1.2 8-2.5 10.3-3.7 1-.6 1 0 .4.8-1.1 1.4-2.9 3.3-3.5 4.3a20 20 0 0 0-3.7 7.6c-.5 4.2 2.3 8.7 6.9 8.5 10.1-1.6 16.6-8.5 26.3-13.8.8-.4 2-.8-.4 2.6l-5.5 7.7c-.8.8-4.1 6.1-4.6 7.2-.6 1.3-.4 2.6.7 3.8.8 1 2 1.6 3.1.8 10-9.3 24.7-24.8 36.4-31.8.8-.4-.2 2.2-.9 3-.5.5-.8 1.4-1 2-.6 2.7 1 4.9 3.6 5.1 2.7.2 3.6-1.8 2.5-2.2ZM576.8 335.7c.2.2.5.3.8.3a8 8 0 0 0 2.3-.5l5.4-2.4c.3-.1.5-.7.6-1 .3-1 0-2-.8-2.8a2.5 2.5 0 0 0-2.7-.9c-2.9 1-8.6 3.6-5.6 7.3"/>
      <path d="M576.8 335.7c.2.2.5.3.8.3a8 8 0 0 0 2.3-.5l5.4-2.4c.3-.1.5-.7.6-1 .3-1 0-2-.8-2.8a2.5 2.5 0 0 0-2.7-.9c-2.9 1-8.6 3.6-5.6 7.3ZM653.5 390.4c-9.5 10.4-9.4 12.1-18.5 20-3.3 3-9.7 5.5-11.9 4.7-1.6-.6-1.5-3 .9-6.6 6.7-9.7 22.1-18.2 29.3-22 .9-.5 5.5-3 5-2.2l-4.8 6m52.4-38.9a51.2 51.2 0 0 1-6.8 5.3c-11 6.6-14.4 7.5-20 10-2.8 1.3-1.7-.9-.7-2.5a190.4 190.4 0 0 0 10.7-20.7c.1-.6 0-1.3-.4-1.8-.6-.9-1.4-1.7-2.3-2.5-.6-.6-1.6-.8-2.3-.2a131.5 131.5 0 0 1-31.3 25 90.5 90.5 0 0 1-8 3.7c-2 .8-4.4.9-5.6-.3-1.2-1.2-1-3.6.6-6.4a37.8 37.8 0 0 1 16.3-14.6c4.4-2.1 9.6-2.9 14.1 0 .8.5 1.3 0 1.2-.6-.2-.7-.5-1.3-1-1.8a13 13 0 0 0-8.1-4c-6.9-1-14.3 3.4-19.6 8.2-1 1-3.5 3.6-8 7.3-4.5 3.5-11.7 7.4-14.6 9-1.6.8 0-4.1.4-5.6.6-3.4-.7-7.5-3.6-9-6.4-3.3-15.2 4.5-20.7 7.4-1.4.8-2.7-.6-1.4-2.2 2.7-3.4 4.3-6 7.1-9.5 1.3-1.7 2.5-3.2.9-5.3-.6-.7-2.5-1.2-3.2-.4-.8.7-1 1-1.6 1.8l-.5.7-5.7 7.4c-1.6 2-3.7 4-6.2 5.8-9 6.6-16.8 9.1-29.8 13.5-1.5.5-3 0-2.9-1.8a28.5 28.5 0 0 1 6-9.4c3.3-4.2 7-8.2 10.7-12 1.4-1.4 1.2-2.8-.4-4.1-.8-.6-2-.6-2.7.1a18.7 18.7 0 0 0-1.7 1.2 96.3 96.3 0 0 0-12.4 13.8c-1.7 2.5-3.6 5.2-4.1 8.2-.5 4.2 2.4 9.2 7 8.5 4-.6 7-2.4 10.6-4.4 5.2-2.8 10.8-6.3 16-8.9 1.3-.6 1.4.5-.2 2.6-.7 1-3.5 5.4-4.1 6.6-1.1 1.9-.9 3.7.8 5.6.5.7 2 1.2 2.7.6l.6-.4c8-6 16-12.5 24.8-17.5 2.4-1.6 5-2.8 7.8-3.5a5 5 0 0 1 1.3-.2c.2.2.8.4.8.8v1.8l-1 2.6a36 36 0 0 0-1 3.3c-1.7 5.1-1.2 10.8 2.4 9.5 1.7-.6 3.6-2.6 4.5-3.4 5-4.4 8-8 12.3-10.3 1.4-.8-.3.5-.5 5.2 0 .2.1 1.8.3 2.5.5 2 1.6 3.6 3 5.1 3 3.3 8 2.3 11.8 1.5a40 40 0 0 0 10.1-4.3c10-5.7 15.3-12.1 15.7-11.6.6.7 0 2.2-.5 3-2.4 3.5-4.4 7.2-6.5 10.8-1.1 1.8-1.8 3.2-3.7 4.2-13.8 8.1-30 9.7-41.6 26-2.3 3.3-4.7 8.3-4 13.1.6 5 4.8 6.9 10 6.1 1.6-.3 3.6-1 5-1.6 10.6-4.9 13.2-10.1 19-16.4 5.9-6.6 11.3-13.7 16.1-21 1.6-3 4.5-4.3 7.3-5.7 8-4.1 19.4-11 27-17 3.8-2.6 5.7-5 6.1-6.4.3-1-1-1.7-2.3-.5"/>
      <path d="M653.5 390.4c-9.5 10.4-9.4 12.1-18.5 20-3.3 3-9.7 5.5-11.9 4.7-1.6-.6-1.5-3 .9-6.6 6.7-9.7 22.1-18.2 29.3-22 .9-.5 5.5-3 5-2.2l-4.8 6Zm52.4-39a51.2 51.2 0 0 1-6.8 5.3c-11 6.6-14.4 7.5-20 10-2.8 1.3-1.7-.9-.7-2.5a190.4 190.4 0 0 0 10.7-20.7c.1-.6 0-1.3-.4-1.8-.6-.9-1.4-1.7-2.3-2.5-.6-.6-1.6-.8-2.3-.2a131.5 131.5 0 0 1-31.3 25 90.5 90.5 0 0 1-8 3.7c-2 .8-4.4.9-5.6-.3-1.2-1.2-1-3.6.6-6.4a37.8 37.8 0 0 1 16.3-14.6c4.4-2.1 9.6-2.9 14.1 0 .8.5 1.3 0 1.2-.6-.2-.7-.5-1.3-1-1.8a13 13 0 0 0-8.1-4c-6.9-1-14.3 3.4-19.6 8.2-1 1-3.5 3.6-8 7.3-4.5 3.5-11.7 7.4-14.6 9-1.6.8 0-4.1.4-5.6.6-3.4-.7-7.5-3.6-9-6.4-3.3-15.2 4.5-20.7 7.4-1.4.8-2.7-.6-1.4-2.2 2.7-3.4 4.3-6 7.1-9.5 1.3-1.7 2.5-3.2.9-5.3-.6-.7-2.5-1.2-3.2-.4-.8.7-1 1-1.6 1.8l-.5.7-5.7 7.4c-1.6 2-3.7 4-6.2 5.8-9 6.6-16.8 9.1-29.8 13.5-1.5.5-3 0-2.9-1.8a28.5 28.5 0 0 1 6-9.4c3.3-4.2 7-8.2 10.7-12 1.4-1.4 1.2-2.8-.4-4.1-.8-.6-2-.6-2.7.1a18.7 18.7 0 0 0-1.7 1.2 96.3 96.3 0 0 0-12.4 13.8c-1.7 2.5-3.6 5.2-4.1 8.2-.5 4.2 2.4 9.2 7 8.5 4-.6 7-2.4 10.6-4.4 5.2-2.8 10.8-6.3 16-8.9 1.3-.6 1.4.5-.2 2.6-.7 1-3.5 5.4-4.1 6.6-1.1 1.9-.9 3.7.8 5.6.5.7 2 1.2 2.7.6l.6-.4c8-6 16-12.5 24.8-17.5 2.4-1.6 5-2.8 7.8-3.5a5 5 0 0 1 1.3-.2c.2.2.8.4.8.8v1.8l-1 2.6a36 36 0 0 0-1 3.3c-1.7 5.1-1.2 10.8 2.4 9.5 1.7-.6 3.6-2.6 4.5-3.4 5-4.4 8-8 12.3-10.3 1.4-.8-.3.5-.5 5.2 0 .2.1 1.8.3 2.5.5 2 1.6 3.6 3 5.1 3 3.3 8 2.3 11.8 1.5a40 40 0 0 0 10.1-4.3c10-5.7 15.3-12.1 15.7-11.6.6.7 0 2.2-.5 3-2.4 3.5-4.4 7.2-6.5 10.8-1.1 1.8-1.8 3.2-3.7 4.2-13.8 8.1-30 9.7-41.6 26-2.3 3.3-4.7 8.3-4 13.1.6 5 4.8 6.9 10 6.1 1.6-.3 3.6-1 5-1.6 10.6-4.9 13.2-10.1 19-16.4 5.9-6.6 11.3-13.7 16.1-21 1.6-3 4.5-4.3 7.3-5.7 8-4.1 19.4-11 27-17 3.8-2.6 5.7-5 6.1-6.4.3-1-1-1.7-2.3-.5ZM891.5 353.7l-.5-.7v-.1c-1.4-2-4-1.7-6-1.9h-1.7c-1.1-.2-2-.5-1.4-1.4 1.3-2.2 2.7-4.3 4.1-6.3 14-20.1 34-35.6 52.1-52.3l3.6-3.4.1-.3v-1.4c-.6-1.6-2.6-2.7-4.1-1.8-1.6 1-3 2.2-4.4 3.3A624.3 624.3 0 0 0 874 349c-1.2 1.5-2.3 2.2-4.2 2.2l-17.3.2-16.1.8c-.9 0-2.6.2-3 0-1-.5 0-1.6.5-2.2 1.2-1.6 1.7-2 3-3.4 12.7-13.3 25.8-26.4 36.5-41.4 2.7-4.3 5.8-9 5-14.3-.7-4.4-3.1-7.6-7.2-9.7-2.2-1.2-4.6-2-7.1-2.2-.7 0-1.3-.2-2-.3-2.9-.3-5.7-.4-8.6-.4-31.3 1-64.5 10.6-92 25.8-8.5 5-17 11-21.7 20.1-3.1 5.7-2.8 13.6 3 17.3 1 .7 3.6 1.7 4 .1.5-1.7-1.5-2.9-3-3.5-3.4-1.5-1.6-5.7-.6-8.2 12.6-29.2 92-49.3 121.9-46 2.7.3 5.4.9 7.7 2.3.8.6 1.2 1.3 1.2 2.1-.2 4.6-2.6 8.7-5.3 12.3a332 332 0 0 1-10 12.4c-11.4 13.2-23.7 25.4-35.8 38l-.9.8c-1 1-2.4 1.6-3.8 1.6l-1.2.1c-17.6 1.4-35.7 2.7-52.4 8.7-2.4.8-4.6 2-6.6 3.4-1 .9-2 3-1.7 4.3.3 1.7.7 3 2.1 4 .7.5 1.5.7 2.3.7.3 0 .8-.3.8-.7.1-.3 0-.7-.2-1v-.2c-.6-1.6-1.3-4.4 5-6.2 4.6-1.4 8.7-2 12.9-3h.1A236.8 236.8 0 0 1 812 359c.4 0 1.7-.2 2 .5.2.5-.7 1.2-1 1.5-25.2 26.7-57 57.3-83.6 83l-.1.1c-1.9 2.1-6 4-3.2 7.3.4.6 1.4.8 2 .3 30.8-28 67.9-62.5 96.7-92.4 1.4-1.6 2.6-1.8 4.7-2l11.6-.6c7.5-.4 16.7-1 24.3-.8 2.7 0 2.9.1 1.9 1.5-6.3 8.6-13.3 17.4-16 28-1.4 5.1.1 11 4.8 14 2.7 1.7 5 1 8-.3 7.7-3.4 7.6-6.5 7.6-8.7 0-1.2-.8-2.7-1.8-3.2-.3-.2-1-.5-1.3-.2-.3.4-.8 2-1.5 2.8-3.2 3.9-7.1 6.4-9.7 6-2.1-.3-2.6-2.7-2.1-4.4 1.5-8.9 7-16.4 12-23.7 2.7-3.7 5.6-7.3 8.5-10.9.7-.8 1.5-1.3 2.6-1.4 3.8-.3 7.6 0 11.4 0 .8 0 1.5-.1 1.8-.9v-.8"/>
      <path d="m891.5 353.7-.5-.7v-.1c-1.4-2-4-1.7-6-1.9h-1.7c-1.1-.2-2-.5-1.4-1.4 1.3-2.2 2.7-4.3 4.1-6.3 14-20.1 34-35.6 52.1-52.3l3.6-3.4.1-.3v-1.4c-.6-1.6-2.6-2.7-4.1-1.8-1.6 1-3 2.2-4.4 3.3A624.3 624.3 0 0 0 874 349c-1.2 1.5-2.3 2.2-4.2 2.2l-17.3.2-16.1.8c-.9 0-2.6.2-3 0-1-.5 0-1.6.5-2.2 1.2-1.6 1.7-2 3-3.4 12.7-13.3 25.8-26.4 36.5-41.4 2.7-4.3 5.8-9 5-14.3-.7-4.4-3.1-7.6-7.2-9.7-2.2-1.2-4.6-2-7.1-2.2-.7 0-1.3-.2-2-.3-2.9-.3-5.7-.4-8.6-.4-31.3 1-64.5 10.6-92 25.8-8.5 5-17 11-21.7 20.1-3.1 5.7-2.8 13.6 3 17.3 1 .7 3.6 1.7 4 .1.5-1.7-1.5-2.9-3-3.5-3.4-1.5-1.6-5.7-.6-8.2 12.6-29.2 92-49.3 121.9-46 2.7.3 5.4.9 7.7 2.3.8.6 1.2 1.3 1.2 2.1-.2 4.6-2.6 8.7-5.3 12.3a332 332 0 0 1-10 12.4c-11.4 13.2-23.7 25.4-35.8 38l-.9.8c-1 1-2.4 1.6-3.8 1.6l-1.2.1c-17.6 1.4-35.7 2.7-52.4 8.7-2.4.8-4.6 2-6.6 3.4-1 .9-2 3-1.7 4.3.3 1.7.7 3 2.1 4 .7.5 1.5.7 2.3.7.3 0 .8-.3.8-.7.1-.3 0-.7-.2-1v-.2c-.6-1.6-1.3-4.4 5-6.2 4.6-1.4 8.7-2 12.9-3h.1A236.8 236.8 0 0 1 812 359c.4 0 1.7-.2 2 .5.2.5-.7 1.2-1 1.5-25.2 26.7-57 57.3-83.6 83l-.1.1c-1.9 2.1-6 4-3.2 7.3.4.6 1.4.8 2 .3 30.8-28 67.9-62.5 96.7-92.4 1.4-1.6 2.6-1.8 4.7-2l11.6-.6c7.5-.4 16.7-1 24.3-.8 2.7 0 2.9.1 1.9 1.5-6.3 8.6-13.3 17.4-16 28-1.4 5.1.1 11 4.8 14 2.7 1.7 5 1 8-.3 7.7-3.4 7.6-6.5 7.6-8.7 0-1.2-.8-2.7-1.8-3.2-.3-.2-1-.5-1.3-.2-.3.4-.8 2-1.5 2.8-3.2 3.9-7.1 6.4-9.7 6-2.1-.3-2.6-2.7-2.1-4.4 1.5-8.9 7-16.4 12-23.7 2.7-3.7 5.6-7.3 8.5-10.9.7-.8 1.5-1.3 2.6-1.4 3.8-.3 7.6 0 11.4 0 .8 0 1.5-.1 1.8-.9v-.8ZM981 355c-7.3 4.2-11.4 12.9-21.2 9.6-.5-.1-2.4-1.3-1.5-2.7a31.3 31.3 0 0 1 14-9.6c1.7-.6 4.5-1 6.4-1.1.6 0 3 .4 3.6 1.5.4.9-.8 2-1.4 2.2m-57.8.4c-2 2-2.4 2.3-3.4 2.3-3 0-4.8-1-3.8-3.5 1.3-3.1 4.4-4.7 7.3-4.6 1.1 0 2.2.6 2.2 1.8 0 1.4-1 2.8-2.3 4m-7.9 7.4a37 37 0 0 1-14.4 7.3h-.4c-.9 0-2-1.1-1.8-2 .7-5 4-9 7.3-12.6 2.6-2.8 5.2-5.3 8.4-7.3.3-.2 1-.6 1.7 0 .7 1 .3 1.3-.3 2l-1.7 2.2c-1.4 2.2-.7 6 2.4 7.3 1.4.5 1.4 1-1.2 3.1m102.5-15c4.7-1.9 6.7-2.2 8.5-1.7 2.2.6 2.1 3.2-4.3 5.6a20.5 20.5 0 0 1-9.5.9c-1.2-.3 1.7-3 5.3-4.8m32.1 4c-.2-.5-1 0-1.5.3-.8.4-3 1.9-6.6 3.9a84.6 84.6 0 0 1-22 8.3c-7.4 1.7-13 2.1-14.8.6-1.8-1.5-2.2-2.5-.5-5.2l2-2.5 1.4-1.4c.4-.4 1-.7 1.6-.5 1.6.3 5.3 1.3 9.7 1 5-.1 8.3-1 11.2-3.8 2.3-2.2 2.5-7 .3-9.2-4.3-4.4-12.1-1-18.4 2-2.4 1.3-5 3.2-7.3 5.3a2 2 0 0 1-1.5.5 48.6 48.6 0 0 0-15.6 1.3c-.5.1-1.4 0-1.8-.4l-1.4-2-2-1.7c-6.9-4.8-16.3 1-22.3 5.3l-5 4c-.9.7-2.2 1.5-2.6 1.2-.5-.4.2-2.1.7-3.2 2.5-4.6 4.7-9.3 6.5-14.1.4-1.4-.1-2.7-1.7-3.9-.4-.4-1.3-.5-1.7 0l-.9 1.4c-2 3.5-3.7 6.8-5.6 10.4-.4.7-1.1 2.1-2.1 2.7a33 33 0 0 1-19 5.7c-1.4 0 .9-2.3 1.4-4.2.3-1.2.6-2.7.6-3.7 0-3.8-3.5-7-7.3-5.7l-1.9.8c-.7.4-1.6.6-2-1-1-3-2.6-2.9-4.3-2.2a39.6 39.6 0 0 0-17.3 14.6 28 28 0 0 0-2.8 5.6c-2.4 5.9 2.2 14.5 9.2 13a41.8 41.8 0 0 0 19.2-12.1c.9-1 2-1.4 3.2-1.6 7-.6 12-1.5 18.1-5.3.8-.5 1.3 0 .9.9-3.4 6.1-7.4 13-11 19-3.5 6.5-14 20.7-17.5 27.2a3 3 0 0 0 .3 1.8c.5.7 1 1.4 1.7 2 .5.6 1.8.8 2.3.2a253 253 0 0 1 32.4-40.5c.2-.3.7-.7 1.4-.5 1 .2.7 2.4 2 4 1.2 1.9 5.4 2.8 7.7 2.7 7.3-.4 13.6-2.4 18.2-8.5 3-3.9 2.5-7.7 3.7-8.5 4-2.6 10.5-3.2 13-2.7 1 .2 1.6.6 1.1 1.2a24 24 0 0 0-2 3.3c-1.5 4-.4 8.6 3 11.3 3.4 2.8 9.3 2.2 14 1.3a80.6 80.6 0 0 0 33.1-16.5c.8-.6.8-1.2.5-1.9"/>
      <path d="M981 355c-7.3 4.2-11.4 12.9-21.2 9.6-.5-.1-2.4-1.3-1.5-2.7a31.3 31.3 0 0 1 14-9.6c1.7-.6 4.5-1 6.4-1.1.6 0 3 .4 3.6 1.5.4.9-.8 2-1.4 2.2Zm-58 .3c-2 2-2.3 2.3-3.3 2.3-3 0-4.8-1-3.8-3.5 1.3-3.1 4.4-4.7 7.3-4.6 1.1 0 2.2.6 2.2 1.8 0 1.4-1 2.8-2.3 4Zm-7.8 7.4a37 37 0 0 1-14.4 7.3h-.4c-.9 0-2-1.1-1.8-2 .7-5 4-9 7.3-12.6 2.6-2.8 5.2-5.3 8.4-7.3.3-.2 1-.6 1.7 0 .7 1 .3 1.3-.3 2l-1.7 2.2c-1.4 2.2-.7 6 2.4 7.3 1.4.5 1.4 1-1.2 3.1Zm102.5-15c4.7-1.9 6.7-2.2 8.5-1.7 2.2.6 2.1 3.2-4.3 5.6a20.5 20.5 0 0 1-9.5.9c-1.2-.3 1.7-3 5.3-4.8Zm32.1 4c-.2-.5-1 0-1.5.3-.8.4-3 1.9-6.6 3.9a84.6 84.6 0 0 1-22 8.3c-7.4 1.7-13 2.1-14.8.6-1.8-1.5-2.2-2.5-.5-5.2l2-2.5 1.4-1.4c.4-.4 1-.7 1.6-.5 1.6.3 5.3 1.3 9.7 1 5-.1 8.3-1 11.2-3.8 2.3-2.2 2.5-7 .3-9.2-4.3-4.4-12.1-1-18.4 2-2.4 1.3-5 3.2-7.3 5.3a2 2 0 0 1-1.5.5 48.6 48.6 0 0 0-15.6 1.3c-.5.1-1.4 0-1.8-.4l-1.4-2-2-1.7c-6.9-4.8-16.3 1-22.3 5.3l-5 4c-.9.7-2.2 1.5-2.6 1.2-.5-.4.2-2.1.7-3.2 2.5-4.6 4.7-9.3 6.5-14.1.4-1.4-.1-2.7-1.7-3.9-.4-.4-1.3-.5-1.7 0l-.9 1.4c-2 3.5-3.7 6.8-5.6 10.4-.4.7-1.1 2.1-2.1 2.7a33 33 0 0 1-19 5.7c-1.4 0 .9-2.3 1.4-4.2.3-1.2.6-2.7.6-3.7 0-3.8-3.5-7-7.3-5.7l-1.9.8c-.7.4-1.6.6-2-1-1-3-2.6-2.9-4.3-2.2a39.6 39.6 0 0 0-17.3 14.6 28 28 0 0 0-2.8 5.6c-2.4 5.9 2.2 14.5 9.2 13a41.8 41.8 0 0 0 19.2-12.1c.9-1 2-1.4 3.2-1.6 7-.6 12-1.5 18.1-5.3.8-.5 1.3 0 .9.9-3.4 6.1-7.4 13-11 19-3.5 6.5-14 20.7-17.5 27.2a3 3 0 0 0 .3 1.8c.5.7 1 1.4 1.7 2 .5.6 1.8.8 2.3.2a253 253 0 0 1 32.4-40.5c.2-.3.7-.7 1.4-.5 1 .2.7 2.4 2 4 1.2 1.9 5.4 2.8 7.7 2.7 7.3-.4 13.6-2.4 18.2-8.5 3-3.9 2.5-7.7 3.7-8.5 4-2.6 10.5-3.2 13-2.7 1 .2 1.6.6 1.1 1.2a24 24 0 0 0-2 3.3c-1.5 4-.4 8.6 3 11.3 3.4 2.8 9.3 2.2 14 1.3a80.6 80.6 0 0 0 33.1-16.5c.8-.6.8-1.2.5-1.9Z"/>
    </g>
  </g>
  <path fill="#fff" d="M95 47.2V0H75v32.8l20 14.4ZM60 21.9V0H40v7.5l20 14.4Zm15 20.6v61.6c0 2.6 1.2 5 3.2 6.5l15 11.7a1 1 0 0 0 1.7-.8V56.9L75.1 42.5ZM40 17.2v77.7c0 2.5 1.1 5 3.1 6.5l15.1 11.7a1 1 0 0 0 1.7-1V31.6L40 17.2ZM110.2 0v56a1 1 0 0 1-1.7 1L95 47V57l11.8 8.5c2.1 1.6 3.4 4 3.4 6.7v40.5c0 2.5 1 4.9 3 6.4l15.1 11.7a1 1 0 0 0 1.7-.8V0h-19.8Z"/>
</svg>
