<svg xmlns="http://www.w3.org/2000/svg" xmlns:xlink="http://www.w3.org/1999/xlink" viewBox="0 0 3840 2160">
  <defs>
    <clipPath id="b">
      <path class="q" d="M0 0h3840v2160H0z"/>
    </clipPath>
    <clipPath id="d">
      <path class="q" d="M0 0h3840v2160H0z"/>
    </clipPath>
    <filter id="h" x="2269.8" y="664.5" width="677.6" height="664.9" color-interpolation-filters="sRGB" filterUnits="userSpaceOnUse">
      <feFlood flood-color="#fff" result="bg"/>
      <feBlend in="SourceGraphic" in2="bg"/>
    </filter>
    <style>
      .i{fill:#fff}.j{fill:#b3e3fa}.m{fill:#1c1b1e}.q{fill:none}.r{fill:#84c3cb}
    </style>
    <mask id="f" x="2269.8" y="664.5" width="677.6" height="664.9" maskUnits="userSpaceOnUse">
      <path class="m" d="m2922 1109-22 12-238 188-1 7-3 7 39 2 211-25 39-152-25-39Z" style="filter:url(#h)"/>
    </mask>
  </defs>
  <g id="a">
    <path class="r" d="M0 0h3840v2160H0z"/>
    <g style="clip-path:url(#b)">
      <g style="opacity:.33">
        <path class="j" d="M1870 1441c-10 0-18 8-18 18l-27 1142a18 18 0 1 0 36 1l27-1143c0-10-8-18-18-18ZM1600 1857c-9-1-16 5-18 14l-134 558c-3 10 3 19 13 22 9 2 19-4 22-14l134-558a18 18 0 0 0-17-22ZM1704 1422c-8 0-16 5-18 14l-75 314c-3 10 3 19 13 22 9 2 19-4 22-14l75-314a18 18 0 0 0-17-22ZM1582 1385c-7 0-14 4-17 11l-373 858c-4 9 0 20 9 24s20-1 24-10l373-858a18 18 0 0 0-16-25ZM1441 1311c-6 0-12 3-16 8l-638 946c-6 8-4 19 4 25 9 5 20 3 25-5l639-946c5-8 3-19-5-25l-9-3ZM1309 1202c-5 0-10 1-13 5l-771 753c-7 7-8 19-1 26s18 7 26 1l771-754c7-7 7-19 0-26-3-3-8-5-12-5ZM1218 1072c-4 0-8 0-11 3l-697 462c-8 6-11 17-5 25 5 9 16 11 25 6l697-463c8-6 11-17 5-25-3-5-9-8-14-8ZM368 1635c-3 0-7 1-10 3L46 1845c-8 6-11 17-5 25 5 9 16 11 25 5l311-206c9-6 11-17 6-26-4-5-9-8-15-8ZM1147 947c-2-1-5 0-7 1l-981 412c-9 4-14 14-10 23 4 10 14 14 24 10l981-412c9-3 13-14 9-23-2-7-9-11-16-11ZM1107 798h-3L360 946c-9 2-16 11-14 21s11 16 21 14l743-147c10-2 16-12 15-22-2-8-9-14-18-14ZM258 967h-4l-324 64c-10 2-17 12-15 22 2 9 12 16 21 14l325-65c10-2 16-11 14-21-1-8-9-14-17-14ZM1087 633l-137-3a18 18 0 0 0-1 37l137 2c10 0 18-8 18-18s-8-18-17-18ZM856 629l-1049-20a18 18 0 0 0-1 36l1049 20a18 18 0 0 0 1-36ZM421 323c-8 0-16 6-18 14-2 10 4 20 14 22l686 153c10 2 19-4 21-14 3-9-3-19-13-21L425 323h-4ZM-63 215c-8-1-16 5-17 14-3 10 3 19 13 21l382 86c10 2 19-4 22-14 2-10-4-19-14-21l-382-86h-4ZM704 150c-7-1-14 4-17 11-4 9 1 20 10 23l448 186c9 4 20 0 24-10 3-9-1-19-10-23L711 151l-7-1ZM432 37c-7 0-14 4-17 11-4 9 0 20 9 24l157 64c9 4 19 0 23-10 4-9 0-19-9-23L438 38l-6-1ZM395-362c-6-1-12 2-16 8-5 8-3 19 5 25l834 565c9 5 20 3 25-5 6-9 4-20-5-25L404-359l-9-3ZM495-816c-5 0-9 1-13 5-7 7-7 18 0 25l844 891c7 8 18 8 25 1 8-7 8-18 1-26L508-811c-4-3-8-5-13-5ZM1164-491c-3-1-7 0-10 2-8 6-10 17-5 25L1447 8c5 9 17 11 25 6 8-6 11-17 5-25l-298-472c-3-5-9-8-15-8ZM2670-465c-6 0-11 3-15 8L2327 11c-5 8-4 19 5 25 8 6 19 4 25-5l327-467c6-8 4-20-4-26-3-2-6-3-10-3ZM3516-917c-5 0-9 2-13 5L2450 99c-7 7-8 19-1 26s18 7 26 0L3528-886c7-7 7-18 1-25-4-4-8-6-13-6ZM3433-307c-3 0-7 1-10 3l-863 539c-8 5-11 16-6 25 6 8 17 11 25 6l863-540c8-5 11-16 6-25-3-5-9-8-15-8ZM3377 93l-6 1-510 192c-10 3-14 14-11 23s14 14 23 11l510-192c9-3 14-14 11-23-3-7-10-12-17-12ZM2744 331l-7 1-110 41c-9 4-14 14-10 24 3 9 13 14 23 10l109-41c10-3 14-14 11-23-3-7-9-12-16-12ZM3861 288h-3l-395 75c-9 1-16 11-14 21s11 16 21 14l394-74c10-2 16-11 15-21-2-9-9-15-18-15ZM3368 381h-4l-693 131c-10 2-17 11-15 21s11 16 21 15l694-131c9-2 16-11 14-21-1-9-9-15-17-15ZM3944 685l-684-13c-9 0-16 8-16 18-1 10 7 18 16 18l684 13c8 0 16-8 16-18s-7-18-16-18ZM3173 670l-490-9a18 18 0 0 0-1 37l490 9a18 18 0 0 0 1-37ZM3279 971a18 18 0 0 0-5 36l687 162c10 3 19-3 22-13 2-10-4-20-14-22l-687-163h-3ZM2665 826c-8-1-16 5-18 13-2 10 4 20 14 22l510 121c10 2 19-4 22-13 2-10-4-20-14-22l-510-121h-4ZM2610 969c-7 0-14 4-17 11-4 9 0 20 9 24l832 390c9 4 19 0 24-9 4-9 0-20-9-24l-832-390-7-2ZM3358 1689c-6 0-12 3-15 8-6 8-4 19 4 25l303 218c8 5 19 3 25-5s4-19-4-25l-303-218c-3-2-7-3-10-3ZM2535 1098c-6 0-12 2-15 7-6 9-4 20 4 26l681 489c8 6 19 4 25-4 6-9 4-20-4-26l-681-489c-3-2-7-3-10-3ZM2439 1220c-4 0-9 1-12 5-8 7-8 18-1 25l462 489c7 7 18 7 26 0 7-6 7-18 0-25l-462-489c-3-3-8-5-13-5ZM2305 1327a18 18 0 0 0-16 28l465 744c5 8 16 11 24 5 9-5 11-16 6-25l-464-743c-3-6-9-9-15-9ZM2165 1394l-7 1c-9 4-14 14-10 24l184 494c3 9 14 14 23 10 9-3 14-14 10-23l-184-494c-2-7-9-12-16-12ZM2137 2072h-4c-10 2-16 11-14 21l83 468c2 9 11 16 21 14s16-11 14-21l-83-468c-2-8-9-14-17-14ZM2022 1429l-4 1c-9 1-16 11-14 21l95 533c2 10 11 16 21 14 10-1 16-11 14-21l-95-533c-1-9-9-15-17-15Z"/>
      </g>
    </g>
    <image xlink:href="assets/BG Texture.png"/>
    <path class="r" d="M2037 1167h105v105h-105z"/>
  </g>
  <g style="clip-path:url(#d)" id="c">
    <path class="m" d="m1052 617-1 20-2 20c-1 2-3 4-5 3-2 0-3-2-3-4l-1-20 1-19c0-3 2-6 5-6s6 3 6 6Zm-4 62-1-1-2-1h-4l-2 1-1 3-1 3v6l1 1 2 2 2 1h2l2-2a6 6 0 0 0 2-3v-2l1-3v-3l-1-2Zm44 129-3 64c0 2-2 4-5 4l-84 2-81 1c-6 37-9 76-9 113 0 2-2 4-5 4-2 0-4-2-4-4v-13l-22 4v13c0 3-2 5-5 5-2 0-4-2-4-5v-11l-24 2-1 10c0 3-2 5-4 5s-4-2-4-5v-9h-27v13c-1 3-3 5-5 5-3-1-4-3-4-5v-13l-30-2v13c0 2-2 4-5 4-2 0-4-2-4-5v-13l-20-2-1 16c0 2-2 4-4 4h-1c-2-1-4-3-4-5 4-33 1-67-8-98l-9 5c-35 16-71 25-104 25a162 162 0 0 1-163-138c-10-55 9-107 53-146 36-31 83-49 129-50l-5-1 5-42c0-2 2-4 4-4h2l458 9c3 1 5 2 5 5 1 80-3 168-7 245Zm-37 14-22 19h6l15-13 1-6Zm-7 18 5-1 1-4-6 5Zm14-244c-115-4-232-6-350-5h-1l-12 17c44 18 77 54 91 99h1c25 0 152-2 168 16 2 2 3 6 1 9l-2 3c-13 33-24 69-32 106 18 1 48 2 78 1 9-6 18-12 26-20a3 3 0 0 1 3 4l-19 16 10-1 31-26v-6l-13 10a3 3 0 1 1-4-4l18-13 2-92 4-114ZM741 939l21 3-1-30-26-3c3 9 5 19 6 30ZM488 728c-2 0-5 1-6 3-2 11-3 21-2 32 1 2 2 4 4 4s4-2 4-4c0-10 1-19 4-29 0-2-1-5-4-6Zm2 55-2-1h-2c-2 1-3 1-3 3l-1 1v3l2 4v1l3 2 3 1 3-3v-5l-1-3-2-3Zm233 107 7-5c9-18 11-39 10-59-1-21-6-41-12-61 18-9 39-9 56 2h5v-9a59 59 0 0 0-50-8l-14 6-11-31a386 386 0 0 1 67-15l-3-9c-23 3-46 8-68 15l-11-22 7-5c9-5 16-12 22-20 5-7 10-17 10-27l-7-6c-1 1-3 2-3 4-2 8-4 16-9 23a72 72 0 0 1-26 21 369 369 0 0 0-63-79h-9c-1 1 0 3 1 4 25 23 46 50 63 79-13 6-27 10-41 12-22 1-42-3-62-8-18-4-37-7-55-7-20 1-40 6-57 18-5 4 0 13 6 9 32-23 74-16 111-8 21 5 42 9 63 6 14-2 28-6 40-12l3 5 8 16c-54 18-105 46-154 75l-61 39c-4 3 0 11 5 8 67-44 137-89 214-113 5 10 9 21 12 32-8 6-16 13-23 21-26 31-38 72-68 100-16 15-36 25-57 31-2 0-3 2-3 3l12 3c34-10 61-33 80-63 19-29 32-66 62-86 5 16 8 31 10 47v34c-2 12-5 23-10 34-1 3 1 5 3 6Zm189-24-24 5-4 31a436 436 0 0 0 23-4l5-32Zm-108-64-10-1c-3 11-6 22-11 32l21 1v-32Zm9 32h33l5-34-34 2h-5l1 32Zm-47 36h39l-1-27-25-2-13 22v7Zm48 0 29-2 2-26-24 1h-8l1 27Zm38-3 28-4 4-24-30 3-2 25Zm34-37 7-36-33 6-5 33 31-3Zm9-45 9-33-38 5-5 33 34-5Zm-38-27-46 4 1 31c13 0 27 0 40-2l5-33Zm-59 4-2 30 7 1-1-31h-4Zm-31 117 2 25 35 3 1-28a550 550 0 0 1-38 0Zm46 28 27-1 2-29-28 2-1 28Zm36-1 26-3 4-31-28 4-2 30Zm70-73-25 4-4 24a544 544 0 0 0 24-4l5-24Zm12-48-28 7-8 36 26-5 10-38Zm15-44c-9 4-20 7-33 9v1l-8 32 29-8 12-34Zm5-13c-14-11-103-13-159-12 3 11 5 22 6 34v3c57 0 138-14 152-23l1-2ZM732 895v1l1 3 27 4-2-25-3-3c-7 8-15 14-23 20Zm39 48 32 1 1-28c-11-1-23-1-34-3l1 30Zm41 1 26-1 1-28-22 1h-4l-1 28Zm35-2c8 0 17-1 25-3l2-27-26 3-1 27Zm34-4 22-5 3-26-23 4-2 27ZM705 591h-8l-1 2-9 10a67 67 0 0 1 7 3l11-15Zm-15 0h-8l-1 1-5 8 5 2 9-11Zm-15 0h-10l-1 7 6 1 5-8Zm87 386v-26l-20-3 1 26 19 3Zm40 2 1-26-32-1v26l31 1Zm35 0v-27l-25 1-1 27 26-1Zm33-3 2-28c-9 2-17 3-26 3v27l24-2Zm31-6 2-28-22 5-2 27 22-4Zm189-403-452-9c-3 15-4 27-4 38l21 1 1-10c0-3 2-4 5-4a7876 7876 0 0 1 409 6l2 3c-3 39-4 80-5 118 0 44-1 90-5 134 0 2-2 4-4 4a781 781 0 0 1-134 2l-4 20a5937 5937 0 0 0 160-3l3-60c4-75 8-161 7-240ZM605 1991l1 20c0 6 0 13 2 20 0 2 2 3 4 3 3 0 4-2 4-4v-39c0-3-3-6-6-6s-5 3-5 6Zm4 62 1-1 2-1h4l1 1 2 3v5l1 2v1l-1 2-2 2h-4l-2-1a6 6 0 0 1-2-4v-1l-1-4v-2l1-2Zm-44 128 3 64c0 3 2 5 4 5l85 1 81 2c6 37 9 75 9 112 0 3 2 5 5 5 2 0 4-2 4-5v-12l22 4v13c0 3 2 5 4 5 3 0 5-2 5-5l-1-12 25 3v10c0 3 2 4 5 4 2 0 4-2 4-4v-9h26l1 13c0 3 2 4 5 4 2 0 4-2 4-4l-1-13 31-2v13c0 2 2 4 4 4h1c2 0 4-2 4-5l-1-13c7-1 14-1 20-3l1 17c1 2 3 4 5 4 3-1 5-3 4-5-3-33 0-67 9-98l9 4c35 17 70 26 104 26a162 162 0 0 0 163-138c10-56-9-107-53-146-36-31-83-49-129-50l5-1-5-42c0-2-2-4-4-4h-2l-459 9c-2 0-4 2-4 5-2 80 3 167 7 244Zm37 15 22 19-6-1-15-12-1-6Zm6 18-5-1v-4l5 5Zm-14-244c115-4 233-6 351-5l13 17c-45 18-77 54-91 99h-2c-25 0-152-2-167 16-2 2-3 6-1 9l2 3c13 32 24 69 32 106-18 1-48 2-78 1l-26-20a3 3 0 0 0-4 4l20 16-11-1-30-26-1-6 14 10a3 3 0 1 0 3-4l-17-13-3-92c0-37-1-76-4-114Zm321 342-21 3 2-29 25-4-5 30h-1Zm253-210c3-1 6 1 6 3 3 11 4 21 2 32 0 2-1 3-4 3-2 0-3-1-3-3l-4-29c0-3 1-5 3-6Zm-1 55 2-1h2l3 3 1 1v2l-2 5-1 1-2 2-3 1-3-3-1-2 1-3 1-3c0-2 1-3 2-3Zm-234 106-6-4c-9-18-11-39-10-59 1-21 5-41 11-61-18-9-39-10-55 2h-6v-10c15-10 34-11 51-7l13 5 12-30a386 386 0 0 0-68-15l4-9c23 3 46 8 68 15l11-22-8-5c-8-5-15-12-21-20-6-7-11-17-10-27l7-6 3 4c2 8 3 16 9 23a72 72 0 0 0 25 21 369 369 0 0 1 64-80l9 1-1 4c-25 23-46 50-63 79 13 6 27 10 41 11 21 2 41-2 62-7 18-4 36-8 55-7 20 1 40 6 56 18 6 4 1 13-5 9-33-24-75-16-111-8-21 5-42 8-64 6-13-2-27-6-40-12l-2 5-8 16c54 18 105 45 153 75l61 39c5 3 1 11-4 8-68-44-137-89-214-114l-13 33c9 6 17 13 24 21 26 31 37 72 68 100 16 15 36 25 57 31 2 0 3 1 3 3l-13 3c-33-11-61-33-79-63-19-29-33-66-63-86-4 16-7 31-9 47v34c1 12 5 23 9 34 1 3 0 5-3 6Zm-189-23 24 4 4 32a436 436 0 0 1-23-4l-5-32Zm109-64 10-1c2 11 6 22 10 32l-21 1 1-32Zm-10 32-33-1-4-33 34 2h4l-1 32Zm47 35-38 1v-27l25-2 14 22-1 6Zm-47 1-29-2-3-26 25 1h7v27Zm-38-3-29-4-4-24 30 3 3 25Zm-34-38-7-35 33 5 4 34-30-4Zm-10-44-8-33a697 697 0 0 0 37 5l6 33-35-5Zm39-27 46 4-1 31-40-2-5-33Zm58 4 3 30-8 1 2-31h3Zm31 116-2 26c-11 2-23 2-35 3v-28a550 550 0 0 0 37-1Zm-46 29-26-1-2-29 28 2v28Zm-35-1-27-3-3-31 28 4 2 30Zm-70-73 25 4 4 24a544 544 0 0 1-24-5l-5-23Zm-12-48 28 7 7 36-25-5-10-38Zm-15-44c8 4 20 6 33 9v1l8 32-30-9-11-33Zm-5-13c14-11 103-13 158-12-3 11-4 22-5 34v3c-57 0-139-14-153-23v-2Zm219 167v1l-1 3-28 4 2-25 3-3c8 7 15 14 24 20Zm-39 47-33 2v-28l34-3-1 29Zm-42 2-25-1-2-28 23 1h4v28Zm-34-2-26-3-2-27 26 3 2 27Zm-35-5-22-4-2-26 22 4 2 26Zm177-346h8v1l10 11a67 67 0 0 0-7 3l-11-15Zm14 0h9v1l6 8-5 2-10-11Zm15 0h11l1 7-6 1-6-8Zm-87 385v-26l21-2-1 25c-7 2-13 3-20 3Zm-39 3-1-26 31-2v26l-30 2Zm-35 0-1-27 26 1 1 26h-26Zm-34-4-1-27 25 3 1 27c-8-1-17-1-25-3Zm-31-5-1-28 22 5 1 27-22-4Zm-188-403 452-9 4 38-21 1-1-11c-1-2-3-4-5-4a7876 7876 0 0 0-410 7l-1 3c3 39 4 79 4 118 1 44 2 90 6 134 0 2 2 3 4 4a781 781 0 0 0 134 2l3 20a5937 5937 0 0 1-159-3l-3-60c-4-75-9-161-7-240ZM3668 980c-24-6-47-8-71-7 9-6 18-12 25-19 6-6 8-11 6-17-2-7-10-11-21-9-10 1-21 4-31 7l14-19c5-8 6-15 2-20-5-7-14-7-25-1-16 9-30 21-43 34 5-15 9-32 11-48 0-5 1-10-1-15 29-55 22-129-18-181-38-50-103-78-170-74-46 2-90 20-123 50-35 31-57 74-61 118a188 188 0 0 0 60 152 199 199 0 0 0 159 46l-11 5a5 5 0 0 0 5 8c20-12 46-16 69-9a5 5 0 0 0 6-6 140 140 0 0 1-12-45v-11l5-4c2 0 5 2 7 7 8 12 14 26 17 42 1 3 3 4 5 4s4-2 4-4c4-30 11-64 30-93 1-1 2-4 5-6a4 4 0 0 0 2-2l7-2c2 1 4 4 5 7l1 12c-3 27-12 54-26 79a5 5 0 0 0 8 5c16-25 38-46 64-61 5-3 11-5 13-2 1 2 0 5-3 10-8 14-18 26-30 36l-20 14a5 5 0 0 0 5 8c7-5 14-9 20-15l4-2 24 17-6 4-4 2a5 5 0 0 0 3 8c29-3 59-1 87 6 3 0 5-1 6-4 1-2-1-5-3-5Zm-131-147-8-14c-1-2-3-2-4-1-1 0-2 2-1 3l11 19-4 12-31-55 3-9 14 22a3 3 0 0 0 5-3l-17-26 10-31 21-3c8 28 9 58 1 86Zm-28 21c-6-6-13-11-21-15l4-15a347 347 0 0 0 17 30Zm-338-43-1-18 29 41c-11-7-20-15-28-24Zm61 35-23-35-4-1c-1 1-2 3-1 4l23 34-16-7v-1l-40-56a133 133 0 0 1 1-15l24 33a3 3 0 0 0 4 1v-4l-26-37 3-14 65 94-10 4Zm15-6-67-99c5-14 12-28 20-41h2c20-12 42-21 64-28l73 43c-13 30-21 59-27 89-20 14-42 26-65 36Zm262-149c11 14 19 30 25 47l-19 3-72-62c5-11 9-23 12-34 21 12 39 27 54 46Zm-162-71c35-2 70 5 100 21l-1 1c-3 12-7 24-13 35v1c-34 11-62 20-87 30l-70-41v-2l22-35 1-1c15-5 31-8 48-9Zm-119 305-4-4c0-22 3-43 7-64 30-11 59-26 85-45 28 24 59 43 87 61v1c1 31-4 62-13 92-68 12-132-14-162-41Zm189 43 18-6 3 8-21-2Zm53-26c-3-9-7-18-12-25-3-5-7-11-14-11-6 0-12 4-14 10-2 5-2 10-2 15l4 22c-10 5-21 8-32 11 9-29 13-60 13-90a858 858 0 0 0 69-28l20 14-4 6c-16 24-23 50-28 76Zm52-90h-5l-2-1-21-34 4-12 27 49-3-2Zm75 87 14 12-6 5-19-14 11-3Zm11-2c5-1 10 0 11 3 1 2-2 5-4 7l-11-9 4-1Zm-41 12 12-5c8 4 15 10 21 16l-10 6-23-17ZM1942 1892c-23-6-47-8-70-7 9-6 17-12 24-19 6-6 8-12 7-17-3-7-11-11-22-9-10 1-20 4-30 7l14-19c5-9 5-15 2-20-5-7-15-7-25-1-16 9-31 21-44 34 6-16 9-32 11-48v-15c29-55 21-130-19-181a205 205 0 0 0-293-24c-35 31-57 74-61 118a188 188 0 0 0 60 152 199 199 0 0 0 159 45l-11 6a5 5 0 0 0 5 8c21-12 46-16 70-9a5 5 0 0 0 5-7 140 140 0 0 1-12-44c0-4-1-8 1-11 1-2 3-4 5-4s4 2 7 6c8 13 13 27 17 43 0 3 2 4 4 4 3 0 4-2 5-4 4-30 10-64 29-93l5-6a4 4 0 0 0 2-2l7-2c3 1 5 4 6 7v12c-3 27-12 54-26 79a5 5 0 0 0 8 5c17-25 39-46 64-61 5-3 11-5 13-2 1 2 0 5-2 10-9 13-19 26-31 36l-20 14a5 5 0 0 0 5 7c7-4 14-8 20-14l5-2 24 17-7 4-3 2a5 5 0 0 0 3 8c29-3 58-1 87 6 2 0 5-1 5-4 1-2-1-5-3-5Zm-130-148-9-14-4-1v4l11 19-5 12-30-55 2-9 14 22a3 3 0 0 0 5-3l-16-26 9-31 22-3c8 28 8 58 1 85Zm-28 22c-7-6-14-11-22-15l4-15a347 347 0 0 0 18 30Zm-339-44v-17l29 40c-11-7-21-14-28-23Zm62 36-24-35c-1-1-2-2-4-1v4l22 34-15-8h-1l-40-56a133 133 0 0 1 2-15l23 33a3 3 0 0 0 4 1c1-1 2-3 1-4l-27-37 4-15 65 95-10 4Zm15-6-68-99c5-15 12-28 21-41h1c21-12 42-21 65-28l72 42c-12 31-21 60-27 90-20 14-42 26-64 36Zm261-149c11 14 19 30 25 47l-19 3-72-63c6-10 10-22 13-33 20 11 39 27 53 46Zm-162-71c35-2 70 5 101 20l-1 2c-3 12-8 24-13 35l-1 1c-34 10-61 20-86 30h-1l-70-41v-2l23-35v-2c16-4 32-7 48-8Zm-118 304-4-3c0-22 2-43 7-65 30-11 58-25 85-44 28 23 58 43 87 61v1c0 31-4 62-14 92-67 12-132-14-161-42Zm189 44 17-6 3 8-20-2Zm53-27c-3-8-7-17-12-25-3-4-8-10-15-10-6-1-12 4-14 10-2 5-2 10-1 15l4 22c-11 4-22 8-32 10 8-29 12-59 12-89a858 858 0 0 0 69-28c8 4 15 8 21 14l-5 6c-15 23-23 50-27 75Zm52-89h-6l-1-1c-8-11-15-22-21-34l3-13 28 50-3-2Zm75 87 14 12-7 5-19-14 12-3Zm11-2c4-1 10 0 11 3l-4 7-11-9 4-1Zm-42 12 12-5c8 4 15 9 22 16l-10 6-24-17ZM1597 148c-23-6-47-8-71-7 9-6 18-12 25-19 6-6 8-11 6-17-2-7-10-10-21-9-10 1-21 4-30 7l13-19c5-8 6-15 2-20-4-7-14-7-25-1-16 9-30 21-43 35 5-16 9-32 11-49V34c28-55 21-129-19-181-38-50-103-78-170-74-46 2-90 20-123 50-35 31-57 74-61 119a188 188 0 0 0 60 152 199 199 0 0 0 159 45c-4 1-7 3-11 6a5 5 0 0 0 5 7c20-12 46-16 69-9a5 5 0 0 0 6-6 140 140 0 0 1-12-45c0-3-1-7 1-10 0-3 3-5 5-5s4 3 7 7c8 12 13 26 16 43 1 2 3 4 5 3 2 0 4-1 4-4 4-30 11-64 30-93l5-6a4 4 0 0 0 2-2c2-1 5-2 7-1 2 0 5 3 5 6 2 4 1 8 1 12-3 27-12 54-26 79a5 5 0 0 0 8 5c16-25 39-46 64-61 5-3 11-4 13-2 1 2 0 6-3 10-8 14-18 26-30 36l-20 14a5 5 0 0 0 5 8l20-14 4-3 24 17-6 4-3 2a5 5 0 0 0 2 9c30-4 59-2 88 5 2 0 5-1 5-4 1-2-1-5-3-5ZM1467 1l-9-14c-1-2-2-2-4-1l-1 4 11 18-4 12-30-55 2-9 14 23a3 3 0 0 0 5-3l-17-27 10-30 22-4c7 29 8 58 1 86Zm-28 22c-7-7-14-12-22-16l4-14a347 347 0 0 0 18 30Zm-339-44v-17l28 40c-10-7-20-15-28-23Zm62 35-24-35h-4l-1 3 23 34v1l-16-8-40-57a133 133 0 0 1 2-14l23 33a3 3 0 0 0 4 0c1-1 2-2 1-4l-27-37 4-14 64 95-9 3Zm15-6-68-99c5-14 12-28 20-40l2-1c20-12 42-21 64-28l73 43c-12 31-21 59-27 89-20 14-42 27-64 36Zm261-149c11 14 19 30 25 47l-19 3-72-62c6-11 10-22 12-34 21 12 39 27 54 46Zm-162-71c35-2 70 5 100 21l-1 1c-2 13-7 24-12 35l-1 1c-34 11-62 20-87 30l-70-41v-2l23-35v-1c16-5 32-8 48-9ZM1157 93l-3-4c0-21 2-43 7-64 30-11 58-26 84-45 29 24 59 44 88 62 0 31-5 62-14 92-68 12-132-14-162-41Zm190 44 17-7 3 8c-7-1-14-2-20-1Zm53-27-13-25c-2-5-7-11-14-11-6 0-12 4-14 10-2 5-2 10-1 15l3 22c-10 5-21 8-32 11 9-29 13-59 13-90a858 858 0 0 0 69-28c8 4 14 9 20 15l-4 5c-15 24-23 50-27 76Zm51-89-5-1-1-1-22-34 4-12 28 49-4-1Zm75 86 15 12-7 6c-6-6-12-11-19-15l11-3Zm11-2c5 0 11 0 11 3 1 2-1 6-3 7l-12-9 4-1Zm-41 12 12-5c8 5 15 10 21 16l-9 6-24-17ZM1062 274c-3 0-6-2-6-4 0-9-1-19-5-28-4-7-11-14-36-13-2 1-5-1-5-3-1-2 1-4 3-5 21-7 38-23 44-42 1-2 3-3 6-3 2 0 4 2 4 4 3 17 21 31 40 32 3 1 4 2 5 4 0 2-1 4-3 5-23 8-40 28-42 49 0 3-3 4-5 4Zm-28-53c13 2 21 8 26 18l4 8c6-11 16-21 28-28-13-5-24-14-31-25-6 11-16 20-27 27ZM1408 2020c-3 0-6-2-6-5 0-9-1-19-5-27s-11-15-36-13c-2 0-5-2-5-4-1-2 1-4 3-5 21-7 38-23 44-41 1-2 3-4 6-4 2 1 4 2 4 4 3 17 21 31 40 33 3 0 5 2 5 4s-1 4-3 4c-23 9-40 28-42 49 0 3-3 5-5 5Zm-28-53c13 2 21 7 26 17l4 8c6-11 16-21 28-28-13-5-24-13-30-25-7 11-16 21-28 28ZM2685 2020c-3 0-5-2-5-5 0-9-1-19-6-27-4-8-11-15-35-13-3 0-5-2-5-4-1-2 0-4 3-5 21-7 37-23 44-41 0-2 3-4 5-4 3 1 5 2 5 4 3 17 20 31 40 33 2 0 4 2 5 4 0 2-1 4-4 4-22 9-39 28-41 49-1 3-3 5-6 5Zm-27-53c12 2 21 7 26 17l3 8c7-11 17-21 29-28-14-5-25-13-31-25-6 11-16 21-27 28ZM3699 742c-3 0-5-2-5-4-1-9-2-19-6-28-4-7-11-14-35-13-3 1-5-1-6-3 0-2 1-4 3-5 21-7 38-23 44-42 1-2 3-3 6-3 2 0 4 2 5 4 2 17 20 31 39 32 3 1 5 2 5 4s-1 4-3 5c-23 8-40 28-42 49 0 2-2 4-5 4Zm-28-53c13 2 21 8 26 17l4 9c6-12 16-21 28-28-13-5-24-14-30-25-7 11-16 20-28 27ZM2733 124c-15-2-31-6-45-12-2-1-4-3-3-5 0-3 3-5 5-4 14 6 29 10 44 13 4 1 3 8-1 8Zm179-17-18 7-18 5-38 5c-25 1-51 0-76-2-5 0-5 7 0 8a691 691 0 0 0 116-3l19-5 18-7c5-2 2-10-3-8Zm-190 79-1-1a73 73 0 0 1-5-5c0-1 0 0 0 0v-1l-2-1-1-4-1-1a26 26 0 0 1-1-4v-5c0-3-3-6-5-5-3 0-6 2-6 5a33 33 0 0 0 16 30l6 1 4-2v-4l-4-3Zm21 11-1-1-1-1-3-2h-4l-3 3 1 5 2 2 2 2 1 1 2 1h5l3-2c1-1 2-3 1-5s-3-2-5-3Zm254-72c-1 15-11 30-26 38l-20 8-12 4c-8 3-18 9-22 18-3 8 0 18 7 23 6 5 16 6 23 2 4-3 7-6 7-10 1-4-1-7-4-9l-5 1-2 2a4 4 0 1 1-8-2 14 14 0 0 1 19-9c6 3 10 11 9 18-1 6-5 12-11 16-5 3-10 4-16 4s-13-2-18-6c-6-5-9-12-10-19-7 10-14 19-23 26l-19 13c-13 8-24 15-31 26-12 21-3 48 12 65 16 18 41 29 63 38a4 4 0 0 1 1 6v56c0 3-2 5-4 5h-100l-103 1c-2 0-4-2-4-4l-1-60c0-2 2-4 4-4h1c15-8 57-37 66-50 15-21 9-52-11-68-7-5-16-9-25-13-8-2-15-5-22-10-12-7-23-17-30-31l-1 3a33 33 0 0 1-31 23l-9-1c-8-4-13-13-11-21 1-5 4-9 9-11 4-1 9-1 12 1a4 4 0 1 1-4 7h-5c-2 1-4 3-4 5-1 4 2 9 6 11 5 2 10 1 16-1 6-4 11-9 13-15s0-14-4-18c-6-6-16-7-26-7l-18-2c-19-4-34-23-35-43 0-20 15-39 35-44 15-4 32 2 43 13a932 932 0 0 1 3-26v-4c3-31 94-36 147-33 26 1 112 6 112 33l1 25c12-7 27-14 42-9s26 22 24 39Zm-326 48a199 199 0 0 1-4-61c-8-13-25-20-40-17-16 4-28 20-28 36s13 31 28 35l16 1c10 1 20 1 28 6Zm49 199h10l-3-4-7 4Zm11-7 5 7h9l-9-11-5 4Zm-7 60 31-1 31-1c3-1 4-6 0-6h-62c-5 0-5 8 0 8Zm78-1 4 1h6l3-1 2-4-2-4-3-1h-6l-4 2-1 1v2l1 4Zm-43-52-13-17-6 3 11 14h8Zm157-216c3-16 5-32 6-49h-1a365 365 0 0 0 1-24l-4 2c-22 12-75 19-126 19a249 249 0 0 1-113-20 532 532 0 0 0-4 30c-1 15-1 29 1 44 5 30 19 54 40 66 6 4 13 7 21 9 9 4 19 8 28 15 23 17 29 54 12 79-4 6-15 16-27 25l16 20h122c-17-8-34-18-48-33-17-18-27-50-12-74 8-13 21-21 33-29l18-12c19-15 32-39 37-68Zm54-62c-13-4-29 4-40 12a392 392 0 0 1-10 70c5-4 11-7 16-9l12-4c7-2 13-4 19-8 12-6 21-18 22-31s-7-26-19-30ZM-99 361c-16-1-31-5-46-11-2-1-4-3-3-6 1-2 4-4 6-3 14 6 29 10 44 13 4 1 3 8-1 7Zm179-17-18 7-19 5c-12 3-25 4-37 5-26 2-51 0-77-1-5 0-4 7 0 7a691 691 0 0 0 117-3l19-5 18-7c4-2 1-9-3-8Zm-190 79-1-1h-1a73 73 0 0 1-4-4l-1-1-1-2-2-3v-2a26 26 0 0 1-1-3l-1-1v-5c0-2-2-5-5-5s-5 2-5 5a33 33 0 0 0 16 30l6 2 3-2v-5l-3-3Zm21 11h-2v-1h-1l-3-3h-2l-2 1-2 3v4l2 2 2 2 2 1 2 1h5l2-1c2-2 2-4 1-6l-5-3Zm254-71c-1 15-11 29-26 37-7 4-14 6-21 8l-11 4c-8 3-19 9-22 19-3 8 0 17 6 23 7 5 16 6 24 1 3-2 6-6 7-10 0-3-2-7-5-8h-4l-3 3a4 4 0 1 1-8-2c1-4 4-7 7-9 4-2 8-2 12 0 6 3 10 10 9 18-1 6-5 12-11 15-4 3-10 5-15 5-7 0-13-3-18-7-6-4-10-12-11-19-6 11-14 20-23 27l-19 13c-12 7-23 14-30 26-13 20-4 48 11 64 17 19 41 29 63 38a4 4 0 0 1 2 7v56c0 2-2 4-4 4l-101 1-102 1h-1c-2 0-4-2-4-5v-59c0-2 1-4 4-4v-1c15-8 58-36 67-50 14-20 9-52-11-67-8-6-16-9-26-13l-22-10c-12-7-22-18-30-31v3a33 33 0 0 1-31 23l-10-2c-8-4-13-13-11-21 1-4 5-8 10-10 4-2 8-2 12 1a4 4 0 1 1-5 7h-4c-3 0-4 2-5 4-1 4 2 9 7 11 4 2 10 2 15-1 7-3 12-9 13-15 2-6 1-13-3-18-7-6-16-6-27-7l-17-1c-20-5-35-23-35-44 0-20 14-39 34-43 15-4 32 1 43 13a932 932 0 0 1 4-27v-4c2-30 93-35 147-33 26 1 111 6 112 33v26c12-8 28-14 43-9s25 21 24 39Zm-327 48-3-14c-2-16-2-31-1-47-8-13-25-21-40-17-16 4-28 19-28 35 1 16 13 32 29 35l16 2c9 0 19 1 27 6Zm49 199 11-1-4-4-7 5Zm12-8 5 7h9l-9-10-5 3Zm-7 60h30l31-2c4 0 4-5 0-5l-31-1-30 1c-5 0-5 8 0 7Zm78-1 3 2h6l3-1 3-4-3-4-3-1h-6l-3 1-1 2-1 2 2 3Zm-43-52-14-17-5 4 11 13h8ZM84 393c3-15 4-32 5-48v-1a365 365 0 0 0 1-24l-4 3c-22 12-75 18-127 18a249 249 0 0 1-113-19 532 532 0 0 0-3 30c-2 14-2 29 1 43 4 30 19 54 40 67l20 9c10 4 20 7 28 14 24 18 30 55 13 79-5 7-16 16-28 25l16 20H55c-17-8-34-18-47-32-17-19-27-51-13-75 8-13 21-21 34-29l18-12c18-15 31-39 37-68Zm54-61c-14-5-29 3-40 11a392 392 0 0 1-10 70c5-4 11-7 16-9l12-4 19-7c12-7 20-19 21-31 1-13-7-26-18-30ZM1762 2182c-16-2-31-5-45-11-3-1-4-3-4-6 1-2 4-4 6-3 14 6 29 10 44 13 4 0 3 7-1 7Zm179-17-18 7-18 5-38 5c-26 2-51 0-77-1-4-1-4 7 0 7a691 691 0 0 0 117-3l19-5 18-7c4-2 2-9-3-8Zm-190 79-1-1a73 73 0 0 1-5-4l-1-1-1-2-2-4v-1a26 26 0 0 1-1-4v-5c0-3-3-5-6-5s-5 2-5 5a33 33 0 0 0 16 30c2 1 4 2 6 1 1 0 3 0 3-2v-4l-3-3Zm21 11-2-1v-1l-4-2h-2l-2 1c-1 0-2 1-2 3v4l2 2 3 2 1 1 2 1h5l3-1v-6l-4-3Zm254-72c-1 16-11 30-26 38-7 4-14 6-21 8l-11 4c-8 3-19 9-22 19-3 8 0 17 6 22 7 6 17 6 24 2 4-2 6-6 7-10 0-3-1-7-4-8h-5l-2 2a4 4 0 1 1-9-2c1-3 4-6 7-8 4-2 8-2 12 0 7 3 10 10 9 18-1 6-5 11-11 15-4 3-10 4-15 4-6 0-13-2-18-6-6-5-10-12-11-19-6 10-14 20-23 27l-19 13c-12 7-23 14-30 25-12 21-4 48 11 65 17 18 42 29 63 38a4 4 0 0 1 2 6v57c0 2-2 4-4 4l-101 1h-102c-3 0-5-1-5-4v-59c0-3 2-4 4-5h1c14-8 57-37 66-50 14-21 9-52-11-67-7-6-16-10-26-13l-22-10c-12-7-22-18-30-31v3a33 33 0 0 1-31 23l-10-2c-8-4-13-13-11-21 1-5 5-9 10-11 4-1 9-1 12 2a4 4 0 1 1-5 7l-4-1c-2 1-4 3-4 5-1 4 1 9 6 11 4 2 10 1 15-1 7-3 12-9 14-15 1-6 0-13-4-18-6-6-16-6-27-7l-17-1c-20-5-35-23-35-44 0-20 15-39 34-44 16-3 33 2 44 14a932 932 0 0 1 3-27v-4c2-31 93-35 147-33 26 1 111 6 112 33v25c12-7 28-13 43-9 15 6 25 22 24 39Zm-327 49-3-15c-2-15-2-31-1-46-7-13-25-21-40-17-15 3-28 19-27 35 0 16 12 32 28 35l16 2c9 0 19 0 27 6Zm49 198h11l-4-4-6 4Zm12-7 5 7h9l-9-10-5 3Zm-7 60h31l30-2c4 0 4-5 0-6h-61c-5 0-5 8 0 8Zm78-1 4 2h4l2-1h3l2-4-2-4-3-1h-6l-4 1-1 2v2l1 3Zm-43-52-14-17-5 4 11 13h8Zm157-216c3-15 5-32 5-49a365 365 0 0 0 1-24l-4 3c-22 11-75 18-126 18a249 249 0 0 1-114-20 532 532 0 0 0-3 31c-1 14-1 29 1 43 4 30 19 54 40 66l20 10c10 3 20 7 28 14 24 18 30 55 13 79-4 7-15 16-27 25l15 20h122c-17-8-34-18-47-32-17-19-27-51-12-75 7-13 20-21 33-29l18-12c18-15 32-39 37-68Zm54-61c-14-5-29 3-40 11a392 392 0 0 1-10 70c5-4 11-7 16-9l12-4 19-7c12-7 20-19 22-31 1-13-7-27-19-30ZM2548 1006c0-2 3-4 5-3a377 377 0 0 1 42 19c2 1 2 3 2 5-1 2-3 3-5 2l-21-10-20-8c-2-1-4-3-3-5Zm57-15 12 17h5c2-1 2-3 1-5-2-6-7-12-11-17l-12-16c-2-2-5-1-6 0-2 2-2 4 0 6l11 15Zm353 475-3-6-5-12c-1-2-4-3-7-2-2 2-2 5-1 7a5962 5962 0 0 1 7 18l3 6c1 1 4 2 6 1s3-3 2-5l-2-7Zm-307-488c3 5 10 2 8-3l-11-34c-1-3-4-5-6-4-3 1-5 4-4 6 3 12 7 24 13 35Zm118 455c7-12 16-24 26-34 10-11 21-19 33-28 4-4 1-11-5-8a171 171 0 0 0-64 65c-3 6 7 12 10 5Zm78-79h5l7-2a44 44 0 0 0 6-2l3-2 1-5-4-4h-6l-3 1-7 2-4 3v5l2 4Zm256 175a5 5 0 0 1-7-2l-87-148c-5-9-11-20-12-32 0-11 4-21 8-31 3-7 6-14 7-21l-12 9c-22 15-46 28-69 40-28 15-56 30-81 48l-10 8c22 13 49 16 73 7a5 5 0 1 1 4 10 96 96 0 0 1-37 5c24 60 40 124 45 188 1 3-1 5-4 6h-1c-2 0-4-2-5-5-5-65-21-129-47-190-13-2-25-7-36-14-52 45-89 103-126 160a5 5 0 0 1-8-6 726 726 0 0 1 146-177c26-19 54-34 82-49a757 757 0 0 0 88-55c5-4 8-9 11-13 7-10 10-20 9-30a242 242 0 0 1-28 21l-4-2c-2-2-1-5 1-7 10-7 20-14 28-23l1-1 2-2c7-9 12-17 13-26 3-10 1-21-4-30a223 223 0 0 1-44 44 5 5 0 0 1-3-9c16-13 29-28 41-44 4-6 8-12 9-18 0-7-1-14-6-21l-14-16c-2 10-7 19-14 28a164 164 0 0 1-46 35 5 5 0 0 1-3-9c15-9 31-19 42-32 9-12 16-29 10-46-7-19-27-28-48-36-9-4-19-8-29-7-7 2-14 7-15 13l15 5c14 6 32 16 44 24h1a5 5 0 1 1 5 9l-86 44h-2a5 5 0 0 1-4-8h-2l-33-3c6 7 11 15 14 24 4 12 3 28-8 37-5 4-12 6-19 6h-5c-2 10-9 21-20 26-5 2-11 3-16 3h-2c-2 8-7 15-15 20a36 36 0 0 1-26 6l-4-1c-2 10-11 16-20 17h-3c-7 0-14-2-21-6-13-7-23-18-32-28-8 21-12 44-12 67l1 4c0 6 0 13-2 19-2 13-9 24-18 35a2953 2953 0 0 1-123 151l-3-2c-3-1-3-5-1-7 40-48 82-97 119-148 8-10 15-20 17-31l1-17-1-4c0-26 5-51 15-75-6-6-11-12-15-20-6-11-8-23-6-33 3-12 12-22 23-24-1-10 1-19 5-26 7-11 19-17 31-16l1-5c3-10 12-18 23-23 9-4 19-5 28-6l9-11c17-17 38-27 59-29 23-3 46 6 60 23l1 3 17-1c1-11 12-20 24-21 12-2 24 3 34 6 21 9 45 20 54 43 2 5 2 11 2 17l5 1c6 6 12 12 17 20 4 6 8 16 6 27 0 6-3 11-6 16 8 13 11 28 8 42-2 10-7 20-15 29 4 14 1 30-8 44l-12 15c1 11-3 22-8 33-3 9-7 18-7 27 1 9 6 18 11 26l87 149c1 2 0 5-2 7Zm-223-484-4 11 11-5-7-6Zm-24-11-11 42 5-4 13-36-7-2Zm2 33 2-1 8-5 7-20-7-3-10 29Zm-107 170c-7-4-12-9-17-14-13-13-24-26-35-40a108 108 0 0 1-18-35c-7 2-13 9-15 17s0 17 5 27c4 8 11 16 18 23 10 10 20 21 32 28 7 4 13 6 18 5s10-4 11-9l1-2Zm44-22-10-4c-10-5-19-13-29-24-12-16-22-35-31-52-5-9-9-18-10-28-8-1-17 4-22 11-5 8-6 19-2 30 3 11 10 20 16 29 10 14 22 27 34 39 7 7 15 15 25 17 6 1 13-1 19-5 5-3 8-8 10-13Zm38-30-4-2c-31-12-55-45-64-88-2-6-3-14-2-21-7 0-14 2-20 4-9 4-15 10-18 17-3 11 2 23 9 35 9 17 18 35 30 51 8 10 17 17 25 21 10 5 21 5 30 1 8-3 13-11 14-18Zm33-38c-3-10-11-18-18-26l-1-4c-4-1-8-2-11-5-6-4-9-11-8-17s5-10 9-14l13-48h-14c-19 1-37 11-53 26-3 3-7 7-8 12-3 7-2 15 0 22 8 40 30 70 58 81l2 1h2c2-1 3 0 4 1 7 2 14 2 20-3 7-6 8-17 5-26Zm68-83c-10-5-25-9-40-5-10 3-20 9-28 15l-18 12c-5 3-9 6-10 10 0 3 2 7 4 8 3 3 8 4 12 5 19 4 39 4 59 3l2 1 57-29c-11-8-26-15-38-20Zm43 376-4-1c-2 0-3 1-3 2l-1 4 3 19c1 2 3 3 5 3 2-1 4-2 4-5l-2-19c0-2-1-3-2-3ZM664 1421c0-3-1-5-4-5a380 380 0 0 0-46 4c-2 1-3 2-3 4s2 4 4 4l22-2 23-2c2 0 4-1 4-3Zm-49-33-17 11c-1 1-4 0-5-2-1-1 0-3 1-5l16-12 18-10c2-2 4 0 5 2s0 4-2 5l-16 11Zm-493 326 4-5 9-9c2-2 6-2 7 0 2 2 1 5-1 7l-8 9-4 5-5 5c-2 1-5 1-6-1-2-1-2-4-1-6l5-5Zm454-354c-3 3-9-2-6-6l23-29c1-2 4-2 6-1 3 2 3 5 2 7-8 10-15 20-25 29Zm-266 387c-2-14-6-28-12-41s-13-25-21-37c-4-5 2-10 7-6 10 11 18 24 25 38 6 14 10 29 13 44 1 8-11 10-12 2Zm-46-101-5-1-6-5-2-2-3-2-1-2v-6l5-2 2 1h2l2 1 3 2 5 5c2 1 3 2 3 4l-1 4-4 3Zm-300 77 2 2 5-1 132-110c8-6 18-14 22-25 5-11 4-22 3-32l1-22 9 12c15 21 34 42 51 61 21 23 42 47 59 73l7 11c-25 5-52-2-71-18-2-2-6-2-7 0-2 2-2 6 0 7a96 96 0 0 0 33 18c-43 48-79 102-107 161a5 5 0 0 0 9 5c28-60 65-115 109-163 13 2 27 2 40-1 33 60 48 127 63 193a5 5 0 0 0 10-2 726 726 0 0 0-77-216c-18-27-40-51-60-74a758 758 0 0 1-65-83l-6-16c-2-11-1-21 2-30a243 243 0 0 0 19 29 5 5 0 0 0 6-8c-6-10-13-20-18-31l-1-1-1-3c-4-10-5-20-4-29 2-10 7-20 15-27a223 223 0 0 0 26 57l5-1c2-1 3-4 1-7-10-17-18-35-23-55-2-7-4-14-2-20 1-6 5-12 12-17 5-5 12-8 18-11-1 10 0 21 4 31a164 164 0 0 0 31 49c2 1 4 0 5-1 2-1 3-5 1-7-11-13-22-28-28-44-5-14-6-33 6-47 13-15 35-17 57-17 10-1 21-1 30 4 6 3 11 11 10 17l-16-1c-16 1-35 4-50 8l-1-1a5 5 0 1 0-7 7l66 71a5 5 0 0 0 7 0c2-2 2-4 1-6l2 1c10 4 21 7 32 9-8 4-16 10-22 17-7 10-12 26-4 38 3 5 9 10 15 12l5 1c-2 11 2 23 10 31 4 4 9 7 14 9l2 1c-1 8 1 17 7 24a36 36 0 0 0 22 14l5 1c-2 10 5 18 12 22l4 2c6 2 13 2 21 1 15-3 28-9 40-15 0 22-4 45-12 66l-1 4c-3 6-5 12-6 19-2 13 1 25 5 38 18 61 40 122 62 181a5 5 0 0 0 9-3c-21-59-43-120-61-181-4-12-7-23-5-34l5-17 1-4c9-23 13-49 13-74 7-4 14-8 20-14 10-9 16-19 17-30 2-12-4-24-13-30 4-9 5-18 3-26-2-12-12-22-23-25l1-5c0-11-5-22-14-30-8-7-16-11-25-15 0-5-2-10-4-14a98 98 0 0 0-45-47 70 70 0 0 0-65 1l-2 2-15-6c2-11-5-23-15-28-11-6-24-6-35-5-23 0-49 3-65 21l-8 15h-5c-8 4-15 7-23 13-5 4-13 12-15 23v18c-11 8-20 22-22 36-1 10 0 21 5 33-9 11-11 27-7 44 1 6 3 12 6 17-5 11-5 23-4 34 0 10 0 20-3 28-4 9-12 15-19 21l-132 110c-2 2-3 5-1 7Zm375-379v12l-9-8 9-4Zm25-2-3 44-4-6 1-38h6Zm-13 30-1-1-5-7v-21l7-1-1 30Zm44 197c7-1 14-5 21-8 15-7 31-16 45-25a108 108 0 0 0 30-26c6 4 9 12 8 20s-6 17-14 23c-7 7-16 12-25 16-13 7-26 13-39 16-8 1-14 1-19-2-4-2-8-7-7-12v-2Zm-34-36h10c11-1 23-6 35-13 18-11 33-25 48-38 7-7 15-14 19-23 8 2 15 9 16 18 2 9-1 20-8 29s-16 15-25 21c-14 10-29 18-45 25-9 5-19 9-29 8-7-1-12-5-16-11-4-5-6-11-5-16Zm-26-41h4c34-1 68-24 91-61 3-6 7-13 8-20 7 3 13 7 18 11 7 7 11 15 11 22-1 12-10 21-20 30-14 13-29 27-46 37-11 7-21 11-31 12-11 1-21-2-28-9-6-6-9-15-7-22Zm-18-46c6-9 16-14 26-19l2-3 12-1c7-3 12-8 13-14s0-11-3-16l3-50 15 5c16 8 30 23 40 42 2 4 4 9 4 14 0 8-4 15-8 22-21 34-52 55-82 56h-3l-1-1h-5c-6-1-13-3-17-9-5-9-2-20 4-26Zm-36-103c11 0 27 1 40 10 8 6 15 15 21 23l13 18c3 4 6 9 5 13 0 3-3 5-6 6l-13 1c-19-3-38-10-57-18h-2l-43-47c13-3 29-5 42-6Zm-168 339 4 1 2 3-1 4c-3 6-5 11-9 16-1 2-4 3-6 2l-2-6 9-18 3-2ZM1309 1477c-25-5-51 0-73 4a5283 5283 0 0 0-76-33c-1-3-4-4-7-3l-4 1-4-2-18-7a6 6 0 0 0-7-8l-7 3a5373 5373 0 0 1-24-11c-1-3-4-6-7-5l-6 1a2651 2651 0 0 1-22-10c9-4 17-11 24-21 4-6 6-12 5-17 0-8-5-15-13-17-9-2-16 5-18 7l-14 16c-1-8-3-17-11-24-5-4-13-5-19-3-6 1-10 5-12 10-2 6-1 12 0 16l-19-19c-4-3-8-8-14-9-9-2-16 4-21 7-6 4-12 9-17 16-6 8-8 17-6 25 3 10 12 15 19 20 5 3 9 6 12 10l-3 6-6 13c-22 12-52 7-72-3-7-4-14-10-21-16-6-6-13-12-21-17a63 63 0 0 0-66 3c-18 13-27 36-22 54l-2 3c-20 43-24 95-12 141-3 17-7 35-3 54 4 21 18 38 35 44 16 6 33 2 48-2h1c60-14 122-19 182-24l76-7 37-4c67-10 146-28 212-70 33-20 49-43 48-67-2-28-28-49-52-55Zm-3 12c6 1 11 3 16 6a82 82 0 0 1-54 30c-3 0-5 3-5 6 1 3 4 6 7 5h1c24-3 46-16 61-35 7 6 12 12 15 20-2 0-3 1-3 3-12 25-64 56-145 76l-1-3c-9-13-21-25-32-36l10-10h3a337 337 0 0 0 65-5c3 0 5-3 5-7-1-3-4-5-7-4-17 3-35 5-53 5l5-5 5-4c13-10 27-22 36-38h1c22-5 47-10 70-4Zm-157 122-1-15 11 13-10 2Zm16-6-15-17 3-8 24 25-12 2v-2Zm20-2-28-30a77 77 0 0 1 4-6c12 10 22 22 32 34l-8 2Zm7-81-5 4c-13 10-26 21-36 35a68 68 0 0 0-14 51 556 556 0 0 1-168 4c-11-27-31-52-58-72l97-81 7-8 20 8-4 12a6 6 0 1 0 12 3l3-10 25 10-4 11a6 6 0 0 0 7 7c2 0 4-1 4-4l4-9 18 7 8 4-2 6a6 6 0 1 0 12 2l1-4a81 81 0 0 0 33 4c16-2 32-12 36-28l36 15c-8 13-21 24-32 33Zm-248-118c-6-4-12-8-14-13-1-5 0-11 4-16s9-9 15-12c4-3 8-6 12-6l7 6 21 21c-4 1-8 2-12 5-9 6-16 15-21 24l-12-9Zm131 25 26 11c-10 7-18 17-25 28l-26-11 7-12c5-8 11-13 18-16Zm72 62c-8 0-16-2-24-4 6-12 15-22 26-28l28 11c-3 13-17 20-30 21Zm-11-37c-10 7-19 17-24 29l-8-3-17-8c7-11 16-20 27-27l22 9Zm-89-16-7 14-21-8c8-11 18-20 30-26l13 5c-6 4-11 9-15 15Zm-64-39c5-4 12-5 17-5l6 2a17 17 0 0 1 8 6l2 2a1699 1699 0 0 0 19 8c-9 6-17 14-24 23l-9-4-38-9c5-9 11-18 19-23Zm76-31c4-3 7-5 9-4 2 0 4 3 4 5 0 3-1 7-4 11-8 11-19 18-31 19 5-12 13-22 22-31Zm-52-6c1-2 2-3 4-3h1c3-1 6 0 8 1 6 5 6 15 6 19l-1 12v4l-3-1-5-5c-4-5-7-11-9-17-2-5-2-8-1-10Zm-57 88 1-1a297 297 0 0 0 8-16l24 6 22 8-2 5-2 2-100 83a246 246 0 0 0-75-35 169 169 0 0 1-12-20l28 7c24 5 70 8 97-22l11-17Zm-186 37-6-14h7l8 15-9-1Zm18 3-9-16 9 1 11 18-11-3Zm21 5-11-18 12 3 11 19-12-4Zm-35-75c15-11 37-12 53-3l20 15c7 7 14 14 23 18a100 100 0 0 0 66 9c-23 26-64 23-86 19l-28-7c-21-5-43-11-66-10-4-14 3-31 18-41Zm-21 53h3l6 12-13-3 4-9Zm-8 20c43 9 88 18 128 38 41 20 73 49 89 84-18-3-34-7-49-13-53-19-112-9-151-3l-19 3h-1c-9-35-8-74 3-109Zm323 168-75 7a2085 2085 0 0 0-183 25h-2c-14 3-28 7-41 2-11-3-20-13-25-25l61-15a6 6 0 1 0-3-11l-61 14c-2-15 0-30 3-45l3 1 19-3c40-7 95-16 145 2a484 484 0 0 0 216 14c80-11 184-39 224-82-9 17-22 29-33 37-19 13-40 22-59 29-49 18-100 30-152 36l-15 1c-40 3-77 6-114 0l-34-8-39-8c-21-3-34 0-58 4l-16 3c-3 1-5 4-5 7 1 3 4 6 7 5l16-3c24-5 35-7 55-4l37 8 35 7c32 6 64 4 98 2h-4Zm-306-88c-4 1-5-5-1-6s5 6 1 6Zm-12-22a43 43 0 0 1 2-27c2-3 6-5 10-4 3 2 5 6 4 10l-2 4v2a36 36 0 0 0-1 11c1 3 2 5 0 8l-3 4h-5c-2-1-4-2-4-4l-1-4Zm304-47c-9-4-20 1-25 9l-5 10-3-5c-5-6-12-10-19-11-9 0-17 5-19 13-2 7 1 14 4 19 9 15 19 29 30 41a6 6 0 0 0 5 2l4-2c12-12 22-26 31-42 3-4 6-10 6-16 1-8-3-15-9-18Zm-3 17c0 4-2 8-4 12-7 12-16 24-25 34-10-10-18-22-25-34-2-3-4-7-3-10 1-2 3-4 6-4h1c4 0 8 2 10 6 4 4 6 9 8 14 0 2 2 3 5 3 2 1 4-1 5-3l4-7c2-5 3-9 6-12 2-4 7-7 10-5 1 1 3 3 2 6ZM2837 2109c25-6 51-1 73 4a5283 5283 0 0 1 76-34c1-3 4-4 7-3l4 2 4-2 18-7a6 6 0 0 1 7-9l7 3a5373 5373 0 0 0 24-11c1-3 4-5 7-5l6 1a2651 2651 0 0 0 22-10c-9-4-17-11-24-20-4-7-6-12-5-18 0-8 5-15 13-16 9-2 16 5 18 7l14 15c1-7 3-17 11-23 5-4 13-6 19-4s10 5 12 10c2 6 1 12-1 17l20-20c4-3 8-7 14-9 9-1 16 4 21 7 6 5 12 9 17 16 6 8 8 17 6 25-3 10-12 16-19 20-5 3-9 6-12 10v1l3 6 6 12c22 12 52 8 72-3 7-4 14-10 21-16 6-6 13-12 21-17 20-11 47-10 66 4 18 13 27 35 22 54l2 2c20 44 24 95 12 141 3 17 7 36 3 54-4 22-18 39-35 45-16 5-33 1-48-2l-1-1c-60-13-122-19-182-24l-76-7-37-4c-67-9-146-27-212-69-33-20-49-44-48-68 2-28 28-49 52-54Zm3 11c-6 1-11 3-17 6 14 17 34 28 54 30 4 0 6 4 6 7-1 3-4 5-7 5h-1c-24-4-46-17-61-35-7 5-12 12-15 19l3 3c12 25 64 56 145 76l1-3c9-12 20-24 32-35l-10-11-3 1a337 337 0 0 1-65-6c-3 0-5-3-5-6 1-3 4-6 7-5 17 3 35 5 53 5l-5-5-5-3c-13-11-27-23-36-39h-1c-22-4-47-9-70-4Zm157 122 1-14-11 12 10 2Zm-16-6 15-17-3-8-24 25 12 3v-3Zm-20-1v-1l28-29a77 77 0 0 0-4-7c-12 11-22 22-32 35l8 2Zm-7-81 5 3c13 11 26 21 36 35 12 17 17 35 14 52l46 6c33 3 78 4 122-2 11-28 31-53 58-73l-97-81-7-8-20 8 3 12a6 6 0 1 1-11 4l-3-11-25 11 4 10a6 6 0 0 1-7 8c-2 0-4-2-4-4l-4-10-18 8-8 3 2 6a6 6 0 1 1-12 3l-1-5a81 81 0 0 1-33 4c-16-2-32-11-36-27l-36 14c8 14 21 24 32 34Zm248-118c6-5 12-8 14-14 1-5 0-10-4-15s-9-9-15-13c-4-3-8-6-12-5-2 0-5 3-7 5l-21 21 12 5c9 6 16 15 21 24l12-8Zm-131 24-27 11c11 8 19 17 25 28l27-11-7-12c-5-7-11-13-18-16Zm-72 62c8 1 16-1 24-4-6-12-15-22-26-28h-1l-27 11c3 13 17 21 30 21Zm11-37c10 7 19 18 24 29l8-3 17-7c-7-11-16-21-27-28l-22 9Zm89-15 7 14 20-9c-7-11-17-20-29-25l-13 5c6 4 11 9 15 15Zm64-40c-5-3-12-5-17-4l-6 1a17 17 0 0 0-8 7l-2 2a1699 1699 0 0 1-19 8c9 6 17 13 24 22l9-3 38-10c-5-9-11-18-19-23Zm-76-31c-4-3-7-5-9-4-2 0-4 3-4 6s1 6 4 10c8 12 19 19 31 19-5-11-13-22-22-31Zm52-6-4-3h-1c-3 0-6 0-8 2-6 5-6 14-6 18l1 12v5l3-1 5-6c4-5 7-11 9-17 2-4 2-7 1-10Zm57 89-1-2a297 297 0 0 1-8-16l-24 6-22 8 2 5 2 2 100 83a246 246 0 0 1 75-34l13-20h-1l-28 6c-24 5-70 8-97-21l-11-17Zm186 36 6-14-7 1-8 15 9-2Zm-18 4 9-17-9 2-11 17 11-2Zm-21 5 11-18-12 2-11 19 12-3Zm35-76a51 51 0 0 0-53-3c-7 4-13 10-20 16s-14 13-23 18a100 100 0 0 1-66 9c23 25 64 22 86 18l28-6c21-6 43-11 66-10 4-14-3-32-18-42Zm21 54-3-1-6 12 13-3-4-8Zm8 20c-43 8-88 18-128 37-42 20-73 50-89 84 18-3 34-7 49-12 53-20 112-10 151-4l19 3 1 1c9-36 8-74-3-109Zm-323 168 74 7a2085 2085 0 0 1 184 24h2c14 4 28 7 41 3 11-4 20-14 25-26l-61-15a6 6 0 1 1 3-11l61 15c2-15 0-31-3-45h-3l-19-3c-40-7-95-16-145 2a484 484 0 0 1-216 14c-80-11-184-38-224-81 9 16 22 28 33 36 19 14 40 22 59 29 49 18 100 30 152 36l15 1c40 3 77 6 114 0l34-7 39-8c21-3 34-1 58 4l16 3c3 0 5 3 4 7 0 3-3 5-6 4l-16-3c-24-4-35-7-55-4l-37 8-35 8c-32 5-64 4-98 1l4 1Zm306-89c4 1 5-5 1-6s-5 6-1 6Zm12-21a43 43 0 0 0-2-27c-2-4-6-6-10-4-3 1-5 6-4 9l2 4v2a36 36 0 0 1 1 11c-1 3-2 6 0 8 0 2 1 3 3 4h5c2-1 4-2 4-4l1-3Zm-304-48c9-4 19 2 25 9l5 10 3-5c5-6 12-10 19-10 8-1 17 4 19 12 2 7-1 14-4 19-9 15-19 29-30 41a6 6 0 0 1-5 2l-4-2c-12-12-22-26-31-41-3-5-6-10-6-16-1-8 3-16 9-18Zm3 18c0 4 2 7 4 11 7 12 16 24 25 35 10-11 18-22 25-34 2-4 4-8 3-11-1-2-3-3-6-4h-1c-4 1-8 3-11 7-3 3-5 8-7 13 0 2-2 4-5 4-2 0-4-1-5-4l-4-7c-2-5-3-9-6-12-2-3-7-6-10-5-1 1-3 4-2 7ZM3218 201c25-6 51-1 74 4a5283 5283 0 0 1 75-33c1-3 5-5 8-4l3 2 4-2 18-7a6 6 0 0 1 8-8l6 3a5373 5373 0 0 0 25-12c0-3 3-5 6-5l7 1a2651 2651 0 0 0 22-10c-10-4-18-11-24-20-5-6-6-12-6-18 0-8 6-15 13-16 9-2 16 5 19 7l13 15c1-7 3-17 11-23 6-4 13-6 19-4s10 5 12 10c3 6 1 12 0 17l20-20c3-3 7-7 13-8 9-2 16 3 21 7 6 4 13 9 17 15 6 8 8 18 6 26-3 9-12 15-19 20l-12 9v1l3 6 6 12c22 12 52 8 72-2 7-4 14-10 21-17 6-6 13-12 21-16 21-12 47-10 66 3 18 13 27 35 22 54 1 1 2 1 2 3 20 43 24 94 12 140 4 18 7 36 3 54-4 22-18 39-35 45-16 5-33 1-48-2h-1c-60-14-122-19-182-24l-75-7-38-5c-67-9-145-27-212-69-33-20-49-44-48-68 2-28 28-48 52-54Zm3 11-16 7c13 16 33 27 54 30 3 0 5 3 5 6-1 3-4 5-7 5h-1c-24-3-46-16-61-35-6 5-12 12-15 19l4 3c11 26 63 56 144 77l1-3c10-13 21-25 33-36l-11-11-3 1a337 337 0 0 1-65-5c-3-1-5-4-5-7 1-3 4-5 7-5 18 4 36 5 54 5l-6-4-5-4c-13-10-27-23-36-38h-1c-22-5-47-10-70-5Zm158 122v-14l-11 12 11 2Zm-16-5 14-18-3-7-24 25 12 2 1-2Zm-21-2 29-30a77 77 0 0 0-5-7c-12 11-22 22-32 35l8 2Zm-7-81 5 4c13 10 26 21 36 34 12 17 17 36 14 52l46 6c33 3 79 4 122-2 11-27 31-52 58-73l-97-81c-3-3-6-5-7-8l-20 9 4 12a6 6 0 1 1-11 3l-4-11-25 11 4 11a6 6 0 0 1-7 7c-2 0-4-2-4-4l-4-10-18 8-8 3 2 7a6 6 0 1 1-11 2l-2-5a81 81 0 0 1-33 5c-15-3-31-12-36-28l-36 15c9 13 21 24 32 33Zm248-118c6-4 12-8 14-14 1-4 0-10-4-15s-9-9-15-13c-4-3-8-6-12-5l-7 6-21 20 12 5c9 6 16 15 21 24l12-8Zm-131 25-26 10c10 8 18 18 25 28l26-11-7-11c-5-8-11-13-18-16Zm-72 61c8 1 16-1 24-4-5-11-15-21-26-27l-28 11c3 12 17 20 30 20Zm11-37c10 8 19 18 24 29l8-3 17-7c-7-11-16-21-27-27l-22 8Zm89-15 8 14 20-9c-7-11-18-20-30-25l-12 5c5 4 10 9 14 15Zm64-40c-5-3-11-4-17-4l-5 1a17 17 0 0 0-9 7l-2 2a1699 1699 0 0 1-19 8c9 6 18 14 24 23l9-4 38-9c-5-10-11-18-19-24Zm-76-30c-4-4-7-5-9-5-2 1-4 3-4 6s2 6 4 10c8 12 20 19 31 19-5-11-13-22-22-30Zm52-6c0-2-2-3-4-4h-1l-7 2c-7 5-7 14-7 18l1 13v4l3-1 5-5 9-18c2-4 2-7 1-9Zm57 88-1-1a297 297 0 0 1-8-17l-24 6-21 9 1 4 3 2 99 83a246 246 0 0 1 75-34l13-20-29 7c-24 4-70 8-97-22l-11-17Zm186 36 7-13h-7l-9 15 9-2Zm-18 4 9-16-9 1-11 18 11-3Zm-20 5 11-18-13 3-11 19 13-4Zm34-76a51 51 0 0 0-53-2c-7 4-13 9-19 15-8 7-15 13-24 18a100 100 0 0 1-66 9c23 26 64 22 86 18l28-6c21-5 43-11 66-10 4-14-3-31-18-42Zm22 54h-4l-6 11 13-2-3-9Zm7 20c-43 9-87 18-127 37-42 21-74 50-90 84 18-3 35-7 50-12 52-19 111-10 150-3l19 3h1c9-35 8-74-3-109Zm-323 168 75 7a2085 2085 0 0 1 183 24l2 1c14 3 28 6 41 2 11-4 20-13 25-26l-61-15a6 6 0 1 1 3-11l61 15c3-15 0-30-3-45h-3l-19-3c-40-6-94-15-144 3a484 484 0 0 1-216 13c-80-11-185-38-224-81 8 16 22 29 32 36 19 14 41 23 59 30 49 17 101 30 152 36l15 1c40 3 78 6 114 0l35-8 38-8c21-3 34-1 58 4l16 3c3 1 5 4 5 7-1 3-4 5-7 5l-16-4c-24-4-35-6-55-3-12 1-25 4-37 7l-35 8c-32 5-64 4-98 2h4Zm306-88c4 0 5-6 1-6s-5 5-1 6Zm13-22a43 43 0 0 0-3-27c-2-4-6-5-10-4-3 1-5 6-4 9l2 4v1l1 1a36 36 0 0 1 0 12c-1 2-2 5 0 8l3 3h6l4-4 1-3Zm-304-47c8-5 19 1 24 9l5 9 4-4c4-7 11-10 18-11 9-1 17 5 19 13 2 7-1 13-4 19-9 14-19 28-30 41a6 6 0 0 1-5 1l-3-1c-13-13-23-27-32-42-3-5-5-10-6-16 0-8 3-15 10-18Zm2 17c0 4 2 8 4 11 7 13 16 24 26 35 9-10 17-22 24-34 2-4 4-7 3-10-1-2-3-4-6-4h-1c-4 0-7 2-10 6l-7 13c-1 3-3 4-6 4-2 0-4-1-5-3l-3-8-6-12c-3-3-7-6-10-5-2 1-4 4-3 7ZM2674 711c0-3-3-5-5-5-10 0-20-4-28-12-7-9-11-19-10-29a6 6 0 0 0-11-2c-8 25-27 46-51 57a6 6 0 0 0 2 10c18 3 30 10 35 20 2 4 3 10 1 15l-2 6a6 6 0 0 0 10 5l3-7c10-23 30-42 53-52 3-1 4-4 3-6Zm-57 36-1-2c-4-8-11-17-29-22 15-10 27-23 36-38a52 52 0 0 0 29 29c-14 9-26 20-35 33ZM3289 1598c-1-3-3-4-5-4-9 0-17-4-24-11-6-7-9-16-8-24a5 5 0 0 0-10-2c-6 21-23 39-43 48-2 1-3 3-3 5 0 3 2 4 4 5 15 2 26 8 30 16 2 4 3 9 1 13l-2 6a5 5 0 0 0 9 4l2-7c9-19 26-36 46-44 2-1 3-3 3-5Zm-49 31-1-2c-3-6-10-14-25-19 13-8 23-19 30-32a44 44 0 0 0 25 25c-11 7-21 17-29 28ZM2023 1598c0-3-2-4-5-4-8 0-17-4-23-11-7-7-10-16-9-24a5 5 0 0 0-9-2c-7 21-23 39-44 48-2 1-3 3-2 5 0 3 1 4 4 5 15 2 26 8 30 16 2 4 2 9 1 13l-2 6a5 5 0 0 0 8 4c2-2 2-5 3-7 9-19 26-36 45-44 3-1 4-3 3-5Zm-49 31-1-2c-3-6-9-14-24-19 12-8 23-19 30-32a44 44 0 0 0 25 25c-12 7-22 17-30 28Z"/>
    <path class="m" d="M590 1685c-1-2-3-4-5-4-9 0-17-4-23-11-7-7-10-16-9-24a5 5 0 0 0-9-2c-7 21-23 40-44 49-2 0-3 2-3 5 0 2 2 3 4 4 16 2 26 8 31 16 1 4 2 9 1 13l-3 6a5 5 0 0 0 9 4l3-6c9-20 25-36 45-45 2-1 3-3 3-5Zm-49 31-1-2c-3-6-10-14-25-19 13-8 23-19 31-32a44 44 0 0 0 25 25c-12 7-22 17-30 28ZM1279 638c-1-2-3-4-5-3-9 0-17-4-24-11-6-7-9-16-8-24a5 5 0 0 0-9-3c-7 22-24 40-44 49-2 1-3 3-3 5s2 4 4 4c16 3 26 9 30 17 2 4 3 8 1 13l-2 5a5 5 0 0 0 9 4l2-6c9-19 26-36 46-44 2-1 3-3 3-6Zm-49 32-1-2c-3-7-10-14-25-19 13-8 23-19 31-33a44 44 0 0 0 24 26c-11 7-21 17-29 28ZM23 1332c-1-2-3-4-5-4-9 0-17-3-23-11-7-7-10-16-9-24a5 5 0 0 0-9-2c-7 21-23 40-44 49-2 0-3 3-3 5s2 3 4 4c16 2 26 8 31 16 1 4 2 9 1 13l-3 6a5 5 0 0 0 9 4l3-6c9-20 25-36 45-45 2-1 3-3 3-5Zm-49 31-1-2c-3-6-10-14-25-19 13-8 24-19 31-32a44 44 0 0 0 25 25c-12 7-22 17-30 28ZM3169 1052l-3-4c-15-6-26-22-26-39 0-2-1-4-3-4s-4 1-4 3c-4 21-19 39-39 47l-2 3 2 4c20 8 31 23 30 43 0 2 2 4 4 4s3-1 4-3c4-21 17-39 35-51l2-3Zm-39 36c-3-10-10-21-25-29 13-8 24-20 30-33 4 11 12 21 22 27-12 9-21 21-27 35ZM3377 1826c0-2-2-4-4-5a69 69 0 0 1-43-65c0-3-2-6-5-6-4-1-7 2-7 5-6 34-31 64-63 77a6 6 0 0 0 0 12c33 13 50 38 49 70 0 3 2 6 5 7h1c3 0 6-2 6-5 8-34 29-65 58-84 2-1 3-3 3-6Zm-64 60c-5-17-17-35-41-48 22-12 40-32 50-55 6 19 20 35 36 45-19 15-35 35-45 58ZM2177 1433l-4-5c-23-9-40-34-39-59 0-3-2-6-5-6s-6 2-6 5c-5 31-28 58-57 70-2 1-4 3-4 5s2 4 4 5c29 12 45 35 44 64 0 3 2 6 5 6h1c3 0 5-1 5-4 7-31 27-59 53-76 2-1 3-3 3-5Zm-59 54c-4-15-15-32-37-44 20-11 36-29 46-49 6 17 17 31 33 40-18 14-33 32-42 53ZM871 1191c0-2-1-4-3-5-22-8-37-32-37-55 0-3-2-5-4-6-3 0-6 2-6 5-5 29-26 55-54 65-2 1-3 3-3 5 0 3 1 5 3 5 28 12 43 33 42 61 0 2 2 5 5 5s5-1 5-4c7-29 25-55 50-71l2-5Zm-54 51c-5-14-15-30-35-41 18-11 34-27 42-47 6 16 17 30 31 38-16 13-30 30-38 50ZM464 2013c0-2-1-3-3-4-17-6-29-25-28-43a4 4 0 0 0-9-1c-4 23-20 43-42 52a4 4 0 0 0 0 7c22 9 34 26 33 48 0 2 1 4 4 4 2 0 4-1 4-3 5-23 19-43 39-56l2-4Zm-43 40c-3-11-11-23-28-32 15-8 27-22 34-37 4 13 13 23 24 30-13 10-23 24-30 39ZM2369 1685l40-22c7 10 10 22 6 34-4 14-13 25-22 36-30 33-64 62-102 86-10 7-21 13-32 15-10 2-21 1-30-4 9-16 20-32 31-47a74 74 0 0 0 20 9 5 5 0 0 0 1-10l-14-7 20-23c6 6 13 10 20 13a5 5 0 0 0 7-2c1-3 0-6-3-7-6-3-12-6-17-11a403 403 0 0 1 27-25c6 6 13 11 22 15a5 5 0 0 0 3-10c-6-3-12-6-17-11l31-23a55 55 0 0 0 23 13 5 5 0 0 0 1-10c-6-2-11-5-15-9Zm-3-42c-16 1-31 8-45 16-41 23-75 59-97 102-6 10-10 22-11 34-1 10 2 20 8 28 9-16 20-31 31-46-5-4-9-9-13-15-1-2-1-5 2-7 2-1 5-1 7 2l11 12 21-24-8-11a5 5 0 0 1 9-5l6 9a408 408 0 0 1 27-25l-8-13c-1-3 0-6 2-7 3-1 6 0 7 2l7 11 31-23-8-16a5 5 0 0 1 10-3l7 14c13-9 27-16 40-23-9-9-23-13-36-12Zm69 211c-2-1-4-1-6 1-15 13-30 26-47 36-6 4 0 14 6 10 18-10 35-24 48-41 1-2 1-5-1-6Zm28-28-1-1-2-1h-3l-1 1-2 1-2 1-3 4-2 4 1 2 1 1 3 2 4-2 3-3 3-3v-1l1-1v-4Zm59-26v1a370 370 0 0 1-149 142l-1-1a313 313 0 0 1-127 34c-27 0-51-6-67-17-2 0-4-1-5-3v-1l-5-4c-17-17-18-59-2-109a347 347 0 0 1 19-48 369 369 0 0 1 237-197c52-13 98-9 118 10l7 8 2 4c9 13 13 32 13 53-1 39-16 85-40 128Zm12-128 14 33 2-15-1-1-9-28-6 11Zm-9 14 17 42 4-13-16-36-5 7Zm27-14c0-13-2-24-5-34l-4 15 8 23 1-4Zm-157-55c16 5 31 12 45 22a425 425 0 0 1 93-24c-10-9-29-15-53-15s-54 5-85 17Zm-201 183c6 11 14 22 22 32l5-9a28 28 0 0 0 8 7l-6 10c19 22 41 40 66 54 88-53 165-124 223-207 14-20 26-40 26-62-30 4-59 11-88 21 19 16 35 35 46 57a5 5 0 0 1-9 4c-11-22-28-42-48-57l-30 13-1-2-5-6 26-12c-16-9-33-16-50-20a366 366 0 0 0-185 177Zm85 100c-23-13-43-30-61-50a414 414 0 0 0-35 97c33-13 65-29 96-47Zm-105 42c8-35 20-69 37-100l-23-31c-25 57-30 111-14 131Zm36 19-7-12-12 6c5 2 12 5 19 6Zm19 4-14-21-6 3 9 16 11 2Zm20 0-20-27-9 4 17 23h12Zm262-168c-1-22-5-44-14-65a5 5 0 0 1 10-4c7 17 11 35 13 53 8-14 14-29 19-44l-18-45a749 749 0 0 1-222 208v5a5 5 0 0 1-7 2l-3-1-54 29 21 30c30-1 65-10 100-26-14-4-29-9-43-16a5 5 0 1 1 5-9c17 8 35 14 53 18a350 350 0 0 0 140-135ZM2233-128l41-22c6 10 10 22 6 34-4 14-13 25-23 36-29 33-64 62-102 86-10 7-20 13-32 15-10 2-21 1-30-4 10-16 20-32 32-47a74 74 0 0 0 19 9 5 5 0 0 0 2-10l-15-7 20-23c6 6 13 10 21 13a5 5 0 0 0 6-2c2-3 0-6-2-7-7-3-13-6-18-11a403 403 0 0 1 27-25c6 6 14 11 22 15a5 5 0 0 0 4-10c-7-3-13-6-18-11l32-23a55 55 0 0 0 22 13 5 5 0 0 0 1-10l-15-9Zm-3-42c-15 1-30 8-44 16-41 23-76 59-98 102-5 10-10 22-11 34 0 10 2 21 8 28 10-16 20-31 32-46-5-4-10-9-13-15-2-2-1-5 1-7 2-1 5-1 7 2l11 12 21-24-8-11a5 5 0 0 1 9-5l6 9a408 408 0 0 1 27-25l-8-13c-1-3 0-6 3-7 2-1 5 0 6 2l7 11 32-23c-4-5-6-10-8-16a5 5 0 0 1 10-3c1 5 3 10 6 14 13-9 27-16 41-23-10-9-24-12-37-12Zm69 211c-2-1-4-1-6 1-14 13-29 26-46 36-7 4-1 14 6 10 18-10 35-24 48-41 1-2 0-4-2-6Zm29-28-1-1-2-1h-4l-1 1-2 1-1 2-4 3-1 4v2l1 1 4 2 4-2 3-3 2-3 1-1v-1l1-1v-3Zm58-26v1a370 370 0 0 1-149 142 313 313 0 0 1-128 33c-27 0-50-6-66-17h-1c-2 0-4-1-4-3h-1l-4-5c-17-17-18-59-3-109a347 347 0 0 1 19-48h1a369 369 0 0 1 236-197c53-13 98-9 118 11l7 7c2 1 3 2 3 4 8 13 12 32 12 53 0 40-15 85-40 128Zm12-128 14 33 3-15-1-1-10-28-6 11Zm-8 14 17 42 3-12-16-37-4 7Zm26-14c0-13-1-24-4-33l-5 14 9 23v-4Zm-157-55c16 5 32 12 46 22a425 425 0 0 1 93-24c-10-9-29-15-54-15s-53 5-85 17ZM2058-13l22 32 5-9a28 28 0 0 0 8 7l-6 11c19 21 42 39 67 53 87-53 164-124 223-207 13-19 25-40 26-62-30 4-60 11-89 21 20 16 35 35 46 57a5 5 0 0 1-9 4c-11-22-28-42-48-57l-29 13-2-2-5-6 26-11c-15-10-32-17-50-21a366 366 0 0 0-185 177Zm86 100c-23-13-44-30-62-50a414 414 0 0 0-35 97c33-13 66-29 97-47Zm-106 42c8-35 21-68 37-100l-22-31c-25 57-31 111-15 131Zm36 20-7-12-12 5 19 7Zm20 3-15-21-6 3 9 16 12 2Zm20 1-20-28-9 4 17 23 12 1Zm262-169c-1-22-6-44-14-65a5 5 0 0 1 9-4c7 17 12 35 14 53 7-14 14-29 19-44l-19-45a749 749 0 0 1-222 208v5a5 5 0 0 1-6 2l-3-1-55 29 22 30c30-1 64-10 100-26-15-4-29-9-43-16a5 5 0 1 1 4-9c17 8 35 14 53 18a350 350 0 0 0 141-135ZM353 925c-13-8-27-16-41-22-6 10-10 21-6 34 5 13 14 25 23 35 30 34 64 63 102 87 10 6 20 12 32 15 10 2 21 1 30-4-10-17-20-32-32-47a74 74 0 0 1-19 8 5 5 0 0 1-2-10c6-1 10-3 15-6l-20-23c-6 5-13 10-21 13a5 5 0 0 1-6-3c-1-2 0-5 2-6 7-3 13-7 18-11a403 403 0 0 0-27-25c-6 6-14 11-22 14a5 5 0 0 1-4-9c7-3 13-7 18-12l-31-23a55 55 0 0 1-23 13 5 5 0 0 1-1-10c5-2 10-4 15-8Zm3-42c16 1 30 7 44 15 42 24 76 60 98 102 5 11 10 22 11 34 0 10-2 21-8 29-10-16-20-32-32-46 5-5 10-10 13-15 2-2 1-6-1-7-2-2-5-1-7 1l-11 13-21-24 8-12a5 5 0 0 0-9-4l-6 8a408 408 0 0 0-27-25l8-13c1-2 0-5-3-6-2-2-5-1-6 2l-7 11-32-23c4-5 7-11 8-16a5 5 0 0 0-9-3l-7 13c-13-8-27-16-41-22 10-9 24-13 37-12Zm-69 211c2-2 4-1 6 0 15 14 29 27 46 37 7 4 1 14-6 10-18-11-35-24-47-41-2-2-1-5 1-6Zm-28-28v-2l2-1 4 1h1l2 1 1 2 4 3 2 4-1 2-1 2-4 1-3-1-4-4-2-2-1-1v-1l-1-1v-2l1-1Zm-59-27v1a370 370 0 0 0 149 142 313 313 0 0 0 128 33c27 0 50-5 67-16 2 0 4-1 5-3v-1l4-4c17-17 18-59 3-110a347 347 0 0 0-19-47l-1-1a369 369 0 0 0-236-196c-53-13-98-9-118 10l-7 8c-1 0-3 2-3 4-8 13-12 31-12 53 1 39 15 84 40 127Zm-12-127-14 33-3-15 1-2 10-27 6 11Zm9 13v1l-18 41-3-12 16-37 5 7Zm-27-13c0-13 1-24 5-34 0 5 2 10 4 14l-9 24v-4Zm157-56c-16 5-32 13-46 23a425 425 0 0 0-92-25c10-9 29-14 53-14s53 5 85 16Zm201 183c-6 12-14 22-22 33l-5-9a28 28 0 0 1-8 7l6 10c-19 21-42 40-66 54a739 739 0 0 1-224-208c-13-19-25-39-26-61 30 4 60 11 89 21-19 15-35 35-46 57a5 5 0 0 0 9 4c11-22 28-42 48-57l29 13 2-2c1-3 3-5 5-6l-26-12c15-10 32-17 50-21a366 366 0 0 1 185 177Zm-85 101c22-14 43-31 61-50a414 414 0 0 1 35 96c-33-13-66-29-96-46Zm105 41c-8-34-21-68-37-100 8-9 16-20 22-31 25 58 31 111 15 131Zm-36 20 7-12 12 5-19 7Zm-20 3 15-20 6 3-9 16-12 1Zm-19 1 19-28 9 4-17 24h-11Zm-263-168c1-23 6-45 14-65a5 5 0 0 0-9-4c-7 17-12 35-14 53-7-15-14-30-19-45l19-45v1c58 83 135 154 222 208v5a5 5 0 0 0 7 2l2-2c18 11 36 21 55 30l-22 30c-30-2-64-10-100-26 15-4 30-9 43-16a5 5 0 1 0-4-9c-17 8-35 14-53 17a350 350 0 0 1-141-134ZM663 98l-2-2-157-33c-2-1-4 1-4 3a2653 2653 0 0 0-54 242c13 23 25 45 35 67a72 72 0 0 0-51 83 71 71 0 0 0 57 57c28 7 57-3 75-25 15-19 19-43 10-67-4-13-12-24-22-33l64-50 1-3a7089 7089 0 0 1 48-239Zm-49-3-3 15-7-18 10 3Zm-16-4c5 8 8 17 10 27l1 1-2 11-17-41 8 2ZM467 330l-13-25c14-82 32-161 52-234l22 5c-23 84-42 168-61 254Zm98 96c7 21 4 42-9 59a65 65 0 0 1-70 22c-26-7-45-27-48-50s4-45 20-60a66 66 0 0 1 107 29Zm-22-41c-7-5-15-9-24-11-10-2-21-2-31 0l-6-16c21-93 43-185 73-276a7434 7434 0 0 0 13 3l17 37a2 2 0 0 0 3 1c1 0 2-2 1-3l-15-34 11 2 21 50-3 11-8-16-3-1-1 4 10 18 1 1-44 218-15 12Zm65-50-20 15c14-84 32-167 52-250l15 3c-18 82-32 150-47 232Zm-51 125a53 53 0 0 1-63 36c-20-4-40-19-43-40a4 4 0 0 1 7-1c3 19 26 34 46 35s40-13 45-32c5-20-4-42-22-51a4 4 0 0 1 3-7c21 11 33 37 27 60Zm-45-64c0 2-2 3-4 3-12-2-25 2-35 10-9 8-15 20-16 32a4 4 0 1 1-7 0c0-15 7-29 18-38s27-14 41-12c2 1 3 3 3 5ZM3650 1282l-2-2-157-33c-2 0-4 1-4 3a2653 2653 0 0 0-54 242c14 23 25 45 35 68a72 72 0 0 0-51 82 71 71 0 0 0 57 57c29 7 57-3 75-25 15-19 19-43 11-67-5-13-13-24-23-33l64-50 2-2a7089 7089 0 0 1 47-240Zm-48-3-4 16c-1-7-4-13-7-19l11 3Zm-17-4c5 8 8 17 10 27l2 1-2 11-18-40 8 1Zm-130 239-14-25c15-82 32-161 52-234l23 5c-23 84-43 168-61 254Zm97 96c8 21 4 42-9 59a65 65 0 0 1-70 22c-26-7-44-27-48-50-3-23 4-45 20-60a66 66 0 0 1 107 29Zm-21-41c-8-5-16-9-24-11-11-2-21-2-31 0l-7-16c22-92 43-185 73-276a7434 7434 0 0 0 13 3l17 37a2 2 0 0 0 3 2c1-1 2-2 1-4l-15-34 11 2 21 50-2 11-8-15c-1-2-2-2-4-1l-1 3 10 18 1 1-43 218-15 12Zm64-50-20 15c14-84 32-167 52-250l15 3c-18 83-32 150-47 232Zm-51 125a53 53 0 0 1-63 36c-20-4-40-19-43-40a4 4 0 0 1 8-1c2 19 26 34 45 35 20 1 40-13 45-32 6-20-4-42-22-51a4 4 0 0 1 4-7c21 11 32 37 26 60Zm-45-64c0 2-2 3-4 3-12-1-25 2-34 10-10 8-16 20-16 32a4 4 0 1 1-8 0c1-14 8-29 19-38s26-14 40-12c2 1 4 3 3 5ZM420-96l-3-1-160 10c-2 0-4 2-4 4a2650 2650 0 0 0 14 248c20 18 36 36 52 55a72 72 0 0 0-26 93 71 71 0 0 0 70 40c29-2 54-19 65-45 10-22 7-46-8-67-8-11-18-20-30-26l48-65v-3a7125 7125 0 0 1-18-243Zm-48 9 1 17-12-16 11-1Zm-17 2c7 6 12 14 17 22l2 1v11l-27-34h8Zm-61 265-20-20c-8-84-12-164-13-240l23-1c0 87 4 173 10 261Zm120 66c13 18 15 39 7 59a65 65 0 0 1-61 40c-27 0-50-14-60-35-9-22-8-44 3-63a66 66 0 0 1 111-1Zm-32-34c-8-3-17-4-26-4-11 1-21 4-30 8l-11-13c-4-95-8-190-4-286l13-1 1 1 26 31a2 2 0 0 0 3 0v-3l-24-29 11-1 34 43 1 11-12-13a2 2 0 1 0-4 3l15 15 1 1 17 222-11 15Zm48-66-15 21c-9-85-14-170-17-255l15-1c5 84 10 153 17 235Zm-15 135a53 53 0 0 1-50 52c-21 1-45-8-53-27a4 4 0 0 1 7-4c8 18 34 26 54 22 19-4 35-23 34-43 0-20-15-39-35-43a4 4 0 0 1 2-8c23 5 41 27 41 50Zm-60-50c0 2-1 4-3 4-13 2-24 9-31 19s-9 24-6 36c0 2-1 4-3 4h-1c-2 1-4-1-4-3-3-14 0-29 8-41s21-20 35-22c3-1 5 1 5 3Z"/>
  </g>
  <g id="e">
    <path class="i" d="m2332 1303-16-12a915 915 0 0 0-29-19l44-4a1140 1140 0 0 0 50-4l3-3-1-1 1-3-2-2-1-3-2 1h-2 2-10l-10 1-1 1-2-1h2-7 2l2 1h-5 1v-1a213 213 0 0 1-5 1 414 414 0 0 0-40 3v-1l-12 2h1l-1 1h-2l1-1h1-2l-1 1h1-3 2l-8 1a272 272 0 0 0-5 0l-5 4a64 64 0 0 1-2 5v1l-1 1v2l1 3 2 2a216 216 0 0 0 29 18 268 268 0 0 1 19 13l8 7 5 5 4 5v1l2 1 3-1 1-3c0-3 0-7-2-10-1-4-4-7-6-9-1 0-1 0 0 0v1l1 1-1-1-2-2h1l-1-1h-1l1 1-1-1h-1s0-1 0 0v-1Zm36-49c0 1 0 1 0 0Zm-3 0Zm-2 0h1v1l-2-1-1 1-3-1h5Zm-8 0 1 1-1-1Zm-6 1h1-1Zm-30 1h1-2l-2 1 1-1a7 7 0 0 0 2 0Zm-4 1h-2 2Zm-2 0Zm-8 1h-1c-1 0 0 0 0 0h1Zm-6 0h2-2Zm-1 1h-2 2Zm-10 2h-1 1Zm-5 0v1-1Zm5 13h-1 1Zm1 1h-1l1-1 1 1h-1Zm1 1 1-1-1 1Zm5 2 1 1 1 1-2-2Zm18 12-1-1 1 1Zm3 2h1v1l-1-1Zm3 2c0-1 0-1 0 0Zm3 2 2 1h-1 1Zm13 11Zm1 1h-1 1Zm0 0h-1 1Zm1 1h-1 1v1l1 1-1-1v-1Zm1 2h1v1l-1-1Zm37-59h-1 1Zm-2 0h1-1Zm-1 0h-2 2Zm-7 0h5-5Zm-3 0h3-3Zm0 0h-1 1Zm-3 0h2-2Zm-3 0h2-2Zm0 0h-1 1Zm-3 0h-2 4-2Zm-3 0h-2 2Zm-4 1v-1 1Zm-2 0 2-1-2 1Zm-2-1 2 1-2-1Zm-1 1-1-1-1 1h2Zm0 1c0-1 0-1 0 0Zm-5 0h-4 9-5Zm2-1h-1 1Zm-2 0h-1 1Zm-2 0h-2 2Zm-3 0h-1 2-1Zm-1 0c0 1 0 1 0 0Zm-1 1h3-3Zm-1-1Zm-1 0Zm-1 1v-1 1Zm1 1 2-1-7 1h5Zm-3-2 1 1v-1h-1Zm-1 1c0-1 0-1 0 0h1c-1 0-1 0 0 0v-1l-1 1Zm-1 0c-1 0-1 0 0 0Zm-1 0h-1 1Zm-2 0h1-1Zm-4 0s-1 0 0 0Zm-2 1v-1 1Zm-2-1-1 1 2-1h-1Zm-1 1h-1 1v-1 1Zm-1 0h-1 1Zm-1 0h-1 1Zm-1 0h-1 1Zm-2 0h1-1Zm-3 1c0-1 0 0 0 0h1l1-1-2 1Zm-2 0h2-3 1Zm-1 0Zm-1 0v1-1h1-1Zm-5 1h3-3Zm0 0c-1 0-1 0 0 0Zm-2 0h-2l2 1 1-1h-1Zm-3 1h1-1Zm0 0c-1 0-1 0 0 0Zm-2 0-1 1 1-1Zm-2 0 1 1-1-1Zm-1 1h-1 1Zm-3 0-3 1a42 42 0 0 0 5-1h-2Zm-3 1c0 1 0 0 0 0Zm-1 0c0 1 0 1 0 0h1-1Zm21 20h1l-1-1-1-1 1 2Zm1 0h1-1Zm4 2 2 1-2-1-3-1 3 1Zm3 2Zm1 1 1-1h-1v1Zm2 1h1-1l-1-1 1 1Zm1 1h1l-1-1v1Zm1 0h1-1Zm2 2 1-1-1 1Zm2 1-1-1 1 1Zm0 0h1-1Zm2 1c0-1 0-1 0 0Zm2 0-1 1h1v-1Zm1 2v-1l-1 1h1Zm1 0 1 1h1-1l-1-1Zm2 2Zm2 1h-1 1Zm0 1Zm1 0v1-1Zm1 1c1 0 1 0 0 0s-1 0 0 0Zm3 3 2 1-4-3 2 2Zm4 4h1-1Zm249 19c-78 0-165-14-260-42l-2-3c1-2 2-3 4-2 95 28 181 42 258 42 23 0 45-1 66-4 81-9 148-38 194-82 67-66 87-163 51-262-44-123-185-266-449-302l-2-3a750 750 0 0 1 172 40c49 19 93 43 133 71 73 53 125 119 151 192 18 49 23 99 14 145-9 47-32 89-66 123-47 45-115 74-198 83-21 3-43 4-66 4Z" style="mask:url(#f)"/>
    <path class="i" d="M1609 1178c1 0 4 0 4 2v1l2 7 2 9a179 179 0 0 1-2 37v19l-1 8v10l-1 8v10l-2 10-1 9-3 7c-1 4-3 5-7 6h-2l-5 1-4 1h-11l-7-4-3-3-2-1-2-2-1-4-1-5v-9l1-5v-1c0-2 2-3 4-3l2-1c1 0 0 0 0 0l1-1h1l1-1 4-1 2 1v3l1 1v16l1 2h10l2-2h1l1-4 1-2v-20l1-10v-18l1-5v-4l1-9v-10l1-10v-10l-1-6-2-5v-3l-1-3v-2l2-1h3l3-1 3-1 2-1h1ZM1649 1177l2 2h1v2l-1 2v20l-1 4v34l1 4v22l1 2v22l1 3 2 4 1 3 2 3 3 3 2 2h1l3 2h4l4-1 2-1 2-3 1-4v-4l1-4v-12l1-10v-35l1-2v-5l1-5v-19l1-9v-9l1-5 2-4 1-1h13l3 1-1 2v1l-2 6v13l-1 7v27l-1 9v9l-1 4v13l-1 4v13l-1 10-1 5v6l-1 2-1 5-5 6-3 3-4 1-5 1h-11l-3-1-7-1-5-4-5-5-4-5-2-3-1-3-1-2-1-2v-3l-1-8v-7l-1-5-1-6v-20l-1-3v-11l-1-8 1-4 1-8v-19l1-9v-7l-1-1v-2c1-1 1-2 2-1h5l4-1h4ZM1736 1181l1 1 1 3v2l1 1-1 4 1 4v44l-1 2v3l1 4-1 5v11l-1 7v35l2-1h2l9 1 4 1 4 1 4 1 3 2 1 1v3l-1 4v2l-1 1-1 3c0 2-2 2-3 2l-1-1h-2v-1h-3l-3-1h-4l-1-1h-3l-5-1h-3l-1-1h-2l-6 1h-2l-1-1-3-1v-4l-1-5v-17l1-6v-11l1-9v-19l1-9v-21a178 178 0 0 1 0-19v-3l-1-7v-6l1-2h4l3-1 7-1ZM1824 1180h10l4 1v4l-1 3v2l-2 3v2l-2 8-5 18-2 4a59 59 0 0 1-3 9v1l-1 1-1 3v1l-1 2-1 5-1 4v4l-4 9v2l-1 1v3h-1l-1 1 1 5v40l2 5-2 2-2-1h-12l-2-2v-18l-1-2v-16l-1-3v-7h-2l-1-2v-1l-1-1v-2l-1-2-1-2v-2l-1-2-2-5-3-9-2-4-1-4-1-4-2-4-2-9-2-5-1-4-1-4-2-4-1-5-1-4-1-2-1-2-1-3v-2l-1-2c-1-1-1-3 1-4h14c2 1 3 3 3 5l1 4 2 4 1 5v4l2 9 4 9 1 5 2 4 2 9 4 8 1 5v3l1 2v-4l1-1v-3l1-2 1-2v-2l1-2 2-7 5-15 2-4 1-5 2-9 2-9 3-7v-3l2-1ZM1924 1175h3l1 1 2 1 4 1h2l6 3 1 2v27l-2 10v9l-2 20v14l-1 9 1 3v24l-1 8v9l1 2v2l1 2c0 2-3 3-4 3h-3l-8 1c-2 0-4 0-4-2v-5l-1-8v-12l1-8 1-13 1-4v-29l1-21v-10l1-10 1-5v-2l1-4-2 2-1 1-1 1-3 5-3 5-2 2-1 1-1 1h-1v1l-1 1c-1 2-5 2-7 1l-2-2-2-3-2-3-1-2c-2-1-1-3 0-4h1l3-3 2-1 1-1 1-1 1-1 3-3 3-4 1-1 1-1 1-1 1-2 1-1 1-1v-1h1l1-2 4-1ZM1990 1178l2 1c6 0 11 1 14 5l1 2 3 3 4 8 3 9v9l-1 9-2 9-4 6-3 6 6 6 4 8 1 9v10l-1 10v9l-3 9-4 8c-3 5-8 9-14 10-6 2-12 1-17-1a27 27 0 0 1-19-20l-1-4a56 56 0 0 1-2-18l1-9 2-8c0-3 2-6 3-8l1-1 1-3 3-5 1-3-7-10v-4l-1-5 1-1v-1c0-6-1-12 1-18v-2l2-6 2-6 7-10 8-3h8Zm-7 75v1h-1l-1 1-2 3-1 1v1l-2 6-1 7c-1 6-2 13-1 19l1 5 1 3 2 5 5 4h1l3 1h7l1-1 1-1h1l1-1v-5l2-4 2-10 1-18c-1-5-2-9-6-13l-6-3h-1l-1-1h-6Zm2-61h-1l-3 5c-2 5-4 9-4 14l-1 9v8l1 3v3h1v1l2 1 3 1 1 1h9v-1h1l2-1 1-1h1l3-5v-6l1-1 1-2v-13l-1-2-2-4-4-6-3-4h-8ZM2097 1236l2 3 1 2v3l-1 6-3 1h-3l-4 1h-30l-7 1h-8l-5 1h-6l-2-2 1-3v-9c-2 0-1-2 0-2h22l9-1h6l13-1h15ZM2136 1178c5 0 10 1 14 5 3 4 5 9 6 14l1 10v9c0 6-2 12-4 18l-4 9-4 8a203 203 0 0 0-14 30v2l-2 4v4l-1 4-1 9v4h7l3 1h12l1 1h2l2 2v2c0-1 0 0 0 0v3l1 1-1 2-3 2-3 1h-4l-3-1h-11l-4-1h-4l-3 1-6 1-4-2v-9l1-3v-3l1-6 1-5 2-12 1-2 1-2 1-2 1-2v-1l1-4c0-3 1-6 3-8v-2l1-3 2-3 5-8 5-8 3-4 1-2v-1l2-6 1-3 1-9-1-10-1-3 1-1v-1l-1-1-1-2v-1l-3-3-1-1-1-1h-4l-2 1c2-1 0 0 0 0h-1l-1 1-1 1-1 4-2 6-1 6v5c0 3-4 4-6 4h-5l-2-2v-2l-1-1v-13l1-5 1-3v-2l3-5 5-3 6-2 4-1h8ZM2196 1175h3l1 1 2 1 4 1h2l6 3 1 2v14l-1 13-1 10v9l-2 20v14l-1 9 1 3v24l-1 8v9l1 2v2l1 2c0 2-3 3-4 3h-3l-9 1c-1 0-3 0-3-2l-1-5v-28l2-13 1-4v-29l1-21v-10l1-10 1-5v-2l1-4-3 2v1l-1 1-3 5-3 5-2 2-1 1-1 1h-1v1l-1 1c-1 2-5 2-7 1l-3-2-1-3-2-3-1-2c-2-1-1-3 0-4h1l3-3 2-1 1-1 1-1v-1l4-3 3-4 1-1v-1l2-1 1-2 1-1 1-1v-1h1l1-2 4-1Z"/>
    <g>
      <path class="m" d="m1473 955 2 1a15 15 0 0 1 0 4v42l1 1v7c0 2-2 2-3 2h-4l-1-1v-4l1-3v-6a82 82 0 0 1 0-9v-18a117 117 0 0 0-1-11v-4h4l1-1ZM1507 955h4l1 1v1l-1 1v5l-1 3v8l-1 1v4l-1 2v15l-1 2v13l-1 1h-5v-1l-1-1v-2l-1-2-2-3-1-3-1-4-1-2v-1l-1-2v-2l-2-3v-2l-1-2v-3l-1-2v5l1 4v7l-1 2 1 2v2l-1 1v11h-7v-2l1-2v-27l1-1v-2l-1-3v-18l1-1h4v3h1v2l1 1 1 2v1l1 2v2l2 3 2 7v4l2 3v3l1 2v1h1v3l1 3 1 1v-16l1-2v-9l1-1v-9l1-2v-3l1-1h1ZM1527 954l6 3v1l1 1 1 1a7 7 0 0 1 1 1v3l1 1v5h-2l-1 1h-2v-2l-1-1v-5l-2-1-1-1-1-1h-2l-1 1v1h-1v1l-1 1v3l1 2v3l2 7 1 1 1 2 2 2 2 3v1h1l1 2 1 3 1 3a18 18 0 0 1 1 3v7l-1 3-2 3h-1l-1 1h-4l-2 1h-2l-1-1-2-1-2-2-1-2-1-3v-4l-1-2v-3l1-1h3l1 1h1l1 1v8l1 2 1 1h2l2-1h1v-1l1-1v-1l-1-5v-2l-1-1v-1l-2-3-1-1-1-2v-1l-1-1v-1l-2-1-2-4-1-2v-1l-1-2-1-4a23 23 0 0 1 0-7l1-4v-2l1-1 1-1v-1h1l1-1 2-1h4ZM1548 954l2 1 1-1 1 1h2l3 1 2 3 1 2 1 4 1 4v3l1 2v9l-1 2v1l-1 2-1 1-2 1h-1l-2 1h-3l-1 1h-2v20h-5l-1-1h-1v-23l1-1-1-1 1-4-1-4v-9l1-1v-7l-1-3v-1h1v-1l1-1h2l1-1h1Zm3 7h-1l-1 1v23l2 1h2l1-1h2l1-1v-11l-1-1v-5l-1-2-1-2-1-1-2-1ZM1569 954h1l2 1h3v35l-1 2 1 5v12a2 2 0 0 1 0 1v1h-7v-25l1-5v-7l-1-3v-16l1-1ZM1588 954l1 1h2a14 14 0 0 1 5 1 8 8 0 0 1 5 3 14 14 0 0 1 3 7v4l1 1v4l-1 1v4l-1 3-2 1v1h-1l-1 1-2 1 1 2h1v1l1 1 1 2 1 3 1 2v2l1 3v4l1 2v2l-1 1h-2l-1 1h-2l-1-1v-4l-1-3v-3l-1-4-1-3-1-2-1-1-1-1-3-1h-1v12l1 3v1s0 1 0 0v6h-5l-2 1v-1h-1l1-1v-3l-1-2v-4l1-3v-43l1-1 1-1h4Zm1 7v8l-1 1v13l1 1h3l1-1 2-1 1-1 1-1h1v-11l-1-4-1-2-3-2h-4ZM1611 954h2l1 1h4v18l-1 2v28l1 6a2 2 0 0 1 0 1l-1 1h-6l-1-1v-5l1-2v-17l1-5-1-3v-15l-1-4v-3l1-1v-1ZM1649 955h4l1 1-1 1v3l-1 3v9l-1 2v4l-1 1v8l-1 2v22h-1v1h-5l-1-1v-1l-1-1v-1l-1-2-1-3-1-3-1-4-1-2v-1l-1-2-1-2-1-3v-2l-1-2v-2l-1-1v-2 33l-1 1h-6v-4l1-3v-34l-1-8v-6l1-1h4l1 1v2h1v2l1 1v2l1 1 1 2v2l1 3 2 7 1 4 1 3 1 3 1 2v1l1 1v2l1 3v1-7l1-1v-11l1-1v-8l1-3v-6l1-2v-3l1-1h1ZM1671 953l3 1 3 1a12 12 0 0 1 3 4v1l1 1v2l1 2v2l-2 1h-4v-1l-1-2v-2l-1-1v-1h-1v-1c0 1 0 0 0 0h-6v1h-1v1l-1 1v5l-1 1v28l1 3v2l1 1v3h1l1 1h2l1-1h2v-1l1-1h1v-3l1-7v-4h-1v-1h-3l-1-1c0 1 0 0 0 0h-1v-5h5l2 1h2l2 1v1l1 3v12l-1 3-1 2-1 2h-1v1l-1 1-2 1-1 1h-8l-2-1-2-1-2-2v-1l-1-3v-3h-1v-4c0 1 0 0 0 0v-2l-1-2v-15l1-1v-13l1-3 1-2 1-1 1-1 1-1 3-2h1l2-1h2ZM1714 955h1v8-1 17l2-1h2l1 1h2l1-1h1l1-2v-20h6l1 2-1 2v4l1 4v11l-1 4v4l-1 3v4a76 76 0 0 0 0 9v3-1 6h-8v-3l1-2v-11l1-3v-7l-1-1h-8v2l-1 2v22l-1 1h-5l-1-2v-13l1-3v-36l1-1 1-1h4ZM1748 955h3v1h1l3 1 2 2 1 3 2 3v3l1 4v32l-1 1v1l-1 1-1 2-1 1-1 1h-1l-1 1h-2l-2 1h-2l-2-1-3-1h-1l-1-1-1-1-1-3-1-1v-4l-1-1v-24h1v-5l1-3v-3l1-1v-2h1l1-3 2-3 2-1h2Zm0 7h-1l-1 1v1l-1 1v4l-1 2v9l-1 7 1 8v7l1 2v1h1v1h1v1h2l2-1h1v-1h1l1-1v-1l1-1v-28l-1-3-1-2v-4l-1-1v-1l-1-1h-1l-1-1v1h-1ZM1773 954l2 1 1-1 1 1h2l3 1 2 3 1 2 1 4 1 4v3l1 2v8l-1 1v3l-2 2-1 1-1 1h-1l-2 1h-3l-2 1h-1l-1 1v1l1 2-1 3v10l1 1h-1l1 1v1h-5l-1-1h-1v-43l1-2-1-2v-7h1v-2h2l2-1h1Zm2 7h-1v6l-1 2v5l1 7v4l1 1h3l1-1h2v-1l1-1v-8l-1-1v-4l-1-3v-2l-1-2-1-1-2-1h-1ZM1812 955h1v5h-6l-1 1h-7v10l1 4v2h8v-1 1h4l1 1v5h-13v11l-1 2v9h5l2 1h2l2-1h3v6h-11l-2 1h-4l-2-1h-1v-1h-1v-5l1-3v-11l1-3v-3l-1-4 1-4-1-7v-4l-1-2v-5l1-3 1-1h18ZM1839 954h1l2 1h3v35l-1 2 1 5v12a2 2 0 0 1 0 1v1h-7v-25l1-5v-7l-1-3v-16l1-1ZM1862 954l6 3 1 1v1l1 1a7 7 0 0 1 1 1v3l1 1v5h-2v1h-3v-2l-1-1v-5l-2-1-1-1-1-1h-2l-1 1v1h-1v2l-1 3 1 2v3l2 7 1 1 1 2 2 2 2 3v1h1l1 2 1 3 1 3a18 18 0 0 1 1 3v7l-1 3-2 3h-1l-1 1h-4l-2 1h-1l-2-1-2-1-2-2-1-2-1-3v-4l-1-2v-3l1-1h4v1h1l1 1v8l1 2 1 1h2l2-1h1v-1l1-1v-1l-1-5v-2l-1-1v-1l-2-3-1-1-1-2v-1l-1-1v-1l-2-1-2-4-1-2v-1l-1-2-1-4a23 23 0 0 1 0-7l1-4v-2l1-1 1-1v-1h1l1-1 2-1h4ZM1900 955h9l2 1c2 0 4 1 5 3l2 6 1 4v12l-1 1v2h-1v1l-1 2-2 1h-2l-2 1h-6v11l1 3v4l1 1v1l-2 2h-5l-1-1v-6l-1-3v-3h1v-23l-1-3v-16l1-1h2Zm3 5 1 2v21h7l1-1v-1l1-1v-13l-1-2-1-3h-1l-1-1h-1l-2-1h-3ZM1937 955h2l1 1v1l1 2v1l1 2v4h1v4h1v2l1 4v3l1 1v7l1 1v10l1 2v7l1 2v2h-3l-1 1h-2l-1-2v-7l-1-2v-5l-1-5v-3h-4l-2-1h-3l-1 3-1 4a33 33 0 0 1-1 5l-1 2v10h-7v-6l1-1v-6l1-1v-3l1-1v-2l1-3v-4l1-3 1-4 2-3 1-8 3-8h1l1-2v-1h3Zm-1 10-1 2v4l-2 6v3l-1 1h1l2 1h4v-2l-1-4v-3l-1-4-1-4v-1 1ZM1960 954l1 1h3a14 14 0 0 1 4 1 8 8 0 0 1 5 3 14 14 0 0 1 3 7v2l1 1v9l-1 2-1 3-1 1-1 1-2 1-1 1h-1l1 2h1l1 1 1 1v2l1 3 1 2v2l1 3v2l1 2v4l-1 1h-1l-2 1h-2v-5h-1v-3l-1-3-1-4-1-3-1-2-1-1-1-1-3-1-1 1v3l1 2v10s0 1 0 0v6h-5l-2 1v-44l1-2v-12l1-1h4Zm1 7v11l-1 2v8l1 1v1h3l1-1 2-1 1-1 1-1h1v-5l1-3-1-3-1-4-1-2-2-2h-5ZM1981 954h6l3 1h7l2 1h7v6l-1 1h-1l-1-1h-3l-4-1v14l1 1-1 1h1l-1 3v25l-1 2v3l1 1v1h-7l-1-1v-3l1-2v-12l1-2v-17l-1-1v-3a32 32 0 0 0 0-3v-8h-9v-6h1ZM2035 955h4l1 1v3l-1 1v3l-1 3v9l-1 1v6l-1 1v15l-1 4v9l-1 1h-5v-1l-1-1v-2l-1-2-1-3-2-3-1-4-1-2v-1l-1-2v-2l-1-3-1-2-1-2v-3l-1-2v5l1 4v14c-1 0 0 0 0 0l-1 4v7h-7v-2l1-2v-16l1-1v-1l-1-2 1-3v-10l-1-4v-14l1-1h4v3h1v1l1 1v1l1 2v1l1 2 1 2 1 3 2 7 1 4 1 3v3l1 2v1h1v3l1 3 1 1v-12l1-4v-10l1-1v-10l1-2v-2l1-1v-1h1ZM2065 955v1h1v4h-6l-2 1h-6v10l1 4-1 2h8l1-1v1h4v3l1 1v2h-13v7l-1 4v11h5l1 1h3l2-1h3v6h-11l-2 1h-4l-2-1h-1l-1-1v-11l1-2v-29l-1-2v-10l2-1h18ZM2077 954l1 1h3a14 14 0 0 1 4 1 8 8 0 0 1 5 3 14 14 0 0 1 3 7v2l1 1v7l-1 2v2l-1 3-1 1-1 1h-1l-1 1-1 1h-1l1 2h1l1 1 1 1v2l1 3 1 2v2l1 3v2l1 2v4l-1 1h-1l-2 1h-2l-1-1 1-1c-1 0 0 0 0 0v-1l-1-2v-3l-1-3-1-4-1-3-1-2-1-1-1-1-3-1-1 1v5l1 3v7s0 1 0 0v6h-5l-2 1v-44l1-2v-4l-1-4 1-2v-2l1-1h4Zm1 7v9l-1 2v10l1 1v1h3l1-1 2-1 1-1 1-1h1v-11l-1-4-1-2-2-2h-5ZM2100 954h2l2 1h3v20l-1 4v18l1 6v6a2 2 0 0 1 0 1v1h-7l-1-1s1 0 0 0l1-1v-4h-1l1-2v-17l1-5v-3l-1-4v-15l-1-1v-2l1-1v-1ZM2138 955h4l1 1v1h-1v6l-1 3v6l-1 2v5l-1 2v13l-1 2v15h-1v1h-5l-1-1v-2l-1-1-1-2-1-3-1-3-1-4-1-2v-1l-1-2-1-2-1-3v-2l-1-2v-2l-1-1v-2 9l1 2-1 2v21h-7v-4l1-3v-42l-1-3v-2l1-1 1-1h3l1 1v2h1v2l1 1 1 2v1l1 2v2l1 3 3 7v4l1 3 1 3 1 2v1l1 1v2l1 3v1-2l1-2v-15l1-1v-8l1-3v-6l1-2v-3l1-1h1ZM2160 953l3 1 3 1a12 12 0 0 1 3 4v1h1v2l1 1v4l-2 1h-3c0 1 0 1 0 0h-1v-3l-1-1v-1l-1-1v-1l-1-1c1 1 0 0 0 0h-6v1l-1 1v1l-1 1v12l-1 2v17l1 1v4l1 2v4h1l1 1h2l2-1h1v-1h1v-1h1v-1l1-1v-12l-1-1h-3l-1-1c0 1 0 0 0 0h-1v-5h5l2 1h3l1 1v1l1 3v15l-2 2-1 2-1 1-1 1-2 1-1 1h-8l-2-1-1-1h-1l-1-2-1-1-1-3v-3l-1-2v-2c0 1 0 0 0 0v-6l-1-1v-12l1-1v-13l1-3 1-2 1-1 1-1 1-1 3-2h2l1-1h2ZM2200 955l1 1v5l1 1v5l1 2 1 5v4l1 1v2l1 4 1 3v6l1 1v4-1l1-4v-4a75 75 0 0 0 0-5l1-1v-5l1-2v-4l1-1h5v2h1v3l1 2v2l1 2v3l1 1v4a61 61 0 0 1 1 5l1 2v4l1 2v1-1l1-1v-7l1-3v-8l1-2v-3l1-2v-7l1-4v-3l1-4v-4l1-1 1 1h4v8l-1 5v3l-1 2v5l-1 4v3l-1 2v8l-1 2v5l-1 1v7h-7l-1 1h-1l-1-1v-1l-1-2v-1l-1-2-1-3v-3l-1-6-1-3v1l-1 2v5l-1 1v5l-1 1v5l-1 1-1 1h-5l-1-1v-2l-1-2v-3l-1-3v-7l-1-2v-3l-1-1v-4l-1-1v-2l-1-2v-3l-1-2v-5l-1-2v-4l-1-3v-2l-1-2 1-1h5ZM2242 954h2l1 1h3l1 1v17l-1 2v34a2 2 0 0 1 1 1h-1v1h-7v-9l1-3v-36l-1-4v-4h1v-1ZM2255 954h6l3 1h7l2 1h7v2l-1 2 1 1-1 1v1h-1l-2-1h-3l-3-1h-1v1l1 2v39l-1 2v7h-6l-1-1v-5l1-6v-10l1-1v-11h-1v-7a32 32 0 0 0 0-3v-2l-1-3v-3h-9v-3l1-1v-2h1ZM2287 954l1 1h3l1 1v6l-1 5v8l-1 2v9l1 1h11v-4l-1-4v-2l-1-2v-18l1-2h4l1 1v15l1 2v7l1 2v25l1 2v2h-7v-18h-6l-1-1h-1l-3 1v8l-1 4 1 1-1 1v3h-2l-1 1h-3v1l-1-1v-7l1-2v-35l1-4v-5l1-2v-1l1-1ZM1314 1033l1 1h11l3 1h5l1 1h4v2l-1 1v3h-3l-3-1h-4v7l1 3v31l-1 3v7-1h-1v1l-1-1h-5v-6l1-5v-11l1-4-1-4 1-2-1-1v-7a32 32 0 0 0 0-4v-1l-1-3v-3h-8v-1 1l-1-1v-3h1v-3h1ZM1346 1034h2v1h3v7l-1 5v8l-1 1v10h7v1h1l1-1h3v-3l-1-4v-3l-1-2v-17l1-2v-1h3l1 1h1v16l1 1v8l1 2v25l1 1v3h-6l-1-1v-17h-2l-2-1h-4l-3 1h-1l1 4v4l-1 4v5h-4l-1 1h-2v-9l1-2v-37l1-2v-4l1-2v-1h1ZM1393 1034l1 1v2l1 2h-3l-1 1h-11v11l1 3v2l2 1h4l1-1h4l1 1c0-1 0 0 0 0h1v5l-1 1h-11v1l-1 2v11h-1v8h15v1l-1 1 1 2v1h-1v1h-13l-2 1-2-1h-2v-1h-2v-2l1-2v-13l1-3v-13l-1-7v-6l-1-2v-3l1-3 1-1h1l3-1 2 1h8l2-1h2ZM1427 1035h3l2 1h2l4 3 1 2 1 2a15 15 0 0 1 2 7v4l-1 3v3l-1 1-1 1c-1 1-1 2-3 2l-1 1 1 1 1 1 2 1c2 2 2 4 3 7v7l-1 3-1 1-1 3-1 1-1 1h-1l-2 1h-5v1a15 15 0 0 1-5-1h-5v-51l-1-2v-3h2l1-1h6Zm0 6h-1v20l1 1h5l1-1 1-1v-2l1-4v-4l-1-7-1-1-1-1-1-1h-3l-1 1Zm0 27-1 8v9l1 2v2l1-1h4s1 0 0 0h1v-1l2-2v-7l-1-3v-4l-2-2-2-1h-3ZM1458 1035h4l3 2 2 2 1 2 1 3 1 4 1 3v31l-1 2v1l-1 2-1 1-1 1-1 1h-1l-1 1h-1l-1 1h-6l-4-1v-1h-1l-1-1-1-3-1-2v-3l-1-2v-26l1-1v-4l1-3v-1l1-1v-2l2-3 2-2 2-1h2Zm0 6-1 1-1 1-1 2v3l-1 2v6l-1 3v16l1 3v4l1 1v2h1l1 1h4l1-1h1v-1h1v-2l1-1v-26l-1-1v-3l-1-3v-3l-1-1v-2h-1v-1h-3ZM1488 1035h4l3 2 1 2 2 2 1 3 1 4v5l1 2v25l-1 2v3l-1 2-1 1-1 1-2 1-2 1-1 1h-6s-1 0 0 0l-4-1-1-1-1-1-2-3v-2l-1-1v-11l-1-3v-8l1-3v-7l1-1v-5l1-1v-1l1-1v-1l1-3 3-2 2-1h2Zm0 6-1 1-1 1-1 2-1 2v5l-1 4v24l1 2v2h1v1h1l1 1h4v-1h1l1-1 1-1v-2l1-4v-13l-1-3v-10l-1-3-1-2v-3l-1-1-1-1h-2ZM1509 1035h5v19-1l1-1 1-1 1-1 2-3 1-1 1-2 1-1v-1l1-1 1-1 1-2 1-1 1-1h2v1l1 1 1 1v1l-1 1-1 2-1 1-1 1v1h-1v1l-1 1-1 1v1l-1 1-1 3-1 1 1 2v2l1 1 1 2v2l2 3 1 4v3l2 4v2l1 2 1 3v6h-5v-1h-1v-2l-1-3-1-3v-2l-1-1v-2l-1-2-1-3v-2l-1-2-1-3-1-3-1-1v-1 1l-1 1h-1v6l-1 1v21l-1 1h-5l-1-1v-6l1-1v-32l1-4v-12h1ZM1556 1034v1l1 1v3h-2l-1 1h-11v11l1 3-1 2h1l1 1h5v-1h5l1 1c0-1 0 0 0 0v2l1 2v1l-1 1h-12v6l-1 4v12h14v5l-1 1h-12l-2 1-2-1h-2l-1-1h-1v-11l1-3v-28l-1-2v-10l2-1h1l3-1 1 1h9l1-1h3ZM1568 1034h1v1h3a14 14 0 0 1 4 1 8 8 0 0 1 5 3 14 14 0 0 1 3 6v3l1 1v7l-1 2v1l-1 4-1 1h-1v1l-2 1-1 1h-1l1 1 1 1 1 1 1 1v1l1 4 1 1v2l1 4v2l1 2v4l-1 1h-4l-1 1-1-2h1v-2l-1-1v-4l-1-3-1-3-1-3-1-3-1-1-1-1h-4v6l1 3v13h-7v-44l1-2v-4l-1-3 1-2v-3h5Zm1 6v10l-1 2v9l1 2v1l3-1h1l2-2h1l1-1 1-1v-11l-1-3-1-3-2-1-5-1v1ZM1631 1034l1 1v3l1 2h-5v1h-4v7l1 6v3l-1 2v23l1 4v4l-1 1h-7v-29l1-2v-7a43 43 0 0 0-1-9v-3h-2l-1-1h-7v-4l1-1h19l1-1h3ZM1699 1037l-1 1v2l-1 3-1 2v3l-1 1-2 12-1 7-2 8a48 48 0 0 0-1 5l-1 2v7l-1 1h-4v1h-1v-1l-1-1v-6l-1-1v-1l-1-3v-3l-1-3v-8l-1-3-1-4-1-3v-5l-1 5v10l-1 4v4l-1 4v6l-1 4v3l-1 1h-6v-1l-1-2v-5l-1-2v-2l-1-7-1-3-1-3-1-7-1-4v-3l-3-13v-3h6v2h1v2l1 3v4l1 3v4l1 2v1l1 4v4l1 2v4l1 2v2-2l1-4v-8l1-2v-8l1-2v-9h1v-1l1-1 1 1h2l1 1h1v1l1 1 1 2v5l1 2v2l1 2 1 1v2l1 6v5l1 1v5l1-5 1-4 1-7 1-4 1-3 1-4 1-4v-5l1-2v-1l1-1h2l1 1h2l1 1ZM1714 1034h2l1 1 1 2v1l1 2v5h1v3l1 1v3l1 3v2l1 1v7h1v8l1 1v10l1 1v3l1 2-1 1h-6v-2h-1v-6l-1-3v-9l-1-4h-9l-1 3-1 4a33 33 0 0 1-1 5v2l-1 2v8h-6l-1-1v-4l1-1v-6l1-2v-3h1v-4l1-3 1-3 1-4 1-3 1-4 2-8 2-7h1l1-2v-1h1v-1h2Zm-1 10-1 3v3l-2 7v4h2v1h3l2-1-1-2-1-3v-4l-1-4v-3l-1-1ZM1741 1034c3 0 4 1 6 3l1 1 1 1a7 7 0 0 1 1 2l1 1v3l1 2v1c0-1 0 0 0 0v1h-1l-1 1h-2l-1 1h-1v-3l-1-1v-4l-2-2-1-1h-4v1l-1 1v10l3 6 1 2v1l2 3 2 3 1 1 1 1 1 3 1 4a18 18 0 0 1 1 2l1 4v4l-2 3-2 2-1 1h-3v1h-6l-3-1-2-2-1-3-1-3v-9h5l1 1v4l1 4 1 3h5l1-2v-7l-1-2-1-1v-1l-2-2-1-2v-1l-1-1-1-1v-1l-2-2-2-4-1-2-1-3-1-3a23 23 0 0 1 0-8l1-3v-2h1v-2l1-1h1v-1l2-1h5ZM1760 1034h2v1h3v6l-1 1v12l-1 1v11h7v1h1l1-1h3v-1l-1-2v-6h-1v-20l1-2v-1h3l1 1h1v16l1 1v10l1 3v24l1 1-1 1h-6v-3l-1-1v-4l1-7v-3h-2l-3-1h-3l-3 1h-1v4l1 2v2l-1 4v5h-4l-1 1h-2v-9l1-2v-37l1-2v-4l1-2v-1h1ZM1788 1034h6l1 1v25l-1 2v9l1 6v11a2 2 0 0 1 0 2l-2 1h-4l-1-1v-5l-1-1 1-1v-18l1-5v-2l-1-4v-15l-1-2v-2h1v-1ZM1826 1035h5v2h-1v6l-1 3v7l-1 1v5l-1 1v15l-1 3v12l-1 1h-6v-2l-1-1-1-3-1-2-1-4-1-3-1-2v-2l-1-2v-1l-2-4v-1l-1-2v-4l-1-1v5l1 3v4l-1 2v19l-1 1h-6v-2l1-3v-26l1-2v-2l-1-3v-18h5v3h1v1l1 2 1 1v2l1 2v2l1 3 3 7v4l2 3v2l1 2v2l1 1v1l1 4v1-1l1-2v-14l1-1v-11l1-2v-6l1-3v-3h2ZM1848 1033l3 1 3 1a12 12 0 0 1 3 4l1 1v1l1 2v4h-2l-2 1h-1l-1-1v-2l-1-1v-1l-1-2v-1h-1l-1-1h-4v1h-1v1l-1 1v1h-1v15l-1 2v12l1 2v5l1 2v4h1v1h5l1-1h1l1-1v-1l1-1v-13h-1l-2-1h-2l-1-1v-4l1-1h1l2 1h3l1 1h2l1 1 1 1v17l-1 3-2 1v1l-1 1h-1v1l-1 1h-3l-2 1h-3l-1-1h-3l-1-1-1-1-1-1-1-2-1-2v-4l-1-2v-7l-1-2v-9l1-2v-14l1-4 1-1 1-1 1-2 1-1 3-1 1-1h4ZM1864 1033l1 1h11l3 1h6l1 1h3v6h-3l-3-1h-4v10l1 3v6l-1 2 1 1v3l-1 2v17l-1 2 1 1-1 1v1h1v1l-1 1v-1l-1 1v-1h-6v-3l1-3v-11l1-3v-18l-1-2a32 32 0 0 0 0-4v-7h-8l-1-1v1-6l1-1ZM1903 1035h4l3 2 2 2 1 2 1 3 1 4v4h1v30l-1 2v1l-1 2-1 1-1 1-1 1h-1l-2 1-1 1h-6l-4-1v-1h-1l-1-1-1-3-1-2v-1l-1-2v-29l1-1v-3l1-3v-2l1-1v-1l1-3 3-2 2-1h2Zm0 6-1 1-1 1-1 2v2l-1 1v4l-1 4v23l1 1v4h1v1h1l1 1h4l1-1h1v-1l1-1v-2h1v-26h-1v-4l-1-3v-2l-1-1v-3h-1v-1h-3ZM1946 1035h5v3l-1 2v6l-1 2v6l-1 1v7l-1 1v15l-1 3v10h-6l-1-1v-2l-1-3-1-2-2-4-1-3-1-2v-2l-1-2v-1l-1-4-1-1-1-2v-4l-1-1v3l1 2v18l-1 3v7l-1 1h-5l-1-1v-1l1-3v-13l1-2v-18l-1-4v-14h5v3h1c0-1 0-1 0 0v1h1v2l1 1v2l1 2 1 2 1 3 2 7 1 4 1 3 1 2v2l1 1v3l1 4 1 1v-12l1-5v-9l1-1v-9l1-1v-5l1-1c-1 0 0 0 0 0h1ZM1987 1034a7 7 0 0 1 3 0l2 1h1l1 2a30 30 0 0 1 2 4l1 3v6l-1 1h-6l1-2v-3l-1-2v-1l-1-1-1-1-1-1h-1l-1 1h-1v3l-1 2v10l-1 2v25l1 1h1v1h5v-4l1-1 1-1 2 1h2v7l-1 3h-1l-1 1-1 1h-9l-2-1-1-1h-1l-1-2-1-1v-4l-1-2v-14l1-2v-1l-1-4v-7l1-3v-7l1-1 1-2 2-3v-1l3-1 1-1h3ZM2012 1035h5l3 2 1 2 2 2 1 3 1 4v5l1 2v25l-1 2v3h-1v2l-1 1-2 1-1 1-2 1-2 1h-5s-1 0 0 0l-4-1-1-1-1-1-2-3v-2l-1-1v-8l-1-1v-17l1-1v-6l1-2v-3l1-1v-2l1-1 1-3 3-2 2-1h1Zm1 6-1 1h-1l-1 1v2l-1 2v3l-1 1v29l1 2v2h1v1l1 1h4l1-1h1l1-1 1-1v-6l1-3v-8l-1-2v-11l-1-2v-3l-1-2v-3l-1-1-1-1h-2ZM2066 1035l1 1-1 1v50h-1v3l-2 1h-3v-29l1-2v-1l-3 8-1 1v2l-1 1v1l-1 2v1l-1 1v1l-1 2-1 1v1h-5v-3l-1-1v-1l-1-3-1-1v-2l-1-1v-1l-1-1v-3h-1v-2l-1-1v-2l-1-2v-2h-1v28l-1 3v5h-5l-1-1v-12l1-1v-3a44 44 0 0 1 0-5v-18l1-4v-9h2l1-1h2l1 1v1h1v1l1 1v4l1 1v2l1 2v2l1 1 1 2v2a30 30 0 0 0 2 4v1l1 2 1 4v1h1v2-1l1-2v-1l1-2v-1l1-1 1-2v-1l1-2v-2l1-1v-2l1-1v-2l1-2 1-2v-1l1-2v-6l2-1h1l2-1h1ZM2107 1035l1 1v6l-1 3v4l1 1v4l-1 2v2l1 1v2l-1 3v2l1 3v4l-1 3v12l-1 2-2 1h-3v-24l1-3v-5l-3 8v1l-1 1v2l-1 1-1 2v2h-1v3l-1 1-1 1h-5v-4h-1v-1l-1-3-1-1v-2l-1-1v-2l-1-2v-1l-1-1v-1l-1-1v-2l-1-2v-2 2l-1 3v30h-1v1h-5l-1-1v-8l1-3v-5a44 44 0 0 1 0-5v-13l1-2v-16h3l1-1h1l1 1v1h2v4l1 2v3l1 2 1 2v1l1 2 1 2a30 30 0 0 0 1 4l1 1v2l1 4h1v3l1-1v-2l1-1v-2h1v-2l1-2v-1l1-2v-2l1-1 1-2v-1l1-2v-2l1-2v-1l1-2v-2l1-3h-1v-1h1l1-1h2l1-1h1ZM2120 1034h1v10l-1 2v13l1 2v17l1 2v1l1 1v2l2 1 1 1h4l1-1 1-1v-6l1-3v-20l1-2v-15l1-2v-1l1-1h5l1 1v1l-1 2v10l-1 1 1 4-1 3v14l-1 2v11l-1 1v4l-2 2-2 1-1 1h-7l-3-1-2-1-2-2-2-2-1-1v-1l-1-1v-8l-1-2v-16l-1-3 1-1v-11l1-4v-2h-1v-1l1-1h5ZM2172 1035h5v1l-1 1v6l-1 3v6l-1 1v6l-1 1v13l-1 2v15l-1 1h-6v-2l-1-1-1-3-1-2-1-4-1-3-1-2v-2l-1-2-1-1-1-4v-1l-1-2v-2l-1-2v-1 8l1 2v2l-1 2v19l-1 1h-6v-2l1-3v-44l-1-4v-1h1v-2h4l1 1v2h1v1l1 2 1 1v2l1 2v2l1 3 3 7v4l1 3 1 2 1 2v2l1 1v1l1 4v1-1l1-2v-15l1-1v-10l1-2v-6l1-3v-3h2ZM2183 1034h5l1 1h1l-1 2v51a2 2 0 0 1 0 2l-1 1h-5l-1-1v-18l1-7v-11l-1-4v-16h1ZM2195 1033l2 1h10l3 1h6l1 1h4v2l-1 1v3h-3l-3-1h-4v7l1 3v26l-1 2v13l-1-1v1l-1-1h-5v-11l1-3v-26a32 32 0 0 0-1-4v-7h-8v-1 1l-1-1v-3l1-1v-2h1ZM2249 1035h5v4l-1 1v1l-1 3-2 7v2l-1 1-1 2v2l-1 1v2l-1 2v2l-1 3v1h-1v20l1 1-1 1h-6v-7l-1-1v-11h-1v-1l-1-1v-2l-1-1v-1l-1-1-1-4v-2l-1-1-1-2v-2l-1-3-1-2v-1l-1-2v-2l-1-1v-3l-1-1v-1l-1-1 1-2h5l1 2 1 2v1l1 2v2l1 3 1 4 1 2v1l1 4 2 3v4l1-1v-3l1-1v-2l1-2 2-6 1-2v-2l1-3 1-4 1-2v-2ZM2290 1034a7 7 0 0 1 2 0l2 1h2l1 2a30 30 0 0 1 2 4v3l1 2v4l-1 1h-6v-7l-1-1v-1l-1-1-2-1h-1l-1 1h-1v5l-1 1v13l-1 7v14l1 1v2h1v1h5v-1l1-1v-3h1l1-1 1 1h3v5l-1 2-1 3h-1v1l-2 1h-8l-3-1-1-1h-1l-1-2-1-1v-11l-1-1v-2l1-4v-22l1-4 1-1v-2l2-3 1-1 3-1v-1h4ZM2324 1034l1 1v2l1 2h-2l-2 1h-11v6l1 4v6l2 1h4l1-1h4l1 1h1v5l-1 1h-11v1l-1 2v11h-1v8h15v1l-1 1 1 2v1h-1v1h-13l-2 1-2-1h-1l-1-1h-2v-2l1-2v-10l1-3v-16l-1-7v-6l-1-2v-3l1-3 1-1h1l3-1 2 1h8l2-1h2ZM2355 1035h5v2h-1v6l-1 3v7l-1 1v5l-1 1v15l-1 3v12l-1 1h-6v-2l-1-1-1-3-1-2-1-4-1-3-1-2v-2l-1-2v-1l-2-4v-1l-1-2v-4l-1-1v5l1 3v4l-1 2v19l-1 1h-6v-2l1-3v-26l1-2v-2l-1-3v-18h5v3h1v1l1 2 1 1v2l1 2v2l1 3 3 7v4l2 3v2l1 2v2l1 1v1l1 4v1-1l1-2v-14l1-1v-11l1-2v-6l1-3v-3h2ZM2365 1033l1 1h11l3 1h6l1 1h3v5l-1 1h1-3l-4-1h-3v41l-1 3v5l1 1-1 1v-1l-1 1-1-1h-5v-6l1-5v-6l1-3v-16l-1-1v-3a32 32 0 0 0 0-4v-4l-1-2 1-1h-8l-1-1v1l-1-1v-1h1v-4l1-1ZM2414 1034h1v2l1 1v2h-2l-2 1h-11l1 3v13h1l1 1h4l1-1h4l1 1h1v6h-12v1l-1 2v14l-1 1v1l1 1v2h14v5l-1 1h-13l-2 1-1-1h-2l-1-1h-1v-14l1-3v-16l-1-7v-14l1-1h1l3-1 2 1h9l1-1h2ZM2426 1034h1l1 1h2a14 14 0 0 1 5 1 8 8 0 0 1 5 3 14 14 0 0 1 3 6v14l-2 4-1 1-1 1-1 1-2 1 1 1 1 1v1l1 1 1 1 1 4 1 1v6l1 2v2l1 1v3l-2 1h-3l-1 1-1-2v-3l-1-4v-3l-1-3-1-3-1-3-1-1-1-1h-4v16l1 1v4l-1 1h-7v-14l1-1v-42l1-1h4Zm2 6v7l-1 1v15l1 1 2-1h2l2-2h1l1-1v-1h1v-11l-1-3-1-3-3-1-4-1v1Z"/>
    </g>
    <g>
      <path class="i" d="M1660 656c0 11-2 24-5 34-1 5-4 7-8 7h-60c-5 0-9-4-9-9l1-3 6-24 3-19-1-8c-3-3-5-5-9-5-31 0-51 72-51 117 0 20 2 55 24 59 10 1 20-3 30-12l6-7 5-8 17-27c2-3 5-4 8-4l6 3 26 27c2 1 2 4 2 5l-1 5c-9 16-20 36-34 49a103 103 0 0 1-104 29c-41-11-67-59-67-119 0-66 25-112 55-145 20-22 46-32 75-32l15 1a76 76 0 0 1 70 86Zm-209 79h-3v4l1 2 2-3v-3Zm11 55-1-1h-3l-3 1v1l1 1h3l3-2Zm12-101h-1c-2 0-3 1-3 2l1 1 3-3Zm0-10h-2v1h2v-1Zm10 27-2-1h-5v1l1 1 6 1v-2Zm-6-28 2 2-2-2Zm0 20h2v-1l1-1-1-1h-2v3Zm1-34 3 1h2l-5-1Zm5 8h-3c-1 2 0 3 2 4l2-2v-1l-1-1Zm-1 37-1 2 1 1v1-4Zm3-19h1v-2l-2-1-1 2-1 2 3-1Zm12-11-7-5h-2l1 3-1 1-1-1h-1l-1 1v1l1 1 3-1 3-1 2 1h3Zm-12-19 3 2 1-2-4-1v1Zm3 32h-2l-1 2h3v-2Zm-2-28v1l5 1 2-2h-7Zm5 130v4-4Zm6-111-4-1v1h4Zm6-23-1-2c0-2-1-4-4-5l-1-3-3 3 3 1 3 1-3 3-1 2 1 2h3l1 1 1-1 1-2Zm-4 20-2 3 1 3h2l-1-6Zm0 35v-3l-2 3 1 3 1 2v-5Zm2-49h-2v1h2v-1Zm7-12-1-1-1-1-1 1h-1l4 1Zm3 0-1-1 1 1Zm1-4h-1v1h1v-1Zm15-10v-1h-1l-1 1h2Zm3 220h3v-2h-1l-2 2Zm7-192h-1v1h1v-1Zm10-87-1-1v-1h-6l3 1 1 1v1h2l1-1Zm9 19-1-1-1 1h2Zm-1-19h2l1-2h-3v2Zm4 8-1-1h-1l-2 1h2l2 1v-1Zm1-3 2-1-2-2h-2l-1 1 1 1 2 1Zm7 33h-3l-1 3-2 2h3l1-2 2-3Zm10 237h2l2-5-1-1-3 6Zm12-243h-3v6h3v-6Zm0-25v-3l-3 2 3 1Zm8-5 4-1 2-2 2-1 3-1-3-1-2-1v3l-3 2-2 1h-4v-1l-1-2-4 3 1 2 5 2v-1h1c-1-1-1-2 1-2Zm-6-6 3 2 3-1 4-1-2-1h-3l-4-1-1 2Zm1 31h-1v2l1-2Zm15 32v1c-1 2-1 2-3 2h-2l-1 1v2l2 1h2l3-1 3-2-4-4Zm-1-12-1 5 2 1 1-2 1-2c0-1-1-2-3-2Zm7-46h-2v1h2v-1Zm4 177v-1l1-1-2-2h-1v1c0 1 0 2 2 3Zm2-114 2-1 2-1h2v-3l-1-1-2-1-2-1c-2 0-4 4-4 4 0 2 0 4 3 4Zm-2-11 4 1v-1h1v-2h-5v2Zm9 13h-1l-2 1-3-1h-2l-1 4 2 1 3 1 2-1-1-2v-1h2l1-1v-1Zm3 23h-2l1 1 1-1ZM1876 870h-65c-5 0-8-3-9-8l-4-53-65 13-9 40c-2 4-5 6-9 6l-64-1c-5 0-9-5-8-11a3008 3008 0 0 1 56-175l41-98c1-2 3-4 6-5l29-5h25c16 1 26 15 33 29a390 390 0 0 1 19 77l32 180c1 6-3 11-8 11Zm-184-69v1l1 1c1-1 1-2-1-2Zm7 34-3-2c-2 0-2 1-2 2h5Zm2-13 3-1v-1l-1-1-2-1c-1 2-3 3-7 3 0 1 2 4 4 4l2-1 1-2Zm-3-6 3 1h1v-2l-2-2-1 1h-1v2Zm8 20-2-3-3 2 3 2 2-1Zm5-29-1 2 1 1 1-1-1-2Zm7 24-1-1h-2l-2 1 2 1 2 1 1-2Zm10-31-1-2-1-3-5-2c-3 0-4 3-4 4s2 4 5 4l2-1h4Zm-9-143 2 5v-7l-2 2Zm2 11v5h2v-5h-2Zm8 64h-1l-1 4 1 3 1-4v-3Zm8 58h-4v2h4v-2Zm18-82c2-1 4-4 4-6l1-3 4-9-2-1-2 2-2 1-2 8-2 3-1 2-1 3-3 9-2 6c-1 3-1 4-4 7l-4 8-1 4-2 6-2 5v3h3l1-1 2-7 3-7 3-4 2-5 7-18v-6Zm-7-117h2v-3h-2v3Zm1 17v5c0-1 0-3 2-5h-2Zm2 54 1-1h2l-2-1-1 1v1Zm37 84-3-21-3-20-5-28-22 70 33-1Zm-22-73c1 4 3 4 6 2l2-3-1-1-1-1c-2-1-4 0-6 3Zm2 7-1 3v1l2-4h-1Zm5-52h1v-1l-1 1Zm5 3 1 2h4l-1-3-2 1h-2Zm6 165-1-1-1 1 1 1 1-1Zm2-30h-3v1h3v-1Zm9 5-3 1h2l1 1v-2Zm-1-50h3l-1-1-2-1v2Zm4 10h-3v1h3v-1Zm-1-123 1 2 1-4h-2v2Zm1 157h2v-1h-2v1Zm3-9h-1v2h1v-2Zm0 37h-1v2h1v-2Zm0-191h1v-3h-1v3Zm0 8 1 1v-1l-1-2v2Zm6-2h-5v3h2l1-2 2-1Zm-3 97h-2 2Zm-1 44-1 1 1-1Zm1-5h-1v1h1v-1Zm0-5 1 2h6l3-2h-10Zm2 57h4v-1h-6l2 1Zm1-75-1 2h2v3h4v-1c0-2-2-4-5-4Zm3 27h-3l-1 1v1l3 1v-1l1-2Zm-1 66h-3v1h3v-1Zm-2-38 4 2 3-4-1-2h-2l-2 2-2 2Zm0-160 1 1h6l1-1c-1-1-2-1-2-3l1-1-4 1-3 3Zm0 10 2 1 2 1 1-1 1-1-4-1-2 1Zm0 57h2l-1-1-1 1Zm6 52-1-1h-3v1l2 2 1-1h1v-1Zm-4 26v2h2v-2h-2Zm5 62-3-1-2-1 1 3 4-1Zm0-124v-1h-3v1h3Zm0 34h3v-2l-2-1h-1l-2 2 2 1Zm-2 53c0 2 1 3 3 4v-4h-3Zm2-146-1 1 1 1h3l1-2-2-2-2 2Zm9 120-1-2-1-3-7-2 1 1c2 0 2 2 3 4v2h5Zm-9 59h3l-3-2v2Zm0 18h5l-2-3-2 2-1 1Zm3-101v5c2-1 2-4 2-4h-1l-1-1Zm1-13h1l1-1h-3l1 1Zm0-53v1h3v-1h-3Zm0 115v1h2v-1h-2Zm6 72-1-5h-5l5 6v-1h1Zm-4-181v2h3c0-1-1-2-3-2Zm3 27v-1h-3l3 1Zm8 28h-4l-5 4 4 7h8l-3-2-5-3 4-2 2-2-1-2Zm-8-8 3-1-1-1h-1l-1 1v1Zm0 4c3 2 5 1 7 0l-3-2h-4v2Zm3 27-1-1h-1l-1 1h3Zm0 58h-3l1 2 1 1 1-1v-2Zm-2-92c2 0 2-1 2-2l-2 2Zm5 69c0 1 1 4 4 4h2l3-1-1-1-2-1v-4c-1 1-1 2-3 2l-3 1Zm28 64-1-10-2-10-2-3-1-2 2-3c-2-1-3-2-3-4 1-2 1-5-1-9l-1-3 1-1c1-1 1-3-1-6l-3 3-3 2-1-1v-4c0-2 1-3 4-3l2 2v-4l-7-2c-2 0-8 2-8 5l1 1 2 2v3l1 1 1 1-3 1c-2 0-4 0-4 2l-1 3c2-1 3 0 3 1l-1 1c-1 0 0 0 0 0l-1 2-1 1v4c2 1 10 4 5 6h10v6h-1l1 1 2 2 1 1 1 1v4l3 3v2c0 2 3 5 4 5l2-1Zm-19-92h2l-2-1v1Zm9 33h1v-1h-1v1ZM2146 861c0 5-4 9-8 9l-63-2c-4 0-9-4-8-9l5-92-23 48c-4 9-11 22-21 27-15 8-31 2-37-16l-16-50-2-6-1 43h-1v2h1l-1 45c0 3-2 5-4 7h-15l-3-1-2-1c-2 0-4 1-5 3h20l-60 2c-6 0-9-4-9-9l6-140 5-86v-7l2-44c0-6 3-8 8-9l34-1 1 1h1l-1-1h2c11-1 20 2 28 9h-11l-11-1-15-3c-2 3-4 3-6 3h-6c-3-1-7-2-11 1l-5-1-1 1-1 1-2-4-1 6h36l1-1h7l29 2c4 4 6 8 9 14v1l31 107 51-122 45-2 1-3-40 1h-5l3-5v-2l1 1 1 1 2-2 1-1v-2h22c10 0 20 2 28 9 8 9 13 20 13 33l1 246Zm-240-34 1-26 3-29h-4v12c0 2-1 4-3 5l-2 2h-1l1 17 1 11 2 10 1 10-1 11-1 5v4l1 6 4-6-2-32Zm0-72 1 3-1 3c0 3 0 5 2 6v-13l-2 1Zm2-2v-3l-1 1c-2 0-1 1 1 2Zm1-152v-2l-2 2h2Zm1-7h-2 2Zm0 114-2-1 2 2v-1Zm0 23h-2v5h2v-5Zm0 8h-2v4h2v-4Zm31 101-1-1-4 1 5 2v-2Zm8-13-1-1h-2v1c0 1 0 2 2 2l1-2Zm5-248Zm9-2v2h3l1-2-2-1h-2v1Zm4 248 1-2c0-1 0-2-2-2l-3 2c0 1 1 2 3 2Zm0 29v-2l3-1-2-1h-1l-2 1v1l1 3 3 1h1v-1h-2l-1-1Zm11-216h3v-1h-3v1Zm7 18-3-2h-1v1l1 1h3Zm4-25-1 2-3 3h4v-5Zm27 100v1l1 1 1-2-4-1 2 1Zm10 88-6-2-2-1-2 2 5 2 2 1 2 1 1-1v-2Zm-7-69h3v-2h-3v2Zm2-32v2l1 2h3l1-2h-1l-1-2h-3Zm3 45h1l2-1-1-2h-5l1 3h2Zm-2 22v1-1Zm7-43h1c1-1 0-2-1-3l-5 1-2 1h2l3 2 2-1Zm-4 91-1 1h1v-1Zm0 5h-1v2h1v-2Zm4-58-3-2v2h3Zm8-5c-1-3-3-4-4-4l-4 2 2 2h6Zm0 48-2-2-1-2-2 2 4 3 1-1Zm5-60-1-1h-1v-1h-3l-2 2c0 2 2 3 3 3l2-1 2-2Zm7 11-3-3-4 7v2l3 1 2-1 1-2-1-1v-2h1l1-1Zm2-36v-1l1-1-4-2-4 2 1 2h6Zm2 11h-4v1h4v-1Zm38-170c-1-1-5 0-6 2l1 1h1l4-1v-2Zm-3 148c-2 0-2 1-2 2v1h2v-3Zm6-81 2 1 5-1v-3h-3c0 2-2 3-4 3Zm7 158-1-1h-2c-1 0-2 0-3 2l1 1h4l1-2Zm-4-89h2l-2-2-1 1 1 1Zm8-139Zm12 4-9-3-3-1v2l12 2Zm-6 82c0-1-1-2-3-2v1l-2 1h5Zm0-22-1-1h-3l1 3h2l1-2Zm16 174-1-2-2 2h3ZM2354 716l-11 19 1-5-1-5v-5l1-2h-1v-4c0-2 0-3 2-5-2 0-2-1-2-2v-2 30c-8 10-16 17-26 23h-1a213 213 0 0 1-66 23h-4l-3 1h-1v-1l-3 1 1 1-13 1-3 77c0 6-3 9-9 9h-52c-6 0-9-4-9-9l2-33v1l5-2-2-1h-2l-1 1v-23h2l-1-1h-1l10-203c0-5 3-7 7-8l89-18 12-1h12c46 2 72 35 77 79 3 24 0 45-9 64Zm-197 117h-1v1l1-1Zm2-18h-2v1h2v-1Zm-1-17 2 1 2-1h-4Zm5 4h-5l2 1h2l1-1Zm-1 4c-2 0-2-1-2-2l-1 1v1h3Zm-2-15h2v-2h-3v2Zm18-16-2 6-1 5v3l-1 2v4l-1 1-1 1v3l-1 1 1 3c-1 2-2 5-1 7l-1 2v9l-2 2-2 2v10l-1 8-1 2-1 2c0 1 1 10 3 12l6 1h6v-86Zm-4-16h2l-1-1-1-1v2Zm1-109h1v-2h-1v2Zm3 120h-1v3h1v-3Zm3-22-1-4h-1l1 4h1Zm0 0h-1l-1 2h1l1-2Zm-2-15 1 2 1-2v-1h-2v1Zm3 7 3-1h3l-2-2-2-1-3 1-2 2h2l1 1Zm-2-121h1v-2h-1v2Zm9 116-2-3-1-1-3 1h-1l5 3h2Zm-2 29v-1l-3 1v1l3-1Zm6-15h-2v2h2v-2Zm8 66-1 4-1 2v3c0-1 0 0 0 0l1 6 1-15Zm0-6-1 1 1 4v-5Zm15 60v-2h-1v2h1Zm35-157c10-3 22-8 31-16 6-4 9-10 11-18 3-16-5-42-25-38l-34 7-4 69c4-1 16-2 21-4Zm-10 63h-3v2h3v-2Zm3-10-2-2-3 3 3 1 2-2Zm-1-30v-2h-1v2h1Zm8 16-4-3v3h4Zm13-6h3v3h3l1-1-4-2v-2c-2 0-3 1-3 2Zm3 9h3l7 1v-1h-1v-1l-1 1h-3l-1-3c-2 0-3 2-4 3Zm4 9 2-3v-2l-1-1h-2l-1 1v4l2 1Zm4-18h-3c1 2 1 3 3 3v-3Zm1 24-1-1-2 1h3Zm1-3h1v-3l-3 1 2 2Zm1-12-1 4h2l1-1-2-3Zm2 12c-1 1-2 1-2 3h2v-3Zm2-21v-1l-3 1h3Zm4 15-4 1v1l4-1v-1Zm2-28-3-1-1 1-1 1v2h1l2 1 2-2v-2Zm-4-5v1h3v-1h-3Zm7 2 4-1-3-2-1 3Zm5 8-2-1v3h1l1-2Zm3-31c-1-1-3-3-5-3l5 3Zm-4-59h3l-3-1v1Zm7 41 2-3-3-1-1 2-1 1 3 1Zm-2-5h3l-1-2-1-1h-1v3Zm7 40h-5 5Zm3-31-2-2h-3l-1 1 6 1Zm-1 2-2-1h-2l3 2 1-1Zm-2-44h1v-1h-1v1Zm0 10v5l3-1c0-1 0-2-3-4Zm6 11-1-3-2 2-3 2 4 1 2-2Zm-3 14h-3v2c2 0 3-1 3-2Zm8-9-2-3h-1l1 2 2 1Zm2-34h-2v1h2v-1Zm24 49-1-4v2l-1 2h-3c1 1 0 1-1 1l3 1h3v-2Zm0 3h-2v10h2v-10Z"/>
    </g>
    <g>
      <path class="m" d="M1341 490c22 8 39 2 39-16 0-11-6-19-14-25-8-7-20-14-28-19l-9-5h-1l-25-20c-8-8-13-17-16-29-6-26-2-52 13-76 14-25 37-40 68-44 28-3 62-2 81 22 8 9 11 22 11 33l1 16-1 23c0 6-3 9-8 9h-50c-6 0-9-3-9-9l-1-30c-1-5-2-8-6-9-9-1-15 3-18 12-8 15-4 30 8 41 5 6 11 10 17 14l13 8c33 20 57 48 53 89v1c-6 31-21 56-48 67-21 8-43 10-65 7-24-2-52-15-73-26-4-3-6-7-3-12l19-38c2-4 7-6 12-4 13 8 27 15 40 20Zm-2 4h-2v1h2v-1Zm6 12-1 1 1 1 2-1-2-1Zm14 14h-3v2h3v-2Zm29-110h-4v2h4v-2Zm8 19h-1l-1-1v3h2v-2Zm0 83h-1v2h1v-2Zm5-6h-1v1h-2l4 1-1-2Zm1-94 1-1-1-2h-2v5h3l-1-2Zm2 2-2 1 1 2 4-2h1l-2-1h-2Zm2 106h-4v3l4-3Zm-3-9-1 2 2 1 4-2-3-1h-2Zm9-175-2 2h2l1-1-1-1Zm1-30v-1h-2v1h2Zm3 136-4-1v1l4 1v-1Zm-1 58-1-1v-1l-1 2v2l1-1 1-1Zm9-14h-4l-2 1-2 1c-2 0-2 1-2 2v1l3 1h2l3-2 2-2v-2Zm-8-36-1 1 2 1 1-1-2-1Zm9 29-1 1h-1l-1 1-2-1h-5v2l1 1 6 1h1l2 1h3v-1l1-2-4-3Zm-5-44-2-2-3 3h5v-1Zm3 28-2-1h-1l-1 3h1v1h3l1-1v-1l-1-1Zm1 31v-3h-3l-1 2v1h4Zm0 13v-1l-4 1 5 1-1-1Zm-1-188h-1v-1l-1 1v1h1l1-1Zm8 151-1-3-1 1h-1l-4 1c-1 2 2 3 3 3l2-1 2-1Zm5-19v-1h-5l-1 2 4 2c2 0 2-1 2-3Zm-2 39c-1 0-2 1-2 3l2 3 2-1 2-2-2-2-2-1Zm2-7h-3v3h3v-3Zm3-3h-3l-1 3h3v-1l1-2Zm1-16h-2v3l2-1 1-1 1-1h-2ZM1667 398l-12 19 1-5v-16l1-5c-1 0-2-1-1-2l-1-2v30c-7 10-16 17-26 23a213 213 0 0 1-66 23l-4 1h-4l-1-1-2 1v1l-13 2-2 76c0 6-4 9-9 9h-53c-5 0-9-4-9-9l2-33 1 1 4-2-1-1h-2l-2 1 1-23h1l-1-1 9-203c1-5 3-7 7-8l90-18 11-1h12c47 2 72 35 77 79 3 24 0 45-8 64Zm-197 118-1-1-1 1h2Zm2-19h-2v1h2v-1Zm-1-17 1 1 3-1h-4Zm4 4h-4l2 1h1l1-1Zm-1 4-2-2v1l-1 1h3Zm-2-15h3v-2h-3v2Zm18-15-2 5-1 5 1 2v1c-2 0-2 2-1 2v4l-1 1h-1v4l-1 1h-1c1 1 2 2 1 3-1 2-2 5-1 7v2c-2 4-1 7-1 9l-1 2-2 2v2l-1 8-1 8v2l-1 2c0 1 0 10 2 12l7 1 5 1v-86Zm-4-17h2v-1l-1-1v1l-1 1Zm2-109v-2 2Zm3 120h-1v3h1v-3Zm3-22-2-4h-1l2 4h1Zm0 0h-1l-2 2h1l2-2Zm-2-15 1 2 1-2v-1h-2v1Zm3 7 3-1h3l-2-2-2-1-3 1-2 2h1l2 1Zm-2-121h1v-2h-1v2Zm9 116-2-2-2-2-2 1-1 1 5 2h2Zm-2 29v-1l-3 1v1l3-1Zm6-15h-3v2h3v-2Zm7 66-1 4v5h-1l2 6v-15Zm0-6-1 1 1 4v-5Zm16 60-1-1h-1l1 1h1Zm34-157c11-3 23-8 32-16 6-4 9-10 11-18 2-16-5-42-25-38l-34 7-4 69 20-4Zm-10 63h-2v2h2v-2Zm4-10-3-2-2 3 2 1 3-2Zm-1-30v-2h-1v2h1Zm7 16-3-3v3h3Zm13-6h4v3h2l1-1-3-2v-1l-1-1-3 2Zm4 9h3l6 1v-2h-1v1h-4l-1-3-3 3Zm4 9 2-3v-2l-2-1h-1l-1 1v4l2 1Zm3-18h-3l3 3v-3Zm2 25-2-2-2 2h4Zm0-4h1l1-2v-1l-4 1 2 2Zm1-12v4h2v-1c0-1 0-2-2-3Zm2 13c-1 0-2 0-2 2h2v-2Zm3-22v-1h-1l-2 1h3Zm3 15-3 1v1l3-1v-1Zm3-28-3-1-1 1h-1l-1 1 1 2 2 1c2 0 3-1 3-2v-2Zm-4-5v1h2v-1h-2Zm7 2 3-1c0-1-1-2-3-2v3Zm5 8-2-1-1 3h2l1-2Zm2-31-4-3 4 3Zm-4-59h3l-3-1v1Zm7 41 2-3-2-1-2 2-1 1 3 1Zm-2-5h3v-2h-3v2Zm7 40h-4v1h4v-1Zm4-31-3-2h-2l-1 1 6 1Zm-2 2-2-1h-1l2 2 1-1Zm-2-44h1v-1h-1v1Zm0 10v6l4-2-4-4Zm7 11-1-2-2 1h-1l-3 2 5 1 2-2Zm-3 14h-4v2c3 0 4-1 4-2Zm8-9-2-3h-2l2 2 2 1Zm1-34h-1v1h1v-1Zm25 49-2-4v4h-3l-1 1 2 1h3l1-2Zm-1 3h-1v10h1v-10ZM1892 398v1c0 16-3 35-6 46l-1-1-1-2h-4v2h4l2 2-3 12h-2v1h2c0 2 0 4-2 7l-1 1h1c-4 12-9 24-15 33l-3 2 1 2-6 8a93 93 0 0 1-78 40c-30 0-53-12-69-35v-1h-1l-2-3c-9-13-15-28-18-44v-1l1-1-1-2v1c-2-9-3-18-3-28l3-13v-23l-1-4-1-2 2-12c7-45 22-94 60-121 15-10 31-15 48-15 38 0 66 19 79 47 13 27 19 58 15 103Zm-200 44h-3l1 2 2 1v-3Zm1-14v11-11Zm3-47v-3l-3 3 1 1 2 1v-2Zm-1 5h-1v1h1v-1Zm10 55h-3l3 1v-1Zm1 18 1 1v1l1 2h1v-2c-1 0-2-1-1-2 0-1 0-2-2-2l-1 1 1 1Zm0-6 2 2v-4l-2 1v1Zm0 14 2 6-1 1v1h2v-10h-1l-1 1h-1v1Zm5 37v-3h-3l2-1 1-9-3-2v-4l-1 8 2 1c-3 2-3 2-3 4l1 2 1 4 2 1-2 1v1l3-3Zm1-60h-1l-1-1c-3 0-4 4-4 5l1 2h4l1-1v-5Zm-4 37v1l1-1h-1Zm3 27h-3v3h1l1-1h1v-2Zm27-88-1-1 1 2v-1Zm5 16v1-1Zm16 64c0-2-3-3-3-3v-3h-2c-5 2-9 3-9 8l3 2h2l2 2c4 0 7-3 7-6Zm60-87 2-1 1-1-3-1a501 501 0 0 0-1-83h1v1h3l-1-2-3 1-3-10c-4-8-9-12-17-10-14 4-22 27-25 38-8 30-10 64-10 95 0 12 1 34 12 41l6 2c15 2 22-10 27-22 5-16 8-31 10-48h1Zm-52 108-1-1-1 1 2 1v-1Zm-2-253h3l1 1v1h1l2-1-1-1h-6Zm9 58h-3l1 2 2-1v-1Zm5-56h3l2-2h-5v2Zm6 1h-3v1l3 2 2-1-2-2Zm21 242-1-1h-3c-2 0-5 1-8 4h10l2-1v-2Zm-4 15h-3l-3 1 4 2 2-1v-2Zm0-9h-2c-2 0-2 1-2 2v1h4v-3Zm6-249h3v-1h-3v1Zm6 0 2 2c0 2 1 2 4 2l1-1c-1 0-1-1 1-2h4l1-1 1-2h2l3-2-2-1-3-1v4l-2 1-3 1h-1l-1 1c-2 0-3-1-2-2v-1c-3 0-5 1-5 2Zm2-5 3 2 4-1 3-1-1-1h-3l-4-1-2 2Zm5 178 7-2 2 1h2l6-2v-1l-1-1h-8l-1-1-3 1-3 2-1-1v-2 6Zm0-10-1 1 1 1 1-2h-1Zm1 22v-1h-1l-1 1h2Zm0-28 2 3 4 1 3-1v-2l-6-1-4-1v2l1-1Zm0-35v3l1-1h1l-2-2Zm0-14v1h3l3 1v-2l-3-1-3 1Zm0 8v1h1l1 1 2-1 2-1v-3l-6 3Zm17 114-5-4-5-1-1-2v-1h-2c-2 0-3 0-3 2l-1 3h2l1 1 1 2v1l6 2 7-3Zm-14-92h2l8-3-5-2-2-1-2-2-2 1-1 3v3l2 1Zm0 11-1 1 6-2h-2l-3 1Zm6-67 2-1v-4l-5-1v2l-2 2-2 1 2 2h3l2-1Zm-3 171h-2l-2 2 1 1 1 1 2-1v-3Zm6-112v-2h-1c-2 0-5-1-6 2 1 1 1 2 3 2l4-2Zm-3 105 2-1-1-2-2 1-2 1 1 1h2Zm1-68h-3 3Zm-2 28-1-1v2l2-1h-1Zm6-78c-2-1-2-2-2-4l-1-3-1 1h-1v1l-1 2 1 2 4 2 1-1Zm-4 54h4l-1-2-2 1-1 1Zm1 71-1 1 1 1v-2Zm1-145-1 1 1 1h1v-1h1l-2-1Zm0 47 1 2 1-1-2-1Zm3-154h2v-1h-2v1Zm0 85h2l-1-1-1-1v2Zm0 58v3l3-1-3-2Zm3-30h1v-2h-1v2Zm13 83v-4l-2-1-1 1-1 1-1 1-3-1v-1l3-2v-1h-2l-6 1v6h3l6-2 4 2Zm-9 3-4-3v2l1 1h3Zm-2-83h3l-1-3-1 2-1 1Zm0 9h1l-1-2v2Zm12 63 1-2-2-1-1-2 1-2 2-2-3-4h-4l1 1v2l-1 3-2-2-2-2c-1 2-2 4-1 6h3l4 1-1 4h5Zm-7-45h-3c0 1 0 2 2 3h2l-1-2v-1Zm-2 26v1l1 1h5l1-3-3-1c-2 0-4 0-4 2Zm3 54h3l-1-3-5 2 3 1Zm4 2-1-1h-4l-1 1 1 1 1 1v2h-1 4l1-3v-1Zm-5-60 2-1-3-1 1 2Zm1-7v1l1 1 3-1-3-2-1 1Zm1-8v1h2v-2l3-3h-2l-3 4Zm3 2v1l3 1v-1l-3-1Zm4 65h-1l-1 1h1l1-1Zm1-80h1v-1l-1 1Zm0-11h4c1 0 2 0 2 2l-2 2 6 1c-2-1-2-2-1-3l2-1-9-3-1 1-1 1Zm4 21v-1h-4v1h4Zm-4 5 1 1 1-1h-2Zm1 9v-2h-1v2h1Zm4 9 3 1v-4l1-1h-1c0 2-1 2-3 2l-4 1 1 1h3Zm-4 13 1 2 2-2h-3Zm0 5h1l1 1c1-1 2-2 3-1h4l-1-1v-1l-8 2Zm3-12-2-3-1-2 1 5h2Zm-1 6v-2h-2v2h2Zm2 33h-3v1l1 1h2v-2Zm7-53 2-2-5 2-2-1-2-2-1 1-2 1v2h5l3 1 2-2Zm-4 51h-6l3 1 2 1 1-2Zm-5-92c2 0 2 1 3 2 2-1 2-2 0-3l-1 1h-2Zm2 53h4l1-1 1-1h-6v2Zm0 16v1h2v-1h-2Zm5-43v-1h-3l-1 1h4Zm11 34-3-2-2-1h-1l-5-1 4-1 2-1 1 2h3v-2l-3-1-2-1 4-2-3-3h-5l4 3h-1l-3 2c1 1 0 2-4 4l-1 2 5 1 6 1v1l-3 1h-1l4 2v-2l4-2Zm-12 21-2-2-1 2h3Zm8-68-2-1-1 1h-1l-2 1 2-1 1 1v1l-7 3v4c1 2 2 1 2 1h2l2 1 3 2-1 1-1-1-3 1-2 1h-2l1 2 1 2 2 2h4l-1-3h-1l-2-1 3-1h2l2-2 2-1-2-1v-2h-1v-2l1-1-1-1-2-2 4-1-2-1v-2h2l5 1v-1l1-2-5-2v2l-3 2Zm-9 49h3-4 1Zm3 36h-2v1h2v-1Zm9-22-3-1h-2l2-3-3 1-4 1v2h10Zm-6 3h-2l-2-1 2 3 1-1 1-1Zm-1 10-2-2-1 1v1h3Zm-2-88v1l1 1 1-2h-2Zm1 9 1 2h2l1-2 1-1-5 1Zm14 25-3-1c1-1 2-2 1-3l-1-2c0 1-1 2-3 2h-2l-3 1h4l1 1c2 2 3 3 6 2Zm-6 10-1-1-1 1h2Zm-1-42 3 1v-1l-3-1v1Zm4 39h-3v1h3v-1Zm4-16-1-3-2-1-2 1-1 2h1v1h5Zm-1-8-4-1c1 2 2 3 4 3l1-1h1l-2-1Zm-3 41v2-2Zm3-18h-2v3l1-1v-1l1-1Zm-2-34 1 1h2v-2l-2 1h-1Zm2-3h6v-1h-6v1Zm3 13v-1l-3-1 3 2Zm4 14-3-1c-2 0-5-1-1 2h2l2-1Zm-4-22h3c-1-2-2-2-3 0Zm1 24v1l-1 1h2l-1-2Zm6-44-4-1-1 1v1l3-1h2Zm-3 29h-2v1h2v-1ZM2107 508c2 4 1 8-3 11l-47 31c-2 1-5 2-7 1-3-1-5-2-6-5l-23-46-25-45-24 7-2 78c0 6-3 9-8 9h-53c-5 0-9-4-9-9l18-266c0-5 3-8 7-9l65-8 12-1c20-2 41-3 60 2 48 10 60 69 43 119-5 14-13 26-24 37l-17 14 43 80Zm-176-112h2l-2-3v3Zm1-103h1v-2h-1v2Zm3 237h-1l-1 2 2-2Zm1-161 1 2 1-1 1-1h-3Zm10 6-5-3-2 1-3 2h2l2 1 6-1Zm-8 9-1-3h-1l1 3h1Zm0 1-1-1-1 2 1 1 1-2Zm8-14-2-2-1-2-4 2 3 1 2 1h2Zm-1 29-1-1-3 1v1l4-1Zm5-15h-2v2h2v-2Zm85-29c4-8 9-20 5-30-1-3-5-6-10-7l-18 1-30 7-7 62c24-3 48-9 60-33Zm-43-49 1 3 1 3 2-1-1-2v-2l1-1h-4Zm5 106v-1h-1v1h1Zm4-12-2-1-2 2 2 1 2-2Zm-3 19h1v-2l-2 1 1 1Zm2 16v-1l-1 1h1Zm3-139 2-1v-1l-2 1v1Zm2-4h3c1-1-2-4-2-4-2 1-2 3-1 4Zm2 94-2-1v1h2Zm3-107h4v-1h-4v1Zm1 2-1 1v1h2l1-1 1-1h-3Zm4 5h1v1l1-1h-2Zm6 6h5l1-1h-2l-2-1-2 2Zm0 88 3 1v2l4-1-4-1v-3l-3 2Zm2-95h1l1-1h-1l-1 1Zm0 11v2h1v-2h-1Zm1 93h3l7 2v-1l-1-1h-4l-1-3-4 3Zm3-88-2 2h4v-3l-2 1Zm1 97 3-3-1-1-1-2h-2v6h1Zm1-107 1 1v1h3v-2h-4Zm3 89h-3l3 4v-4Zm1 25-1-2c-2 0-3 1-3 2h4Zm-3-121 2-1h-1l-1-1v2Zm2 116 2 1h1v-3c-2 0-3 0-3 2Zm4-7h1l-1-2-1-1c-1 2-2 3-1 4l2-1Zm-2-93 2 1 2 1v-1h1l-5-1Zm0 104h3v-3l-3 3Zm1-108h2v-1l-1-1-1 1v1Zm4 130-4 1 3 1 1-1v-1Zm0-45v-2l-3 2h3Zm1 40-1-2-2 4h4l-1-2Zm2-7v-2l-3-1v3h3Zm2-6v-2l-1-1h-4l1 3h4Zm-5-10 4-1v-2l-4 1v2Zm6-28v-2l-3-1-1 1-1 1v1c3 1 4 2 5 0Zm-2 54h-2l-1 2h2l1-2Zm-1-132h1l2-2-1-1-2 3Zm5 11-2-1-2 1 1 2 2-1 1-1Zm-1 148-1-2v1h-1l2 1Zm3-25h-4v2l4-2Zm-2-121-2 2h2l2 1v-5l-2 2Zm0 4v2h3v-1l-3-1Zm5 55-1-2h-2l-1 3 4-1Zm1 9-2-1v2h1l1-1Zm3-18c-1-2-3-3-5-3l5 3Zm-2-65v-1l1-1h-3c-1 1 1 2 2 2Zm5 40 1-3h-2l-1 1-1 1 3 1Zm-2-5h2v-2h-2v2Zm6 33h-4v1h4v-1Zm-1-25 3 1v-1l-1-1h-1l-1 1Zm2-41h1v-1h-1v1Zm0 44 1 1-1-2v1Zm1-33v4h2c0-1 0-3-2-4Zm2 24h-2v2l2-2Zm2-16-4 3h4v-3Zm3 4 1 1 1 1-1-1-1-1Zm13 189h-1l-1-1h-3l-3 1 4 2 4-2Zm-5-35 2 1v-1h-2Zm4 4h-2v2l3 2-1-3v-1Zm3 9h-1l-1 1 1 1 1-2Zm5 18-2-3-2 2c0 2 3 4 3 4l1-2v-1Zm4-166 2 1 3 1v-2l-1-4v3h-3l-1 1Zm5 13v-10h-1v10h1Zm1 5-2-2v-3 30l1-5v-11l-1-5c0-1 0-3 2-4ZM2330 320l-58 2-4 126-3 2 3 1v11h-2l-1 1-2 1 1 3v1l-1 1-1 1 1 5 1 4-1 2-1 1v2l1 1v3l1 3h3l-1 3-1-2c0 2-1 2-2 2h-3v3l3-1 1 1v1l-1 1-1 3h2l2 1c0 1 0 2-2 2l-2 2 2 2c0 1-1 2-3 2l1 2 2 2-1 1-1 1v3l1 3-2 3 2 2 1 2-1 2-2 3c0 1 2 4 4 4h1l-1 3c0 5-3 8-8 8l-59 2c-4 0-9-5-8-9l2-69v-1l1-52h3v-1h-3l3-92-59 11c-6 2-11-2-11-8l3-65c0-6 3-8 8-9l193-4c6 0 9 4 9 9l-1 49c0 6-3 8-8 9Zm-198-13h-4v1h4v-1Zm21 0-3-2h-2c-2 2-2 3-1 4l4 1 2-2v-1Zm-5 3v2l6-1-6-1Zm4 7h-2v2h2v-2Zm9-10-4 1-2 2 2 1h3c-1-1-1-2 1-2l1-1 1-1h-2Zm5 7h-4c-1 2-2 3 2 4l2-1v-3Zm-2-11h-2v1h2v-1Zm16 17v-2l-6-1-4 3h4l1 1 5-1Zm7-15v2l2 1v-1h1l1-1v-1h-4Zm9 10h-1l1 3 2-3h-2Zm8 203-1-18h-1l-1-1-4 5 1 2v7l-1 1v4h-1l1 3 2 4 2-1 2-4c-1-1 0-1 1-2Zm2-62-1-2c-1 0-2 0-2-2-2 3-4 7-3 11v1l-1 1 1 2-1 1-1 1 1 1 2 2-2 4v7l-1 9v5h1l2 1 3 1 1-1v-1l-2-1c2 0 2-1 3-2-2-1-2-2-1-3v-8l-1-1c1 0 2-1 2-3l-1-2-1-4v-3l-1-3 2-6 1-4v-1Zm-4-152h-3v2h2v-2Zm3 139v-1h-1l-2 1 1 1 2-1Zm47 4h-3v1h2l1-1Zm7 39h-3v1l2 1 1-2Zm8-16v1-1ZM2416 490c22 8 39 2 39-16 0-11-5-19-14-25-8-7-20-14-28-19l-9-5-26-20c-8-8-13-17-16-29-6-26-2-52 13-76 14-25 37-40 69-44 27-3 61-2 80 22 8 9 11 22 12 33v39c0 6-4 9-9 9h-50c-6 0-9-3-9-9l-1-30c-1-5-2-8-6-9-8-1-14 3-18 12-8 15-4 30 8 41 5 6 11 10 17 14l13 8c33 20 58 48 53 89v1c-6 31-21 56-48 67-21 8-43 10-65 7-24-2-52-15-72-26-5-3-7-7-4-12l19-38c2-4 7-6 12-4 13 8 27 15 40 20Zm-2 4h-2v1h2v-1Zm6 12-1 1 1 1 2-1-2-1Zm14 14h-3v2h3v-2Zm29-110h-4v2h4v-2Zm8 19h-1l-1-1v3h2v-2Zm0 83h-1v2h1v-2Zm5-6h-1v1h-2l4 1-1-2Zm1-94 1-1-1-2h-2v5h3l-1-2Zm2 2-2 1 1 2 4-2h1l-2-1h-2Zm2 106h-4v3l4-3Zm-3-9-1 2 2 1 4-2-3-1h-2Zm9-175-2 2h2l1-1-1-1Zm1-30v-1h-2v1h2Zm3 136-4-1v1l4 1v-1Zm-1 58v-1l-1-1-1 2v2l1-1h1v-1Zm9-14h-4l-2 1-2 1-2 2v1l3 1h2l3-2 2-2v-2Zm-8-36-1 1 2 1 1-1-2-1Zm9 29-1 1-2 1-2-1h-5v2l1 1 6 1h1l2 1h3v-1l1-2-4-3Zm-5-44-2-2-3 3h5v-1Zm3 28-2-1h-1l-1 3h1l1 1h3v-2l-1-1Zm1 31v-3h-3l-1 2v1h4Zm0 13v-1l-4 1 5 1-1-1Zm-1-188h-1v-1l-1 1v1h1l1-1Zm8 151-1-3-1 1h-1l-4 1c0 2 2 3 3 3l2-1 2-1Zm5-19v-1h-5l-1 2 4 2c2 0 2-1 2-3Zm-2 39c-1 0-2 1-2 3l2 3 2-1 2-2-2-2-2-1Zm2-7h-3v3h3v-3Zm3-3h-3l-1 3h3v-1l1-2Zm1-16h-2v3l2-1 1-1 1-1h-2Z"/>
    </g>
    <path class="m" d="M2668 716c-7-5-11-6-26 5s-4 17 10 7l16-12Z"/>
  </g>
</svg>
