<svg xmlns="http://www.w3.org/2000/svg" viewBox="0 0 569.1 127.98"><defs><style>.cls-1{fill:#fff;stroke:#fff;stroke-miterlimit:10;stroke-width:0.38px;}</style></defs><g id="Layer_2" data-name="Layer 2"><g id="Layer_2-2" data-name="Layer 2"><path class="cls-1" d="M411.57,125.63c-4.59,0-8.13-3.82-8.1-8.68A8.29,8.29,0,0,1,418,111.2l1-1c-6.18-6.26-17.08-2.44-17,6.9s11.16,13.08,17.13,6.51l-.95-.93A8.78,8.78,0,0,1,411.57,125.63Z"/><polygon class="cls-1" points="444.94 116.29 432.68 116.29 432.68 107.42 431.25 107.42 431.25 126.58 432.68 126.58 432.68 117.61 444.94 117.61 444.94 126.58 446.36 126.58 446.36 107.42 444.94 107.42 444.94 116.29"/><path class="cls-1" d="M474.25,118.62c0,4.62-2.49,7-6.37,7-4.05,0-6.49-2.6-6.49-7.12V107.42H460v11.2c0,5.36,3.25,8.26,7.85,8.26s7.86-2.92,7.86-8.43v-11h-1.43Z"/><path class="cls-1" d="M504.17,112.93c-.09-3.68-3-5.46-6.84-5.51h-8.05v19.16h1.43v-7.93H497l6.11,7.93h1.8l-6.32-8.18C501.79,118,504.17,116.13,504.17,112.93Zm-13.46,4.43v-8.62h6.54c3.47,0,5.5,1.61,5.5,4.19,0,2.79-2.36,4.43-5.58,4.43Z"/><path class="cls-1" d="M526,125.63c-4.59,0-8.14-3.82-8.11-8.68a8.3,8.3,0,0,1,14.54-5.75l1-1c-6.17-6.26-17.08-2.44-17,6.9s11.16,13.08,17.13,6.51l-1-.93A8.75,8.75,0,0,1,526,125.63Z"/><polygon class="cls-1" points="559.38 116.29 547.12 116.29 547.12 107.42 545.7 107.42 545.7 126.58 547.12 126.58 547.12 117.61 559.38 117.61 559.38 126.58 560.81 126.58 560.81 107.42 559.38 107.42 559.38 116.29"/><path class="cls-1" d="M88.11,30.72c4.51-5.82,9.1-11.73,12.78-18.13C104.4,6.74,101.18.07,94.2.24c-.39,0-.87,0-1.44,0s-.91.09-1.44.16C79.5,2,68,6.09,56.73,10,41.5,15.84,25.78,21.22,12.35,30.72a15.32,15.32,0,0,0-2.08,2l-.06,0c-1.9,2.25-.22,5.8,2.2,6.85A19.64,19.64,0,0,0,16.47,41c8.05,1.55,16.24,1.75,24.43,1.71.43,0,.86,0,1.29,0a28.42,28.42,0,0,1,6.89.53,5.12,5.12,0,0,0,1.66.06,1.54,1.54,0,0,1,.43-.06c1-.17.07-1.75-.43-2.08A6.63,6.63,0,0,0,48,40.18a44.3,44.3,0,0,0-9.46-.8c-8.27-.06-16.72-.13-24.81-2.09a1.27,1.27,0,0,1-.91-.8,2.12,2.12,0,0,1,.43-1.12,4.35,4.35,0,0,1,1-.91c.39-.28.8-.57,1.23-.86A85,85,0,0,1,31,24.84q14.11-6.42,28.76-11.6a236.93,236.93,0,0,1,26.36-8A37.87,37.87,0,0,1,96.29,3.93a10.69,10.69,0,0,1,1.87.38.54.54,0,0,1,.21.05,1.4,1.4,0,0,1,.81,1.39c-.08.18-.15.36-.22.54a6,6,0,0,1-.48,1.49,3.25,3.25,0,0,0-.37.59c-1,1.82-2,3.6-3.16,5.35C82.09,32,67.22,48.74,52.29,65.31s-34,36.89-49.48,52.76a30.71,30.71,0,0,0-2.29,2.57,2.32,2.32,0,0,0,0,2.46,1.18,1.18,0,0,0,1.5.43c1.22-1.25,2.37-2.5,3.58-3.75C32.93,92.56,64.09,60.93,88.11,30.72Z"/><path class="cls-1" d="M192.12,44.46a1.21,1.21,0,0,0,.53.21,5.61,5.61,0,0,0,1.61-.48c1.17-.61,2.37-1.25,3.58-1.92.24-.08.36-.47.43-.7a1.93,1.93,0,0,0-.7-1.92,1.72,1.72,0,0,0-1.92-.49C193.69,40,189.85,42.06,192.12,44.46Z"/><path class="cls-1" d="M217.81,62.61a1.1,1.1,0,0,1-.6-1.89c.82-1.14,1.58-1.73,2.45-2.84.6-.76,1.59-2.27,1.87-2.73a2.51,2.51,0,0,0,.06-2,2.91,2.91,0,0,0-4-1.87.41.41,0,0,1-.21.05c-.79.36-1.55.75-2.3,1.18-3.35,2.21-6.78,4.4-10.05,6.79-.84.62-1.47.06-1.07-.7.23-.43.5-.83.75-1.22s.66-1.06,1-1.55l2.57-4.18a2.06,2.06,0,0,0-1-2.83,1,1,0,0,0-.75-.11,3.37,3.37,0,0,0-.91.81c-2.08,2.87-2.67,3.67-4.75,6.55a42.19,42.19,0,0,1-3.6,3.53c-5.75,4.77-13.27,10.71-20.55,10.86-.74,0-2.37-.22-2.33-1.43a19.67,19.67,0,0,1,3.84-6.2,2.42,2.42,0,0,0,.27-.32,108.77,108.77,0,0,1,7.49-8.29c.92-1,.82-2-.32-2.89a1.57,1.57,0,0,0-1.92.14c-.36.3-.65.5-1,.79-1.15,1-1.68,1.5-2.07,1.93A21.68,21.68,0,0,1,177,56.87c-2.49,1.33-3.69,2.06-10,3.34a6.42,6.42,0,0,1-3.17-.15c-.39-.14-1-1.49-1.19-1.81s-.34-.41-.48-.59c-4.87-5-12.16-.53-16.68,2.68l-4.09,3.13a.74.74,0,0,1-1.11-.93l.38-.76a75.49,75.49,0,0,0,4.55-9.84c.28-.92-.11-1.82-1.18-2.67-.28-.25-.94-.32-1.17,0a5.57,5.57,0,0,0-.65,1c-1.44,2.66-1.76,3.2-2.3,4.17a19,19,0,0,1-1.65,2.71A19.88,19.88,0,0,1,131,61.93c-4.88,1.92-9.15,2.86-13.67,4.57-1.62.6-2.25-.15-1.88-1.33,0-.11.16-1.06.19-1.2a55.25,55.25,0,0,1,1.66-5.4,12.76,12.76,0,0,1,8-7.86c1.38-.47,2,.19,2.82.08a1,1,0,0,0,.88-1,1.89,1.89,0,0,0-1-1.9,6.48,6.48,0,0,0-3.89-.53c-4.33.55-7.37,3.87-9.21,7.62a13.56,13.56,0,0,0-.61,1.31,5.61,5.61,0,0,1-1.44,2.16c-5.23,4.45-8,5-13.06,7.54-.69.35,0-1.94.21-2.48v-.27a5.87,5.87,0,0,0-2.59-6.28C93,54.7,86.92,60.12,83.11,62.15a11.63,11.63,0,0,1-1.55.75.65.65,0,0,1-.32-.16c-.11,0-.16-.17-.22-.27a4,4,0,0,1,.22-.37,11,11,0,0,1,.85-1.5c1.89-2.4,3-4.16,5-6.57.89-1.19,1.72-2.28.59-3.69-.4-.52-1.7-.86-2.19-.32a6.9,6.9,0,0,0-1.12,1.28,4,4,0,0,0-.38.48C79.37,58.08,74.34,64,70.17,70.55a3.06,3.06,0,0,0,.53,3.9,1.6,1.6,0,0,0,1.93.43,2.2,2.2,0,0,1,.43-.27c5.58-4.23,11-8.67,17.16-12.14A18.75,18.75,0,0,1,95.67,60a3.56,3.56,0,0,1,.86-.11c.16.13.54.29.53.53a2.56,2.56,0,0,1,0,1.29,15.39,15.39,0,0,1-.64,1.76c-.29.75-.53,1.52-.75,2.3-.81,1.88-1.71,6.87.84,6.16,1.17-.33,3.69-3.67,6.14-5.09,3.8-2.23,8-4.77,9.82-6.45.47-.44.47.44.37.85-.33,1.4-.94,4-1.24,5.38-.09.64-.47,2.17-1.08,2.48-2.45,1.22-9.55,4.45-12.27,6.3-4.52,3.07-7.14,5.6-7,8.39.08,2,2.52,2.66,7,2.44a23.61,23.61,0,0,0,4.47-.76c5.79-1.55,9-6.65,10.37-11.68.07-.22.67-2.17.78-2.42.47-1,.39-1,1.74-1.74,5.47-3.06,13.62-4.84,19.8-8.41.67-.39.63.44-.09,1.7-2.48,4.31-4.89,8.68-7.4,12.93-2.46,4.47-8,12.28-10.36,16.84a2.07,2.07,0,0,0,.21,1.23,7.32,7.32,0,0,0,1.18,1.39c.33.37,1.24.51,1.55.1,5.34-8,13.43-19.6,20.65-26.06.19-.19,1.57-1.34,1.57-1.34a10.45,10.45,0,0,0,.41,3,3.84,3.84,0,0,0,4.29,2.67c5.48-.72,10.77-2.37,13.89-6.33a19.13,19.13,0,0,0,2.12-3.7,2,2,0,0,1,1.3-1.27c1.61-.41,2.64-.68,4.14-1.09A36.78,36.78,0,0,0,176,58.7c.76-.39.76,0,.29.59-.8,1-2,2.27-2.47,2.94a13.9,13.9,0,0,0-2.56,5.32c-.36,2.86,1.65,6,4.81,5.88,7-1.1,11.51-5.93,18.25-9.58.53-.29,1.44-.54-.3,1.83L190.2,71c-.49.61-2.83,4.29-3.18,5a2.31,2.31,0,0,0,.48,2.67,1.58,1.58,0,0,0,2.19.54c6.91-6.45,17.1-17.19,25.24-22.05.52-.31-.12,1.53-.63,2.09a3.93,3.93,0,0,0-.73,1.44,2.74,2.74,0,0,0,2.5,3.48C217.94,64.29,218.61,62.89,217.81,62.61ZM107.43,77.5A14.72,14.72,0,0,1,103,81.11,16.2,16.2,0,0,1,97,83c-.93.09-2.3-.07-2.32-1.34,0-1.58,2.47-4.86,9.43-7.37,2.34-.84,3.82-1.22,4.92-1.71.51-.23.89,0,.5,1.12A17.27,17.27,0,0,1,107.43,77.5Zm52.75-16.74c-4.17,1.94-10.77,10.3-16.08,7.11a.65.65,0,0,1-.25-.75,5.09,5.09,0,0,1,1.45-1.92c2.93-2.3,5.06-4.22,8.55-5.65a13.51,13.51,0,0,1,5.86-.94C160.86,58.79,161.62,60.09,160.18,60.76Z"/><path class="cls-1" d="M240.73,47.13a1.33,1.33,0,0,0,.52.25,5.71,5.71,0,0,0,1.64-.38c1.21-.53,2.44-1.09,3.69-1.69.25-.06.4-.44.48-.67a1.94,1.94,0,0,0-.57-2,1.7,1.7,0,0,0-1.89-.61C242.59,42.76,238.62,44.59,240.73,47.13Z"/><path class="cls-1" d="M330.23,58a36,36,0,0,1-4.68,3.71,91.48,91.48,0,0,1-13.92,6.93c-1.92.86-1.11-.66-.42-1.79a131,131,0,0,0,6.71-12.48,7,7,0,0,0,.7-1.87,1.91,1.91,0,0,0-.27-1.23,12.21,12.21,0,0,0-1.6-1.71,1.19,1.19,0,0,0-1.61-.16c-6.49,6.69-13.42,12.84-21.7,17.32A59.49,59.49,0,0,1,288,69.26a.46.46,0,0,1-.16.06c-1.35.56-3,.62-3.85-.19s-.71-2.49.42-4.41a26.24,26.24,0,0,1,11.28-10.16c3.11-1.49,6.71-2,9.84,0,.56.36.88-.06.79-.44a2.91,2.91,0,0,0-.63-1.22A9,9,0,0,0,300,50.07c-4.77-.62-9.9,2.43-13.61,5.75a72.22,72.22,0,0,1-5.59,5,74.52,74.52,0,0,1-10,6.21c-1.14.6,0-2.78.22-3.83.42-2.32-.43-5.19-2.5-6.28-4.39-2.24-10.49,3.19-14.3,5.21-1,.54-1.9-.41-1-1.55,1.89-2.4,3-4.16,5-6.57.89-1.19,1.72-2.28.59-3.69-.4-.52-1.7-.86-2.19-.32a6.9,6.9,0,0,0-1.12,1.28,3.2,3.2,0,0,0-.38.48c-1.78,2.35-3.11,4.14-3.92,5.13a22.06,22.06,0,0,1-4.3,4c-6.31,4.6-11.67,6.31-20.68,9.39-1,.34-2-.07-2-1.28a19.51,19.51,0,0,1,3.85-6.2,3.33,3.33,0,0,0,.26-.32,108.77,108.77,0,0,1,7.49-8.29c.92-1,.82-2-.32-2.89a1.44,1.44,0,0,0-1.87.11,10.88,10.88,0,0,0-1.1.78l-.05,0a66.67,66.67,0,0,0-8.64,9.54A15,15,0,0,0,221,67.55c-.36,2.86,1.68,6.38,4.81,5.88,2.84-.45,4.94-1.7,7.4-3,3.63-2,7.48-4.42,11.12-6.2.9-.44.93.33-.13,1.83-.51.71-2.46,3.73-2.89,4.51a3.06,3.06,0,0,0,.53,3.9,1.6,1.6,0,0,0,1.93.43,2.2,2.2,0,0,1,.43-.27c5.58-4.23,11-8.67,17.16-12.14A18.75,18.75,0,0,1,266.76,60a3.56,3.56,0,0,1,.86-.11c.16.13.54.29.53.53a2.56,2.56,0,0,1,0,1.29,15.39,15.39,0,0,1-.64,1.76c-.29.75-.53,1.52-.75,2.3-1.13,3.56-.79,7.48,1.7,6.59a11.41,11.41,0,0,0,3.12-2.32c3.5-3.08,5.53-5.62,8.51-7.19,1-.52-.21.38-.31,3.61a10.1,10.1,0,0,0,.19,1.71,9.24,9.24,0,0,0,2,3.59c2.1,2.25,5.62,1.54,8.23,1a27.87,27.87,0,0,0,7-3c7-3.93,10.61-8.42,10.92-8s-.06,1.52-.39,2c-1.67,2.49-3.07,5-4.5,7.5-.78,1.25-1.22,2.24-2.54,2.92C291.15,79.9,280,81,271.88,92.34c-1.59,2.24-3.29,5.7-2.83,9s3.36,4.78,7,4.24a17.75,17.75,0,0,0,3.47-1.1c7.32-3.41,9.13-7,13.15-11.41a125.75,125.75,0,0,0,11.22-14.6c1.05-2,3.1-2.92,5-3.9a140,140,0,0,0,18.79-11.74c2.57-1.89,3.86-3.56,4.17-4.5C332.09,57.64,331.12,57.16,330.23,58Zm-36.33,27c-6.61,7.23-6.5,8.41-12.81,13.89-2.3,2-6.74,3.8-8.25,3.23-1.14-.42-1.06-2.1.61-4.55,4.63-6.74,15.34-12.63,20.35-15.3.6-.31,3.8-2,3.42-1.46C297,81.25,294.07,84.88,293.9,85.07Z"/><path class="cls-1" d="M459,59.61a1.34,1.34,0,0,0-.32-.45.18.18,0,0,1,0-.11c-1-1.41-2.7-1.17-4.17-1.28-.57,0-.91-.05-1.13-.08-.78-.07-1.33-.3-.95-.93.91-1.5,1.84-2.95,2.84-4.37,9.72-13.94,23.58-24.64,36.13-36.27.85-.75,1.67-1.53,2.46-2.35l.1-.21v-1A2.1,2.1,0,0,0,491,11.36a33.33,33.33,0,0,0-3.05,2.3q-12,10.86-23.2,22.56Q455.5,46,447,56.27A3.3,3.3,0,0,1,444,57.82c-3.84,0-10.52.11-12,.16-4,.15-7.47.38-11.23.54a6.5,6.5,0,0,1-2.09,0c-.64-.35,0-1.07.36-1.47.89-1.11,1.18-1.38,2.11-2.39,8.84-9.24,17.89-18.32,25.34-28.71,1.84-3,4-6.19,3.42-9.89a8.6,8.6,0,0,0-5-6.74,12.65,12.65,0,0,0-4.92-1.55c-.47,0-.93-.09-1.39-.16a54.26,54.26,0,0,0-5.94-.32,145.44,145.44,0,0,0-63.78,17.91c-6,3.47-11.87,7.67-15.13,14-2.13,3.91-1.9,9.39,2.14,12,.64.46,2.48,1.15,2.78.1s-1.09-2-2.08-2.46c-2.39-1-1.14-3.92-.48-5.72C365,22.83,420,8.83,440.74,11.15a12.89,12.89,0,0,1,5.35,1.6A2,2,0,0,1,447,14.2c-.15,3.17-1.87,6-3.69,8.5q-3.37,4.38-6.95,8.61c-7.94,9.14-16.48,17.66-24.86,26.35l-.59.59a3.94,3.94,0,0,1-2.68,1.12,5.1,5.1,0,0,0-.8.06c-12.22.94-24.76,1.85-36.35,6a19.23,19.23,0,0,0-4.55,2.41,3.68,3.68,0,0,0-1.2,3,4,4,0,0,0,1.47,2.8,3.64,3.64,0,0,0,1.6.49.71.71,0,0,0,.54-.49c.08-.21-.05-.49-.11-.69a.25.25,0,0,1,0-.16c-.41-1.09-.87-3,3.45-4.32,3.26-.94,6.06-1.39,8.95-2h.11c5.32-1.13,10.76-1.87,16.15-2.46q3.15-.44,6.36-.64c.28,0,1.24-.14,1.43.33s-.54.89-.69,1C387,83.17,365,104.41,346.47,122.3l-.06,0c-1.29,1.45-4.12,2.81-2.24,5a1,1,0,0,0,1.44.21c21.35-19.38,47-43.33,67-64.11a4,4,0,0,1,3.31-1.33q4-.21,8-.48c5.19-.23,11.61-.61,16.83-.55,1.91,0,2,.11,1.34,1.05-4.35,6-9.23,12.11-11.06,19.44-1,3.56.06,7.61,3.26,9.68,1.92,1.21,3.5.67,5.56-.21,5.39-2.31,5.31-4.5,5.31-6a2.9,2.9,0,0,0-1.28-2.21c-.2-.09-.75-.35-.88-.11A19,19,0,0,1,442,84.66c-2.2,2.7-4.91,4.43-6.72,4.12-1.43-.14-1.78-1.82-1.45-3,1.08-6.16,4.84-11.39,8.34-16.44Q445,65.47,448,61.78a2.57,2.57,0,0,1,1.82-1c2.63-.26,5.28,0,7.91,0a1.1,1.1,0,0,0,1.23-.64A.7.7,0,0,0,459,59.61Z"/><path class="cls-1" d="M568.79,58.26c-.15-.39-.64,0-1,.16-.55.28-2.12,1.33-4.63,2.7A58.55,58.55,0,0,1,548,66.93c-5.17,1.17-9.14,1.43-10.31.4s-1.54-1.72-.38-3.63c.28-.39.74-1,1.39-1.71.47-.49.66-.7,1-1a1.39,1.39,0,0,1,1.15-.39,23.47,23.47,0,0,0,6.74.78c3.38-.15,5.74-.79,7.71-2.66a4.94,4.94,0,0,0,.23-6.44c-2.94-3-8.42-.68-12.73,1.4a30.1,30.1,0,0,0-5.12,3.69,1.34,1.34,0,0,1-1,.34,33.85,33.85,0,0,0-9.51.64,9.37,9.37,0,0,1-1.29.27,1.33,1.33,0,0,1-1.23-.25c-.23-.3-.83-1.19-1-1.36a8.38,8.38,0,0,0-1.37-1.25c-4.81-3.3-11.33.71-15.5,3.66-1.18.92-2.32,1.85-3.47,2.78-.6.49-1.5,1.1-1.82.84s.12-1.46.48-2.17a76,76,0,0,0,4.54-9.84c.28-.93-.11-1.82-1.18-2.67a.89.89,0,0,0-1.17,0,5,5,0,0,0-.64,1c-1.34,2.45-2.56,4.73-3.91,7.2a5.45,5.45,0,0,1-1.45,1.92,23,23,0,0,1-13.21,4c-.91,0,.64-1.66,1-2.94a10.86,10.86,0,0,0,.42-2.6c0-2.58-2.44-4.89-5-3.92-.28.11-1.07.51-1.32.58-.53.21-1.14.36-1.44-.68-.61-2.09-1.77-2-3-1.6-5,1.94-8.93,5.87-12,10.16a19.26,19.26,0,0,0-1.93,3.85c-1.71,4.12,1.48,10.12,6.36,9,5.18-1.25,9.64-4.61,13.32-8.34a3.38,3.38,0,0,1,2.24-1.07c4.81-.43,8.36-1.1,12.53-3.73.56-.35.93.08.6.65-2.36,4.25-5.1,9.07-7.55,13.21-2.46,4.48-9.78,14.3-12.17,18.86a2.06,2.06,0,0,0,.21,1.23,7,7,0,0,0,1.18,1.39c.33.38,1.24.51,1.55.11,5.34-8,15.24-21.62,22.47-28.08a.93.93,0,0,1,1-.34c.71.18.55,1.66,1.36,2.8s3.79,2,5.42,1.85c5-.31,9.41-1.68,12.61-5.87,2.08-2.71,1.72-5.39,2.59-5.94a15,15,0,0,1,9-1.83c.62.13,1.09.36.74.83a17.68,17.68,0,0,0-1.38,2.26,6.79,6.79,0,0,0,2.13,7.87c2.29,1.9,6.42,1.49,9.68.91,7.7-1.62,13.45-4.56,22.94-11.45A1,1,0,0,0,568.79,58.26Zm-22.26-2.77c3.21-1.34,4.63-1.54,5.86-1.21,1.52.39,1.48,2.25-3,3.89a14.4,14.4,0,0,1-6.6.6C542,58.6,544,56.66,546.53,55.49ZM475.44,65.87a25.69,25.69,0,0,1-9,4.86,10,10,0,0,1-1,.16.54.54,0,0,0-.27.06,1.42,1.42,0,0,1-1.28-1.45c.49-3.45,2.86-6.21,5.08-8.71a28.5,28.5,0,0,1,5.82-5,.88.88,0,0,1,1.18,0c.51.65.24.86-.22,1.36a10.58,10.58,0,0,0-1.16,1.48,3.53,3.53,0,0,0,1.7,5C477.24,64.08,477.19,64.47,475.44,65.87Zm5.44-5.11c-1.43,1.33-1.64,1.55-2.37,1.54-2,0-3.29-.71-2.58-2.43A5.24,5.24,0,0,1,481,56.72,1.35,1.35,0,0,1,482.48,58,4.2,4.2,0,0,1,480.88,60.76ZM521,60.49c-5,2.93-7.82,9-14.65,6.73-.32-.11-1.69-1-1-1.9a11.75,11.75,0,0,1,1.87-2A21.8,21.8,0,0,1,515,58.68a19.16,19.16,0,0,1,4.43-.82c.43,0,2.14.28,2.51,1.07C522.24,59.53,521.39,60.26,521,60.49Z"/></g></g></svg>