<svg xmlns="http://www.w3.org/2000/svg" viewBox="0 0 28.92 42"><defs><style>.cls-1{fill:#58c9dc;}</style></defs><g id="Layer_2" data-name="Layer 2"><g id="Layer_2-2" data-name="Layer 2"><polygon class="cls-1" points="17.66 15.15 17.66 0 11.26 0 11.26 10.53 17.66 15.15"/><polygon class="cls-1" points="6.4 7.02 6.4 0 0 0 0 2.4 6.4 7.02"/><path class="cls-1" d="M11.26,13.65V33.43a2.63,2.63,0,0,0,1,2.08l4.84,3.74a.33.33,0,0,0,.53-.26V18.27Z"/><path class="cls-1" d="M0,5.52V30.46a2.65,2.65,0,0,0,1,2.09l4.85,3.74A.33.33,0,0,0,6.4,36V10.14Z"/><path class="cls-1" d="M22.52,0V18a.33.33,0,0,1-.52.27l-4.34-3.14v3.12L21.43,21a2.61,2.61,0,0,1,1.09,2.13v13a2.6,2.6,0,0,0,1,2.08l4.84,3.74a.33.33,0,0,0,.53-.26V0Z"/></g></g></svg>